G04 #@! TF.GenerationSoftware,KiCad,Pcbnew,5.0.1*
G04 #@! TF.CreationDate,2019-03-06T23:12:19-06:00*
G04 #@! TF.ProjectId,PlasticFrog,506C617374696346726F672E6B696361,rev?*
G04 #@! TF.SameCoordinates,Original*
G04 #@! TF.FileFunction,Profile,NP*
%FSLAX46Y46*%
G04 Gerber Fmt 4.6, Leading zero omitted, Abs format (unit mm)*
G04 Created by KiCad (PCBNEW 5.0.1) date Wed 06 Mar 2019 11:12:19 PM CST*
%MOMM*%
%LPD*%
G01*
G04 APERTURE LIST*
%ADD10C,0.200000*%
G04 APERTURE END LIST*
D10*
X183800000Y-70100000D02*
X183800000Y-72400000D01*
X183800000Y-59700000D02*
X183800000Y-62000000D01*
X212800000Y-72600000D02*
X183800000Y-72600000D01*
X183800000Y-72600000D02*
X183800000Y-74900000D01*
X212800000Y-124200000D02*
X183800000Y-124200000D01*
X212800000Y-111100000D02*
X212800000Y-98400000D01*
X183800000Y-74900000D02*
X186800000Y-74900000D01*
X186800000Y-126500000D02*
X186800000Y-134600000D01*
X183800000Y-124000000D02*
X212800000Y-124000000D01*
X212800000Y-98400000D02*
X183800000Y-98400000D01*
X186800000Y-100700000D02*
X186800000Y-108800000D01*
X183800000Y-87800000D02*
X186800000Y-87800000D01*
X183800000Y-126500000D02*
X186800000Y-126500000D01*
X186800000Y-121700000D02*
X183800000Y-121700000D01*
X183800000Y-98400000D02*
X183800000Y-100700000D01*
X212800000Y-59700000D02*
X183800000Y-59700000D01*
X183800000Y-134600000D02*
X183800000Y-136900000D01*
X183800000Y-136900000D02*
X212800000Y-136900000D01*
X183800000Y-111100000D02*
X212800000Y-111100000D01*
X183800000Y-147500000D02*
X183800000Y-149800000D01*
X183800000Y-62000000D02*
X186800000Y-62000000D01*
X186800000Y-87800000D02*
X186800000Y-95900000D01*
X183800000Y-83000000D02*
X183800000Y-85300000D01*
X183800000Y-98200000D02*
X212800000Y-98200000D01*
X183800000Y-111300000D02*
X183800000Y-113600000D01*
X183800000Y-72400000D02*
X212800000Y-72400000D01*
X212800000Y-136900000D02*
X212800000Y-124200000D01*
X212800000Y-85500000D02*
X183800000Y-85500000D01*
X186800000Y-108800000D02*
X183800000Y-108800000D01*
X183800000Y-85300000D02*
X212800000Y-85300000D01*
X186800000Y-95900000D02*
X183800000Y-95900000D01*
X212800000Y-98200000D02*
X212800000Y-85500000D01*
X183800000Y-108800000D02*
X183800000Y-111100000D01*
X183800000Y-113600000D02*
X186800000Y-113600000D01*
X186800000Y-147500000D02*
X183800000Y-147500000D01*
X212800000Y-149800000D02*
X212800000Y-137100000D01*
X186800000Y-83000000D02*
X183800000Y-83000000D01*
X183800000Y-124200000D02*
X183800000Y-126500000D01*
X183800000Y-139400000D02*
X186800000Y-139400000D01*
X186800000Y-62000000D02*
X186800000Y-70100000D01*
X183800000Y-121700000D02*
X183800000Y-124000000D01*
X186800000Y-134600000D02*
X183800000Y-134600000D01*
X183800000Y-149800000D02*
X212800000Y-149800000D01*
X186800000Y-70100000D02*
X183800000Y-70100000D01*
X212800000Y-111300000D02*
X183800000Y-111300000D01*
X212800000Y-124000000D02*
X212800000Y-111300000D01*
X212800000Y-85300000D02*
X212800000Y-72600000D01*
X186800000Y-74900000D02*
X186800000Y-83000000D01*
X183800000Y-100700000D02*
X186800000Y-100700000D01*
X212800000Y-137100000D02*
X183800000Y-137100000D01*
X212800000Y-72400000D02*
X212800000Y-59700000D01*
X183800000Y-137100000D02*
X183800000Y-139400000D01*
X186800000Y-139400000D02*
X186800000Y-147500000D01*
X183800000Y-85500000D02*
X183800000Y-87800000D01*
X186800000Y-113600000D02*
X186800000Y-121700000D01*
X183800000Y-95900000D02*
X183800000Y-98200000D01*
X157600000Y-95900000D02*
X154600000Y-95900000D01*
X183600000Y-98200000D02*
X183600000Y-85500000D01*
X154600000Y-124200000D02*
X154600000Y-126500000D01*
X154600000Y-139400000D02*
X157600000Y-139400000D01*
X154600000Y-113600000D02*
X157600000Y-113600000D01*
X157600000Y-147500000D02*
X154600000Y-147500000D01*
X183600000Y-149800000D02*
X183600000Y-137100000D01*
X157600000Y-134600000D02*
X154600000Y-134600000D01*
X154600000Y-83000000D02*
X154600000Y-85300000D01*
X183600000Y-136900000D02*
X183600000Y-124200000D01*
X183600000Y-85500000D02*
X154600000Y-85500000D01*
X183600000Y-72400000D02*
X183600000Y-59700000D01*
X154600000Y-137100000D02*
X154600000Y-139400000D01*
X157600000Y-113600000D02*
X157600000Y-121700000D01*
X154600000Y-95900000D02*
X154600000Y-98200000D01*
X157600000Y-62000000D02*
X157600000Y-70100000D01*
X154600000Y-121700000D02*
X154600000Y-124000000D01*
X154600000Y-72400000D02*
X183600000Y-72400000D01*
X157600000Y-121700000D02*
X154600000Y-121700000D01*
X157600000Y-139400000D02*
X157600000Y-147500000D01*
X154600000Y-72600000D02*
X154600000Y-74900000D01*
X157600000Y-83000000D02*
X154600000Y-83000000D01*
X183600000Y-59700000D02*
X154600000Y-59700000D01*
X183600000Y-124000000D02*
X183600000Y-111300000D01*
X183600000Y-124200000D02*
X154600000Y-124200000D01*
X154600000Y-108800000D02*
X154600000Y-111100000D01*
X154600000Y-136900000D02*
X183600000Y-136900000D01*
X154600000Y-85300000D02*
X183600000Y-85300000D01*
X154600000Y-62000000D02*
X157600000Y-62000000D01*
X157600000Y-87800000D02*
X157600000Y-95900000D01*
X157600000Y-74900000D02*
X157600000Y-83000000D01*
X183600000Y-111300000D02*
X154600000Y-111300000D01*
X154600000Y-147500000D02*
X154600000Y-149800000D01*
X154600000Y-149800000D02*
X183600000Y-149800000D01*
X157600000Y-70100000D02*
X154600000Y-70100000D01*
X154600000Y-111100000D02*
X183600000Y-111100000D01*
X183600000Y-85300000D02*
X183600000Y-72600000D01*
X183600000Y-137100000D02*
X154600000Y-137100000D01*
X154600000Y-98200000D02*
X183600000Y-98200000D01*
X154600000Y-74900000D02*
X157600000Y-74900000D01*
X157600000Y-126500000D02*
X157600000Y-134600000D01*
X154600000Y-124000000D02*
X183600000Y-124000000D01*
X154600000Y-134600000D02*
X154600000Y-136900000D01*
X154600000Y-70100000D02*
X154600000Y-72400000D01*
X183600000Y-98400000D02*
X154600000Y-98400000D01*
X154600000Y-126500000D02*
X157600000Y-126500000D01*
X154600000Y-98400000D02*
X154600000Y-100700000D01*
X183600000Y-72600000D02*
X154600000Y-72600000D01*
X154600000Y-85500000D02*
X154600000Y-87800000D01*
X154600000Y-100700000D02*
X157600000Y-100700000D01*
X157600000Y-108800000D02*
X154600000Y-108800000D01*
X183600000Y-111100000D02*
X183600000Y-98400000D01*
X154600000Y-87800000D02*
X157600000Y-87800000D01*
X157600000Y-100700000D02*
X157600000Y-108800000D01*
X154600000Y-111300000D02*
X154600000Y-113600000D01*
X154600000Y-59700000D02*
X154600000Y-62000000D01*
X125500000Y-85500000D02*
X125500000Y-87800000D01*
X125500000Y-100700000D02*
X128500000Y-100700000D01*
X125500000Y-74900000D02*
X128500000Y-74900000D01*
X128500000Y-108800000D02*
X125500000Y-108800000D01*
X154500000Y-111100000D02*
X154500000Y-98400000D01*
X128500000Y-95900000D02*
X125500000Y-95900000D01*
X154500000Y-98200000D02*
X154500000Y-85500000D01*
X125500000Y-98400000D02*
X125500000Y-100700000D01*
X128500000Y-74900000D02*
X128500000Y-83000000D01*
X125500000Y-83000000D02*
X125500000Y-85300000D01*
X128500000Y-83000000D02*
X125500000Y-83000000D01*
X128500000Y-100700000D02*
X128500000Y-108800000D01*
X154500000Y-85300000D02*
X154500000Y-72600000D01*
X154500000Y-85500000D02*
X125500000Y-85500000D01*
X125500000Y-98200000D02*
X154500000Y-98200000D01*
X154500000Y-72600000D02*
X125500000Y-72600000D01*
X125500000Y-108800000D02*
X125500000Y-111100000D01*
X125500000Y-111100000D02*
X154500000Y-111100000D01*
X154500000Y-98400000D02*
X125500000Y-98400000D01*
X128500000Y-87800000D02*
X128500000Y-95900000D01*
X125500000Y-85300000D02*
X154500000Y-85300000D01*
X125500000Y-95900000D02*
X125500000Y-98200000D01*
X125500000Y-87800000D02*
X128500000Y-87800000D01*
X125500000Y-72600000D02*
X125500000Y-74900000D01*
X125500000Y-62000000D02*
X128500000Y-62000000D01*
X128500000Y-70100000D02*
X125500000Y-70100000D01*
X154500000Y-72400000D02*
X154500000Y-59700000D01*
X125500000Y-59700000D02*
X125500000Y-62000000D01*
X128500000Y-62000000D02*
X128500000Y-70100000D01*
X125500000Y-70100000D02*
X125500000Y-72400000D01*
X125500000Y-72400000D02*
X154500000Y-72400000D01*
X154500000Y-59700000D02*
X125500000Y-59700000D01*
X125500000Y-111300000D02*
X125500000Y-113600000D01*
X128500000Y-121700000D02*
X125500000Y-121700000D01*
X154500000Y-124000000D02*
X154500000Y-111300000D01*
X154500000Y-111300000D02*
X125500000Y-111300000D01*
X125500000Y-124000000D02*
X154500000Y-124000000D01*
X128500000Y-113600000D02*
X128500000Y-121700000D01*
X125500000Y-121700000D02*
X125500000Y-124000000D01*
X125500000Y-113600000D02*
X128500000Y-113600000D01*
X125500000Y-126500000D02*
X128500000Y-126500000D01*
X128500000Y-134600000D02*
X125500000Y-134600000D01*
X154500000Y-136900000D02*
X154500000Y-124200000D01*
X125500000Y-124200000D02*
X125500000Y-126500000D01*
X128500000Y-126500000D02*
X128500000Y-134600000D01*
X125500000Y-134600000D02*
X125500000Y-136900000D01*
X125500000Y-136900000D02*
X154500000Y-136900000D01*
X154500000Y-124200000D02*
X125500000Y-124200000D01*
X125500000Y-147500000D02*
X125500000Y-149800000D01*
X128500000Y-147500000D02*
X125500000Y-147500000D01*
X128500000Y-139400000D02*
X128500000Y-147500000D01*
X125500000Y-139400000D02*
X128500000Y-139400000D01*
X125500000Y-137100000D02*
X125500000Y-139400000D01*
X154500000Y-137100000D02*
X125500000Y-137100000D01*
X154500000Y-149800000D02*
X154500000Y-137100000D01*
X125500000Y-149800000D02*
X154500000Y-149800000D01*
M02*
