M48
;DRILL file {KiCad 5.0.1} date Sun 24 Mar 2019 10:57:56 PM CDT
;FORMAT={-:-/ absolute / inch / decimal}
FMAT,2
INCH,TZ
T1C0.0394
%
G90
G05
M72
T1
X6.1457Y-3.8189
X5.0039Y-4.8346
X7.1102Y-4.0315
X7.1102Y-4.2126
X7.2874Y-4.937
X5.0039Y-3.8189
X8.252Y-4.5394
X8.252Y-4.7205
X6.1457Y-4.4291
X6.1457Y-3.9213
X7.2874Y-5.8504
X7.2874Y-3.9213
X8.252Y-4.0315
X8.252Y-4.2126
X8.252Y-2.5079
X8.252Y-2.689
X6.1457Y-2.3976
X7.1102Y-4.5394
X7.1102Y-4.7205
X5.0039Y-4.4291
X5.0039Y-4.937
X5.0039Y-5.8504
X5.0039Y-4.3268
X6.1457Y-5.4449
X7.2874Y-5.4449
X7.1102Y-5.0472
X7.1102Y-5.2283
X5.9685Y-4.5394
X5.9685Y-4.7205
X6.1457Y-4.8346
X5.0039Y-3.9213
X6.1457Y-2.8031
X5.9685Y-3.0157
X5.9685Y-3.1969
X5.0039Y-2.3976
X7.2874Y-3.311
X7.2874Y-4.4291
X7.2874Y-5.3425
X7.1102Y-2.5079
X7.1102Y-2.689
X8.252Y-5.0472
X8.252Y-5.2283
X7.1102Y-5.5551
X7.1102Y-5.7362
X7.2874Y-3.4134
X8.252Y-3.0157
X8.252Y-3.1969
X7.2874Y-3.8189
X6.1457Y-4.937
X5.9685Y-3.5236
X5.9685Y-3.7047
X8.252Y-3.5236
X8.252Y-3.7047
X7.2874Y-2.3976
X7.1102Y-3.5236
X7.1102Y-3.7047
X6.1457Y-3.311
X7.2874Y-4.3268
X7.1102Y-3.0157
X7.1102Y-3.1969
X5.0039Y-2.9055
X6.1457Y-3.4134
X5.9685Y-4.0315
X5.9685Y-4.2126
X5.0039Y-5.3425
X5.0039Y-3.4134
X6.1457Y-5.8504
X6.1457Y-4.3268
X7.2874Y-2.9055
X5.9685Y-2.5079
X5.9685Y-2.689
X6.1457Y-2.9055
X6.1457Y-5.3425
X5.0039Y-3.311
X7.2874Y-4.8346
X5.0039Y-2.8031
X5.9685Y-5.5551
X5.9685Y-5.7362
X7.2874Y-2.8031
X8.252Y-5.5551
X8.252Y-5.7362
X5.9685Y-5.0472
X5.9685Y-5.2283
X5.0039Y-5.4449
T0
M30
