M48
;DRILL file {KiCad 5.0.1} date Sun 24 Mar 2019 10:57:56 PM CDT
;FORMAT={-:-/ absolute / inch / decimal}
FMAT,2
INCH,TZ
T1C0.0157
T2C0.0354
T3C0.0394
%
G90
G05
M72
T1
X5.2008Y-2.4724
X5.2008Y-2.9803
X5.2008Y-3.4882
X5.2008Y-3.9961
X5.2008Y-4.5039
X5.2008Y-5.0118
X5.2008Y-5.5197
X5.3189Y-2.7047
X5.3189Y-3.2126
X5.3189Y-3.7205
X5.3189Y-4.2283
X5.3189Y-4.7362
X5.3189Y-5.2441
X5.3189Y-5.752
X5.378Y-2.7047
X5.378Y-3.2126
X5.378Y-3.7205
X5.378Y-4.2283
X5.378Y-4.7362
X5.378Y-5.2441
X5.378Y-5.752
X5.4291Y-2.3898
X5.4291Y-2.8976
X5.4291Y-3.4055
X5.4291Y-3.9134
X5.4291Y-4.4213
X5.4291Y-4.9291
X5.4291Y-5.437
X5.5748Y-2.4764
X5.5748Y-2.9843
X5.5748Y-3.4921
X5.5748Y-4.
X5.5748Y-4.5079
X5.5748Y-5.0157
X5.5748Y-5.5236
X5.6417Y-2.3976
X5.6417Y-2.9055
X5.6417Y-3.4134
X5.6417Y-3.9213
X5.6417Y-4.4291
X5.6417Y-4.937
X5.6417Y-5.4449
X5.6457Y-2.685
X5.6457Y-3.1929
X5.6457Y-3.7008
X5.6457Y-4.2087
X5.6457Y-4.7165
X5.6457Y-5.2244
X5.6457Y-5.7323
X5.6535Y-2.4892
X5.6535Y-2.997
X5.6535Y-3.5049
X5.6535Y-4.0128
X5.6535Y-4.5207
X5.6535Y-5.0285
X5.6535Y-5.5364
X5.8071Y-2.6339
X5.8071Y-3.1417
X5.8071Y-3.6496
X5.8071Y-4.1575
X5.8071Y-4.6654
X5.8071Y-5.1732
X5.8071Y-5.6811
X6.3425Y-2.4724
X6.3425Y-2.9803
X6.3425Y-3.4882
X6.3425Y-3.9961
X6.3425Y-4.5039
X6.3425Y-5.0118
X6.3425Y-5.5197
X6.4606Y-2.7047
X6.4606Y-3.2126
X6.4606Y-3.7205
X6.4606Y-4.2283
X6.4606Y-4.7362
X6.4606Y-5.2441
X6.4606Y-5.752
X6.5197Y-2.7047
X6.5197Y-3.2126
X6.5197Y-3.7205
X6.5197Y-4.2283
X6.5197Y-4.7362
X6.5197Y-5.2441
X6.5197Y-5.752
X6.5709Y-2.3898
X6.5709Y-2.8976
X6.5709Y-3.4055
X6.5709Y-3.9134
X6.5709Y-4.4213
X6.5709Y-4.9291
X6.5709Y-5.437
X6.7165Y-2.4764
X6.7165Y-2.9843
X6.7165Y-3.4921
X6.7165Y-4.
X6.7165Y-4.5079
X6.7165Y-5.0157
X6.7165Y-5.5236
X6.7835Y-2.3976
X6.7835Y-2.9055
X6.7835Y-3.4134
X6.7835Y-3.9213
X6.7835Y-4.4291
X6.7835Y-4.937
X6.7835Y-5.4449
X6.7874Y-2.685
X6.7874Y-3.1929
X6.7874Y-3.7008
X6.7874Y-4.2087
X6.7874Y-4.7165
X6.7874Y-5.2244
X6.7874Y-5.7323
X6.7953Y-2.4892
X6.7953Y-2.997
X6.7953Y-3.5049
X6.7953Y-4.0128
X6.7953Y-4.5207
X6.7953Y-5.0285
X6.7953Y-5.5364
X6.9488Y-2.6339
X6.9488Y-3.1417
X6.9488Y-3.6496
X6.9488Y-4.1575
X6.9488Y-4.6654
X6.9488Y-5.1732
X6.9488Y-5.6811
X7.4843Y-2.4724
X7.4843Y-2.9803
X7.4843Y-3.4882
X7.4843Y-3.9961
X7.4843Y-4.5039
X7.4843Y-5.0118
X7.4843Y-5.5197
X7.6024Y-2.7047
X7.6024Y-3.2126
X7.6024Y-3.7205
X7.6024Y-4.2283
X7.6024Y-4.7362
X7.6024Y-5.2441
X7.6024Y-5.752
X7.6614Y-2.7047
X7.6614Y-3.2126
X7.6614Y-3.7205
X7.6614Y-4.2283
X7.6614Y-4.7362
X7.6614Y-5.2441
X7.6614Y-5.752
X7.7126Y-2.3898
X7.7126Y-2.8976
X7.7126Y-3.4055
X7.7126Y-3.9134
X7.7126Y-4.4213
X7.7126Y-4.9291
X7.7126Y-5.437
X7.8583Y-2.4764
X7.8583Y-2.9843
X7.8583Y-3.4921
X7.8583Y-4.
X7.8583Y-4.5079
X7.8583Y-5.0157
X7.8583Y-5.5236
X7.9252Y-2.3976
X7.9252Y-2.9055
X7.9252Y-3.4134
X7.9252Y-3.9213
X7.9252Y-4.4291
X7.9252Y-4.937
X7.9252Y-5.4449
X7.9291Y-2.685
X7.9291Y-3.1929
X7.9291Y-3.7008
X7.9291Y-4.2087
X7.9291Y-4.7165
X7.9291Y-5.2244
X7.9291Y-5.7323
X7.937Y-2.4892
X7.937Y-2.997
X7.937Y-3.5049
X7.937Y-4.0128
X7.937Y-4.5207
X7.937Y-5.0285
X7.937Y-5.5364
X8.0906Y-2.6339
X8.0906Y-3.1417
X8.0906Y-3.6496
X8.0906Y-4.1575
X8.0906Y-4.6654
X8.0906Y-5.1732
X8.0906Y-5.6811
T3
X5.3559Y-5.3307
X5.4559Y-5.3307
X5.5559Y-5.3307
X5.6559Y-5.3307
X5.7559Y-5.3307
X6.4976Y-2.7913
X6.5976Y-2.7913
X6.6976Y-2.7913
X6.7976Y-2.7913
X6.8976Y-2.7913
X7.6394Y-3.8071
X7.7394Y-3.8071
X7.8394Y-3.8071
X7.9394Y-3.8071
X8.0394Y-3.8071
X7.5497Y-2.6171
X7.5839Y-2.5231
X7.6181Y-2.4291
X6.408Y-5.6643
X6.4422Y-5.5703
X6.4764Y-5.4764
X5.2662Y-5.6643
X5.3004Y-5.5703
X5.3346Y-5.4764
X7.6394Y-5.3307
X7.7394Y-5.3307
X7.8394Y-5.3307
X7.9394Y-5.3307
X8.0394Y-5.3307
X7.6394Y-5.8386
X7.7394Y-5.8386
X7.8394Y-5.8386
X7.9394Y-5.8386
X8.0394Y-5.8386
X5.3559Y-2.7913
X5.4559Y-2.7913
X5.5559Y-2.7913
X5.6559Y-2.7913
X5.7559Y-2.7913
X5.3559Y-3.2992
X5.4559Y-3.2992
X5.5559Y-3.2992
X5.6559Y-3.2992
X5.7559Y-3.2992
X5.2662Y-3.6328
X5.3004Y-3.5389
X5.3346Y-3.4449
X7.6394Y-2.7913
X7.7394Y-2.7913
X7.8394Y-2.7913
X7.9394Y-2.7913
X8.0394Y-2.7913
X7.5497Y-5.6643
X7.5839Y-5.5703
X7.6181Y-5.4764
X7.6394Y-4.8228
X7.7394Y-4.8228
X7.8394Y-4.8228
X7.9394Y-4.8228
X8.0394Y-4.8228
X5.2662Y-5.1564
X5.3004Y-5.0625
X5.3346Y-4.9685
X5.2662Y-2.6171
X5.3004Y-2.5231
X5.3346Y-2.4291
X5.2662Y-4.6486
X5.3004Y-4.5546
X5.3346Y-4.4606
X5.3559Y-5.8386
X5.4559Y-5.8386
X5.5559Y-5.8386
X5.6559Y-5.8386
X5.7559Y-5.8386
X5.2662Y-3.1249
X5.3004Y-3.031
X5.3346Y-2.937
X7.5497Y-4.1407
X7.5839Y-4.0467
X7.6181Y-3.9528
X7.6394Y-4.315
X7.7394Y-4.315
X7.8394Y-4.315
X7.9394Y-4.315
X8.0394Y-4.315
X7.5497Y-3.1249
X7.5839Y-3.031
X7.6181Y-2.937
X6.4976Y-3.8071
X6.5976Y-3.8071
X6.6976Y-3.8071
X6.7976Y-3.8071
X6.8976Y-3.8071
X7.5497Y-4.6486
X7.5839Y-4.5546
X7.6181Y-4.4606
X6.408Y-4.6486
X6.4422Y-4.5546
X6.4764Y-4.4606
X6.4976Y-4.315
X6.5976Y-4.315
X6.6976Y-4.315
X6.7976Y-4.315
X6.8976Y-4.315
X6.408Y-5.1564
X6.4422Y-5.0625
X6.4764Y-4.9685
X6.408Y-3.1249
X6.4422Y-3.031
X6.4764Y-2.937
X6.4976Y-3.2992
X6.5976Y-3.2992
X6.6976Y-3.2992
X6.7976Y-3.2992
X6.8976Y-3.2992
X6.4976Y-5.8386
X6.5976Y-5.8386
X6.6976Y-5.8386
X6.7976Y-5.8386
X6.8976Y-5.8386
X6.408Y-2.6171
X6.4422Y-2.5231
X6.4764Y-2.4291
X5.3559Y-3.8071
X5.4559Y-3.8071
X5.5559Y-3.8071
X5.6559Y-3.8071
X5.7559Y-3.8071
X7.5497Y-5.1564
X7.5839Y-5.0625
X7.6181Y-4.9685
X6.408Y-3.6328
X6.4422Y-3.5389
X6.4764Y-3.4449
X5.3559Y-4.315
X5.4559Y-4.315
X5.5559Y-4.315
X5.6559Y-4.315
X5.7559Y-4.315
X7.5497Y-3.6328
X7.5839Y-3.5389
X7.6181Y-3.4449
X7.6394Y-3.2992
X7.7394Y-3.2992
X7.8394Y-3.2992
X7.9394Y-3.2992
X8.0394Y-3.2992
X5.3559Y-4.8228
X5.4559Y-4.8228
X5.5559Y-4.8228
X5.6559Y-4.8228
X5.7559Y-4.8228
X5.2662Y-4.1407
X5.3004Y-4.0467
X5.3346Y-3.9528
X6.4976Y-4.8228
X6.5976Y-4.8228
X6.6976Y-4.8228
X6.7976Y-4.8228
X6.8976Y-4.8228
X6.4976Y-5.3307
X6.5976Y-5.3307
X6.6976Y-5.3307
X6.7976Y-5.3307
X6.8976Y-5.3307
X6.408Y-4.1407
X6.4422Y-4.0467
X6.4764Y-3.9528
T2
X5.9921Y-2.374G85X5.9449Y-2.374
G05
X5.9921Y-2.8228G85X5.9449Y-2.8228
G05
X5.9921Y-5.4213G85X5.9449Y-5.4213
G05
X5.9921Y-5.8701G85X5.9449Y-5.8701
G05
X8.2756Y-5.4213G85X8.2283Y-5.4213
G05
X8.2756Y-5.8701G85X8.2283Y-5.8701
G05
X5.9921Y-4.9134G85X5.9449Y-4.9134
G05
X5.9921Y-5.3622G85X5.9449Y-5.3622
G05
X7.1339Y-3.8976G85X7.0866Y-3.8976
G05
X7.1339Y-4.3465G85X7.0866Y-4.3465
G05
X8.2756Y-4.4055G85X8.2283Y-4.4055
G05
X8.2756Y-4.8543G85X8.2283Y-4.8543
G05
X8.2756Y-3.8976G85X8.2283Y-3.8976
G05
X8.2756Y-4.3465G85X8.2283Y-4.3465
G05
X8.2756Y-2.374G85X8.2283Y-2.374
G05
X8.2756Y-2.8228G85X8.2283Y-2.8228
G05
X7.1339Y-4.4055G85X7.0866Y-4.4055
G05
X7.1339Y-4.8543G85X7.0866Y-4.8543
G05
X7.1339Y-4.9134G85X7.0866Y-4.9134
G05
X7.1339Y-5.3622G85X7.0866Y-5.3622
G05
X5.9921Y-4.4055G85X5.9449Y-4.4055
G05
X5.9921Y-4.8543G85X5.9449Y-4.8543
G05
X5.9921Y-2.8819G85X5.9449Y-2.8819
G05
X5.9921Y-3.3307G85X5.9449Y-3.3307
G05
X7.1339Y-2.374G85X7.0866Y-2.374
G05
X7.1339Y-2.8228G85X7.0866Y-2.8228
G05
X8.2756Y-4.9134G85X8.2283Y-4.9134
G05
X8.2756Y-5.3622G85X8.2283Y-5.3622
G05
X7.1339Y-5.4213G85X7.0866Y-5.4213
G05
X7.1339Y-5.8701G85X7.0866Y-5.8701
G05
X8.2756Y-2.8819G85X8.2283Y-2.8819
G05
X8.2756Y-3.3307G85X8.2283Y-3.3307
G05
X5.9921Y-3.3898G85X5.9449Y-3.3898
G05
X5.9921Y-3.8386G85X5.9449Y-3.8386
G05
X8.2756Y-3.3898G85X8.2283Y-3.3898
G05
X8.2756Y-3.8386G85X8.2283Y-3.8386
G05
X7.1339Y-3.3898G85X7.0866Y-3.3898
G05
X7.1339Y-3.8386G85X7.0866Y-3.8386
G05
X7.1339Y-2.8819G85X7.0866Y-2.8819
G05
X7.1339Y-3.3307G85X7.0866Y-3.3307
G05
X5.9921Y-3.8976G85X5.9449Y-3.8976
G05
X5.9921Y-4.3465G85X5.9449Y-4.3465
G05
T0
M30
