M48
;DRILL file {KiCad 5.0.1} date Wed 06 Mar 2019 11:12:22 PM CST
;FORMAT={-:-/ absolute / inch / decimal}
FMAT,2
INCH,TZ
T1C0.0157
T2C0.0354
T3C0.0394
%
G90
G05
M72
T1
X5.2008Y-2.4724
X5.2008Y-2.9803
X5.2008Y-3.4882
X5.2008Y-3.9961
X5.2008Y-4.5039
X5.2008Y-5.0118
X5.2008Y-5.5197
X5.4291Y-2.3898
X5.4291Y-2.8976
X5.4291Y-3.4055
X5.4291Y-3.9134
X5.4291Y-4.4213
X5.4291Y-4.9291
X5.4291Y-5.437
X5.5748Y-2.4764
X5.5748Y-2.9843
X5.5748Y-3.4921
X5.5748Y-4.
X5.5748Y-4.5079
X5.5748Y-5.0157
X5.5748Y-5.5236
X5.6417Y-2.3976
X5.6417Y-2.9055
X5.6417Y-3.4134
X5.6417Y-3.9213
X5.6417Y-4.4291
X5.6417Y-4.937
X5.6417Y-5.4449
X5.6457Y-2.685
X5.6457Y-3.1929
X5.6457Y-3.7008
X5.6457Y-4.2087
X5.6457Y-4.7165
X5.6457Y-5.2244
X5.6457Y-5.7323
X5.6535Y-2.4892
X5.6535Y-2.997
X5.6535Y-3.5049
X5.6535Y-4.0128
X5.6535Y-4.5207
X5.6535Y-5.0285
X5.6535Y-5.5364
X5.811Y-2.5551
X5.811Y-2.6339
X5.811Y-3.063
X5.811Y-3.1417
X5.811Y-3.5709
X5.811Y-3.6496
X5.811Y-4.0787
X5.811Y-4.1575
X5.811Y-4.5866
X5.811Y-4.6654
X5.811Y-5.0945
X5.811Y-5.1732
X5.811Y-5.6024
X5.811Y-5.6811
X5.8228Y-2.7244
X5.8228Y-3.2323
X5.8228Y-3.7402
X5.8228Y-4.248
X5.8228Y-4.7559
X5.8228Y-5.2638
X5.8228Y-5.7717
X5.8268Y-2.437
X5.8268Y-2.9449
X5.8268Y-3.4528
X5.8268Y-3.9606
X5.8268Y-4.4685
X5.8268Y-4.9764
X5.8268Y-5.4843
X6.3465Y-2.4724
X6.3465Y-2.9803
X6.3465Y-3.4882
X6.3465Y-3.9961
X6.3465Y-4.5039
X6.3465Y-5.0118
X6.3465Y-5.5197
X6.5748Y-2.3898
X6.5748Y-2.8976
X6.5748Y-3.4055
X6.5748Y-3.9134
X6.5748Y-4.4213
X6.5748Y-4.9291
X6.5748Y-5.437
X6.7205Y-2.4764
X6.7205Y-2.9843
X6.7205Y-3.4921
X6.7205Y-4.
X6.7205Y-4.5079
X6.7205Y-5.0157
X6.7205Y-5.5236
X6.7874Y-2.3976
X6.7874Y-2.9055
X6.7874Y-3.4134
X6.7874Y-3.9213
X6.7874Y-4.4291
X6.7874Y-4.937
X6.7874Y-5.4449
X6.7913Y-2.685
X6.7913Y-3.1929
X6.7913Y-3.7008
X6.7913Y-4.2087
X6.7913Y-4.7165
X6.7913Y-5.2244
X6.7913Y-5.7323
X6.7992Y-2.4892
X6.7992Y-2.997
X6.7992Y-3.5049
X6.7992Y-4.0128
X6.7992Y-4.5207
X6.7992Y-5.0285
X6.7992Y-5.5364
X6.9567Y-2.5551
X6.9567Y-2.6339
X6.9567Y-3.063
X6.9567Y-3.1417
X6.9567Y-3.5709
X6.9567Y-3.6496
X6.9567Y-4.0787
X6.9567Y-4.1575
X6.9567Y-4.5866
X6.9567Y-4.6654
X6.9567Y-5.0945
X6.9567Y-5.1732
X6.9567Y-5.6024
X6.9567Y-5.6811
X6.9685Y-2.7244
X6.9685Y-3.2323
X6.9685Y-3.7402
X6.9685Y-4.248
X6.9685Y-4.7559
X6.9685Y-5.2638
X6.9685Y-5.7717
X6.9724Y-2.437
X6.9724Y-2.9449
X6.9724Y-3.4528
X6.9724Y-3.9606
X6.9724Y-4.4685
X6.9724Y-4.9764
X6.9724Y-5.4843
X7.4961Y-2.4724
X7.4961Y-2.9803
X7.4961Y-3.4882
X7.4961Y-3.9961
X7.4961Y-4.5039
X7.4961Y-5.0118
X7.4961Y-5.5197
X7.7244Y-2.3898
X7.7244Y-2.8976
X7.7244Y-3.4055
X7.7244Y-3.9134
X7.7244Y-4.4213
X7.7244Y-4.9291
X7.7244Y-5.437
X7.8701Y-2.4764
X7.8701Y-2.9843
X7.8701Y-3.4921
X7.8701Y-4.
X7.8701Y-4.5079
X7.8701Y-5.0157
X7.8701Y-5.5236
X7.937Y-2.3976
X7.937Y-2.9055
X7.937Y-3.4134
X7.937Y-3.9213
X7.937Y-4.4291
X7.937Y-4.937
X7.937Y-5.4449
X7.9409Y-2.685
X7.9409Y-3.1929
X7.9409Y-3.7008
X7.9409Y-4.2087
X7.9409Y-4.7165
X7.9409Y-5.2244
X7.9409Y-5.7323
X7.9488Y-2.4892
X7.9488Y-2.997
X7.9488Y-3.5049
X7.9488Y-4.0128
X7.9488Y-4.5207
X7.9488Y-5.0285
X7.9488Y-5.5364
X8.1063Y-2.5551
X8.1063Y-2.6339
X8.1063Y-3.063
X8.1063Y-3.1417
X8.1063Y-3.5709
X8.1063Y-3.6496
X8.1063Y-4.0787
X8.1063Y-4.1575
X8.1063Y-4.5866
X8.1063Y-4.6654
X8.1063Y-5.0945
X8.1063Y-5.1732
X8.1063Y-5.6024
X8.1063Y-5.6811
X8.1181Y-2.7244
X8.1181Y-3.2323
X8.1181Y-3.7402
X8.1181Y-4.248
X8.1181Y-4.7559
X8.1181Y-5.2638
X8.1181Y-5.7717
X8.122Y-2.437
X8.122Y-2.9449
X8.122Y-3.4528
X8.122Y-3.9606
X8.122Y-4.4685
X8.122Y-4.9764
X8.122Y-5.4843
T3
X7.5261Y-3.7273
X7.5603Y-3.6333
X7.5945Y-3.5394
X7.6287Y-3.4454
X6.5016Y-3.8071
X6.6016Y-3.8071
X6.7016Y-3.8071
X6.8016Y-3.8071
X6.9016Y-3.8071
X7.6512Y-4.315
X7.7512Y-4.315
X7.8512Y-4.315
X7.9512Y-4.315
X8.0512Y-4.315
X5.3559Y-2.7913
X5.4559Y-2.7913
X5.5559Y-2.7913
X5.6559Y-2.7913
X5.7559Y-2.7913
X6.5016Y-2.7913
X6.6016Y-2.7913
X6.7016Y-2.7913
X6.8016Y-2.7913
X6.9016Y-2.7913
X7.5261Y-5.2509
X7.5603Y-5.157
X7.5945Y-5.063
X7.6287Y-4.969
X5.2308Y-5.2509
X5.265Y-5.157
X5.2992Y-5.063
X5.3334Y-4.969
X7.6512Y-5.3307
X7.7512Y-5.3307
X7.8512Y-5.3307
X7.9512Y-5.3307
X8.0512Y-5.3307
X7.6512Y-2.7913
X7.7512Y-2.7913
X7.8512Y-2.7913
X7.9512Y-2.7913
X8.0512Y-2.7913
X6.3765Y-4.7431
X6.4107Y-4.6491
X6.4449Y-4.5551
X6.4791Y-4.4611
X6.5016Y-5.3307
X6.6016Y-5.3307
X6.7016Y-5.3307
X6.8016Y-5.3307
X6.9016Y-5.3307
X5.2308Y-4.2352
X5.265Y-4.1412
X5.2992Y-4.0472
X5.3334Y-3.9533
X5.3559Y-4.315
X5.4559Y-4.315
X5.5559Y-4.315
X5.6559Y-4.315
X5.7559Y-4.315
X5.3559Y-5.8386
X5.4559Y-5.8386
X5.5559Y-5.8386
X5.6559Y-5.8386
X5.7559Y-5.8386
X5.3559Y-4.8228
X5.4559Y-4.8228
X5.5559Y-4.8228
X5.6559Y-4.8228
X5.7559Y-4.8228
X5.3559Y-3.8071
X5.4559Y-3.8071
X5.5559Y-3.8071
X5.6559Y-3.8071
X5.7559Y-3.8071
X7.5261Y-2.7116
X7.5603Y-2.6176
X7.5945Y-2.5236
X7.6287Y-2.4297
X6.3765Y-3.7273
X6.4107Y-3.6333
X6.4449Y-3.5394
X6.4791Y-3.4454
X6.5016Y-3.2992
X6.6016Y-3.2992
X6.7016Y-3.2992
X6.8016Y-3.2992
X6.9016Y-3.2992
X7.6512Y-4.8228
X7.7512Y-4.8228
X7.8512Y-4.8228
X7.9512Y-4.8228
X8.0512Y-4.8228
X7.5261Y-5.7588
X7.5603Y-5.6648
X7.5945Y-5.5709
X7.6287Y-5.4769
X6.5016Y-4.315
X6.6016Y-4.315
X6.7016Y-4.315
X6.8016Y-4.315
X6.9016Y-4.315
X5.2308Y-3.7273
X5.265Y-3.6333
X5.2992Y-3.5394
X5.3334Y-3.4454
X6.5016Y-5.8386
X6.6016Y-5.8386
X6.7016Y-5.8386
X6.8016Y-5.8386
X6.9016Y-5.8386
X5.3559Y-5.3307
X5.4559Y-5.3307
X5.5559Y-5.3307
X5.6559Y-5.3307
X5.7559Y-5.3307
X7.5261Y-3.2194
X7.5603Y-3.1255
X7.5945Y-3.0315
X7.6287Y-2.9375
X6.3765Y-3.2194
X6.4107Y-3.1255
X6.4449Y-3.0315
X6.4791Y-2.9375
X5.2308Y-3.2194
X5.265Y-3.1255
X5.2992Y-3.0315
X5.3334Y-2.9375
X5.3559Y-3.2992
X5.4559Y-3.2992
X5.5559Y-3.2992
X5.6559Y-3.2992
X5.7559Y-3.2992
X7.5261Y-4.2352
X7.5603Y-4.1412
X7.5945Y-4.0472
X7.6287Y-3.9533
X6.3765Y-2.7116
X6.4107Y-2.6176
X6.4449Y-2.5236
X6.4791Y-2.4297
X5.2308Y-5.7588
X5.265Y-5.6648
X5.2992Y-5.5709
X5.3334Y-5.4769
X7.5261Y-4.7431
X7.5603Y-4.6491
X7.5945Y-4.5551
X7.6287Y-4.4611
X6.5016Y-4.8228
X6.6016Y-4.8228
X6.7016Y-4.8228
X6.8016Y-4.8228
X6.9016Y-4.8228
X7.6512Y-5.8386
X7.7512Y-5.8386
X7.8512Y-5.8386
X7.9512Y-5.8386
X8.0512Y-5.8386
X7.6512Y-3.8071
X7.7512Y-3.8071
X7.8512Y-3.8071
X7.9512Y-3.8071
X8.0512Y-3.8071
X7.6512Y-3.2992
X7.7512Y-3.2992
X7.8512Y-3.2992
X7.9512Y-3.2992
X8.0512Y-3.2992
X5.2308Y-4.7431
X5.265Y-4.6491
X5.2992Y-4.5551
X5.3334Y-4.4611
X6.3765Y-4.2352
X6.4107Y-4.1412
X6.4449Y-4.0472
X6.4791Y-3.9533
X6.3765Y-5.2509
X6.4107Y-5.157
X6.4449Y-5.063
X6.4791Y-4.969
X6.3765Y-5.7588
X6.4107Y-5.6648
X6.4449Y-5.5709
X6.4791Y-5.4769
X5.2308Y-2.7116
X5.265Y-2.6176
X5.2992Y-2.5236
X5.3334Y-2.4297
T2
X5.9449Y-3.8976G85X5.9921Y-3.8976
G05
X5.9449Y-4.3465G85X5.9921Y-4.3465
G05
X7.0906Y-3.8976G85X7.1378Y-3.8976
G05
X7.0906Y-4.3465G85X7.1378Y-4.3465
G05
X8.2402Y-5.4213G85X8.2874Y-5.4213
G05
X8.2402Y-5.8701G85X8.2874Y-5.8701
G05
X8.2402Y-2.8819G85X8.2874Y-2.8819
G05
X8.2402Y-3.3307G85X8.2874Y-3.3307
G05
X5.9449Y-5.4213G85X5.9921Y-5.4213
G05
X5.9449Y-5.8701G85X5.9921Y-5.8701
G05
X7.0906Y-2.374G85X7.1378Y-2.374
G05
X7.0906Y-2.8228G85X7.1378Y-2.8228
G05
X5.9449Y-2.8819G85X5.9921Y-2.8819
G05
X5.9449Y-3.3307G85X5.9921Y-3.3307
G05
X8.2402Y-3.3898G85X8.2874Y-3.3898
G05
X8.2402Y-3.8386G85X8.2874Y-3.8386
G05
X5.9449Y-3.3898G85X5.9921Y-3.3898
G05
X5.9449Y-3.8386G85X5.9921Y-3.8386
G05
X7.0906Y-4.9134G85X7.1378Y-4.9134
G05
X7.0906Y-5.3622G85X7.1378Y-5.3622
G05
X7.0906Y-5.4213G85X7.1378Y-5.4213
G05
X7.0906Y-5.8701G85X7.1378Y-5.8701
G05
X7.0906Y-3.3898G85X7.1378Y-3.3898
G05
X7.0906Y-3.8386G85X7.1378Y-3.8386
G05
X7.0906Y-2.8819G85X7.1378Y-2.8819
G05
X7.0906Y-3.3307G85X7.1378Y-3.3307
G05
X8.2402Y-2.374G85X8.2874Y-2.374
G05
X8.2402Y-2.8228G85X8.2874Y-2.8228
G05
X8.2402Y-4.9134G85X8.2874Y-4.9134
G05
X8.2402Y-5.3622G85X8.2874Y-5.3622
G05
X8.2402Y-3.8976G85X8.2874Y-3.8976
G05
X8.2402Y-4.3465G85X8.2874Y-4.3465
G05
X5.9449Y-4.9134G85X5.9921Y-4.9134
G05
X5.9449Y-5.3622G85X5.9921Y-5.3622
G05
X8.2402Y-4.4055G85X8.2874Y-4.4055
G05
X8.2402Y-4.8543G85X8.2874Y-4.8543
G05
X7.0906Y-4.4055G85X7.1378Y-4.4055
G05
X7.0906Y-4.8543G85X7.1378Y-4.8543
G05
X5.9449Y-4.4055G85X5.9921Y-4.4055
G05
X5.9449Y-4.8543G85X5.9921Y-4.8543
G05
X5.9449Y-2.374G85X5.9921Y-2.374
G05
X5.9449Y-2.8228G85X5.9921Y-2.8228
G05
T0
M30
