M48
;DRILL file {KiCad 5.0.1} date Wed 06 Mar 2019 11:12:22 PM CST
;FORMAT={-:-/ absolute / inch / decimal}
FMAT,2
INCH,TZ
T1C0.0394
%
G90
G05
M72
T1
X5.0039Y-2.8031
X6.1496Y-5.8504
X5.0039Y-5.3425
X7.2992Y-5.3425
X5.0039Y-3.8189
X7.1142Y-3.0157
X7.1142Y-3.1969
X8.2638Y-2.5079
X8.2638Y-2.689
X8.2638Y-5.0472
X8.2638Y-5.2283
X7.2992Y-4.937
X6.1496Y-3.4134
X5.0039Y-3.4134
X8.2638Y-4.0315
X8.2638Y-4.2126
X6.1496Y-4.4291
X5.0039Y-4.937
X7.2992Y-5.4449
X6.1496Y-2.3976
X7.2992Y-3.8189
X7.2992Y-4.3268
X6.1496Y-5.4449
X6.1496Y-4.8346
X6.1496Y-4.937
X6.1496Y-2.8031
X5.9685Y-5.0472
X5.9685Y-5.2283
X8.2638Y-4.5394
X8.2638Y-4.7205
X7.2992Y-3.4134
X5.0039Y-4.8346
X7.1142Y-4.5394
X7.1142Y-4.7205
X5.9685Y-4.5394
X5.9685Y-4.7205
X5.9685Y-2.5079
X5.9685Y-2.689
X7.2992Y-3.311
X7.2992Y-2.9055
X5.0039Y-3.311
X5.9685Y-4.0315
X5.9685Y-4.2126
X5.0039Y-5.4449
X7.1142Y-4.0315
X7.1142Y-4.2126
X7.2992Y-5.8504
X5.0039Y-4.4291
X8.2638Y-5.5551
X8.2638Y-5.7362
X6.1496Y-2.9055
X8.2638Y-3.0157
X8.2638Y-3.1969
X5.9685Y-5.5551
X5.9685Y-5.7362
X5.0039Y-5.8504
X6.1496Y-5.3425
X7.2992Y-2.3976
X7.2992Y-4.4291
X5.0039Y-2.3976
X7.1142Y-2.5079
X7.1142Y-2.689
X7.2992Y-3.9213
X6.1496Y-3.8189
X6.1496Y-4.3268
X6.1496Y-3.9213
X5.9685Y-3.0157
X5.9685Y-3.1969
X6.1496Y-3.311
X5.0039Y-2.9055
X8.2638Y-3.5236
X8.2638Y-3.7047
X5.9685Y-3.5236
X5.9685Y-3.7047
X5.0039Y-4.3268
X7.1142Y-5.0472
X7.1142Y-5.2283
X7.1142Y-5.5551
X7.1142Y-5.7362
X5.0039Y-3.9213
X7.1142Y-3.5236
X7.1142Y-3.7047
X7.2992Y-4.8346
X7.2992Y-2.8031
T0
M30
