G04 #@! TF.GenerationSoftware,KiCad,Pcbnew,5.0.1*
G04 #@! TF.CreationDate,2019-03-06T14:29:28-06:00*
G04 #@! TF.ProjectId,CH552Devboard,4348353532446576626F6172642E6B69,rev?*
G04 #@! TF.SameCoordinates,Original*
G04 #@! TF.FileFunction,Legend,Top*
G04 #@! TF.FilePolarity,Positive*
%FSLAX46Y46*%
G04 Gerber Fmt 4.6, Leading zero omitted, Abs format (unit mm)*
G04 Created by KiCad (PCBNEW 5.0.1) date Wed 06 Mar 2019 02:29:28 PM CST*
%MOMM*%
%LPD*%
G01*
G04 APERTURE LIST*
%ADD10C,0.200000*%
%ADD11C,0.300000*%
%ADD12C,0.175000*%
%ADD13C,0.120000*%
%ADD14C,0.150000*%
G04 APERTURE END LIST*
D10*
X159183333Y-120311904D02*
X159450000Y-121111904D01*
X159716666Y-120311904D01*
X160440476Y-121035714D02*
X160402380Y-121073809D01*
X160288095Y-121111904D01*
X160211904Y-121111904D01*
X160097619Y-121073809D01*
X160021428Y-120997619D01*
X159983333Y-120921428D01*
X159945238Y-120769047D01*
X159945238Y-120654761D01*
X159983333Y-120502380D01*
X160021428Y-120426190D01*
X160097619Y-120350000D01*
X160211904Y-120311904D01*
X160288095Y-120311904D01*
X160402380Y-120350000D01*
X160440476Y-120388095D01*
X161240476Y-121035714D02*
X161202380Y-121073809D01*
X161088095Y-121111904D01*
X161011904Y-121111904D01*
X160897619Y-121073809D01*
X160821428Y-120997619D01*
X160783333Y-120921428D01*
X160745238Y-120769047D01*
X160745238Y-120654761D01*
X160783333Y-120502380D01*
X160821428Y-120426190D01*
X160897619Y-120350000D01*
X161011904Y-120311904D01*
X161088095Y-120311904D01*
X161202380Y-120350000D01*
X161240476Y-120388095D01*
X159759523Y-117561904D02*
X160254761Y-117561904D01*
X159988095Y-117866666D01*
X160102380Y-117866666D01*
X160178571Y-117904761D01*
X160216666Y-117942857D01*
X160254761Y-118019047D01*
X160254761Y-118209523D01*
X160216666Y-118285714D01*
X160178571Y-118323809D01*
X160102380Y-118361904D01*
X159873809Y-118361904D01*
X159797619Y-118323809D01*
X159759523Y-118285714D01*
X160483333Y-117561904D02*
X160750000Y-118361904D01*
X161016666Y-117561904D01*
X161207142Y-117561904D02*
X161702380Y-117561904D01*
X161435714Y-117866666D01*
X161550000Y-117866666D01*
X161626190Y-117904761D01*
X161664285Y-117942857D01*
X161702380Y-118019047D01*
X161702380Y-118209523D01*
X161664285Y-118285714D01*
X161626190Y-118323809D01*
X161550000Y-118361904D01*
X161321428Y-118361904D01*
X161245238Y-118323809D01*
X161207142Y-118285714D01*
X159721428Y-115061904D02*
X159988095Y-115861904D01*
X160254761Y-115061904D01*
X160483333Y-115823809D02*
X160597619Y-115861904D01*
X160788095Y-115861904D01*
X160864285Y-115823809D01*
X160902380Y-115785714D01*
X160940476Y-115709523D01*
X160940476Y-115633333D01*
X160902380Y-115557142D01*
X160864285Y-115519047D01*
X160788095Y-115480952D01*
X160635714Y-115442857D01*
X160559523Y-115404761D01*
X160521428Y-115366666D01*
X160483333Y-115290476D01*
X160483333Y-115214285D01*
X160521428Y-115138095D01*
X160559523Y-115100000D01*
X160635714Y-115061904D01*
X160826190Y-115061904D01*
X160940476Y-115100000D01*
X161245238Y-115823809D02*
X161359523Y-115861904D01*
X161550000Y-115861904D01*
X161626190Y-115823809D01*
X161664285Y-115785714D01*
X161702380Y-115709523D01*
X161702380Y-115633333D01*
X161664285Y-115557142D01*
X161626190Y-115519047D01*
X161550000Y-115480952D01*
X161397619Y-115442857D01*
X161321428Y-115404761D01*
X161283333Y-115366666D01*
X161245238Y-115290476D01*
X161245238Y-115214285D01*
X161283333Y-115138095D01*
X161321428Y-115100000D01*
X161397619Y-115061904D01*
X161588095Y-115061904D01*
X161702380Y-115100000D01*
X160061904Y-113361904D02*
X159795238Y-112980952D01*
X159604761Y-113361904D02*
X159604761Y-112561904D01*
X159909523Y-112561904D01*
X159985714Y-112600000D01*
X160023809Y-112638095D01*
X160061904Y-112714285D01*
X160061904Y-112828571D01*
X160023809Y-112904761D01*
X159985714Y-112942857D01*
X159909523Y-112980952D01*
X159604761Y-112980952D01*
X160366666Y-113323809D02*
X160480952Y-113361904D01*
X160671428Y-113361904D01*
X160747619Y-113323809D01*
X160785714Y-113285714D01*
X160823809Y-113209523D01*
X160823809Y-113133333D01*
X160785714Y-113057142D01*
X160747619Y-113019047D01*
X160671428Y-112980952D01*
X160519047Y-112942857D01*
X160442857Y-112904761D01*
X160404761Y-112866666D01*
X160366666Y-112790476D01*
X160366666Y-112714285D01*
X160404761Y-112638095D01*
X160442857Y-112600000D01*
X160519047Y-112561904D01*
X160709523Y-112561904D01*
X160823809Y-112600000D01*
X161052380Y-112561904D02*
X161509523Y-112561904D01*
X161280952Y-113361904D02*
X161280952Y-112561904D01*
D11*
X160272619Y-103735714D02*
X160203571Y-103807142D01*
X159996428Y-103878571D01*
X159858333Y-103878571D01*
X159651190Y-103807142D01*
X159513095Y-103664285D01*
X159444047Y-103521428D01*
X159375000Y-103235714D01*
X159375000Y-103021428D01*
X159444047Y-102735714D01*
X159513095Y-102592857D01*
X159651190Y-102450000D01*
X159858333Y-102378571D01*
X159996428Y-102378571D01*
X160203571Y-102450000D01*
X160272619Y-102521428D01*
X160894047Y-103878571D02*
X160894047Y-102378571D01*
X160894047Y-103092857D02*
X161722619Y-103092857D01*
X161722619Y-103878571D02*
X161722619Y-102378571D01*
X163103571Y-102378571D02*
X162413095Y-102378571D01*
X162344047Y-103092857D01*
X162413095Y-103021428D01*
X162551190Y-102950000D01*
X162896428Y-102950000D01*
X163034523Y-103021428D01*
X163103571Y-103092857D01*
X163172619Y-103235714D01*
X163172619Y-103592857D01*
X163103571Y-103735714D01*
X163034523Y-103807142D01*
X162896428Y-103878571D01*
X162551190Y-103878571D01*
X162413095Y-103807142D01*
X162344047Y-103735714D01*
X164484523Y-102378571D02*
X163794047Y-102378571D01*
X163725000Y-103092857D01*
X163794047Y-103021428D01*
X163932142Y-102950000D01*
X164277380Y-102950000D01*
X164415476Y-103021428D01*
X164484523Y-103092857D01*
X164553571Y-103235714D01*
X164553571Y-103592857D01*
X164484523Y-103735714D01*
X164415476Y-103807142D01*
X164277380Y-103878571D01*
X163932142Y-103878571D01*
X163794047Y-103807142D01*
X163725000Y-103735714D01*
X165105952Y-102521428D02*
X165175000Y-102450000D01*
X165313095Y-102378571D01*
X165658333Y-102378571D01*
X165796428Y-102450000D01*
X165865476Y-102521428D01*
X165934523Y-102664285D01*
X165934523Y-102807142D01*
X165865476Y-103021428D01*
X165036904Y-103878571D01*
X165934523Y-103878571D01*
X167660714Y-103878571D02*
X167660714Y-102378571D01*
X168005952Y-102378571D01*
X168213095Y-102450000D01*
X168351190Y-102592857D01*
X168420238Y-102735714D01*
X168489285Y-103021428D01*
X168489285Y-103235714D01*
X168420238Y-103521428D01*
X168351190Y-103664285D01*
X168213095Y-103807142D01*
X168005952Y-103878571D01*
X167660714Y-103878571D01*
X169663095Y-103807142D02*
X169525000Y-103878571D01*
X169248809Y-103878571D01*
X169110714Y-103807142D01*
X169041666Y-103664285D01*
X169041666Y-103092857D01*
X169110714Y-102950000D01*
X169248809Y-102878571D01*
X169525000Y-102878571D01*
X169663095Y-102950000D01*
X169732142Y-103092857D01*
X169732142Y-103235714D01*
X169041666Y-103378571D01*
X170215476Y-102878571D02*
X170560714Y-103878571D01*
X170905952Y-102878571D01*
X173046428Y-103092857D02*
X173253571Y-103164285D01*
X173322619Y-103235714D01*
X173391666Y-103378571D01*
X173391666Y-103592857D01*
X173322619Y-103735714D01*
X173253571Y-103807142D01*
X173115476Y-103878571D01*
X172563095Y-103878571D01*
X172563095Y-102378571D01*
X173046428Y-102378571D01*
X173184523Y-102450000D01*
X173253571Y-102521428D01*
X173322619Y-102664285D01*
X173322619Y-102807142D01*
X173253571Y-102950000D01*
X173184523Y-103021428D01*
X173046428Y-103092857D01*
X172563095Y-103092857D01*
X174220238Y-103878571D02*
X174082142Y-103807142D01*
X174013095Y-103735714D01*
X173944047Y-103592857D01*
X173944047Y-103164285D01*
X174013095Y-103021428D01*
X174082142Y-102950000D01*
X174220238Y-102878571D01*
X174427380Y-102878571D01*
X174565476Y-102950000D01*
X174634523Y-103021428D01*
X174703571Y-103164285D01*
X174703571Y-103592857D01*
X174634523Y-103735714D01*
X174565476Y-103807142D01*
X174427380Y-103878571D01*
X174220238Y-103878571D01*
X175946428Y-103878571D02*
X175946428Y-103092857D01*
X175877380Y-102950000D01*
X175739285Y-102878571D01*
X175463095Y-102878571D01*
X175325000Y-102950000D01*
X175946428Y-103807142D02*
X175808333Y-103878571D01*
X175463095Y-103878571D01*
X175325000Y-103807142D01*
X175255952Y-103664285D01*
X175255952Y-103521428D01*
X175325000Y-103378571D01*
X175463095Y-103307142D01*
X175808333Y-103307142D01*
X175946428Y-103235714D01*
X176636904Y-103878571D02*
X176636904Y-102878571D01*
X176636904Y-103164285D02*
X176705952Y-103021428D01*
X176775000Y-102950000D01*
X176913095Y-102878571D01*
X177051190Y-102878571D01*
X178155952Y-103878571D02*
X178155952Y-102378571D01*
X178155952Y-103807142D02*
X178017857Y-103878571D01*
X177741666Y-103878571D01*
X177603571Y-103807142D01*
X177534523Y-103735714D01*
X177465476Y-103592857D01*
X177465476Y-103164285D01*
X177534523Y-103021428D01*
X177603571Y-102950000D01*
X177741666Y-102878571D01*
X178017857Y-102878571D01*
X178155952Y-102950000D01*
D12*
X177583333Y-101916666D02*
X177583333Y-101216666D01*
X177850000Y-101216666D01*
X177916666Y-101250000D01*
X177950000Y-101283333D01*
X177983333Y-101350000D01*
X177983333Y-101450000D01*
X177950000Y-101516666D01*
X177916666Y-101550000D01*
X177850000Y-101583333D01*
X177583333Y-101583333D01*
X178216666Y-101216666D02*
X178650000Y-101216666D01*
X178416666Y-101483333D01*
X178516666Y-101483333D01*
X178583333Y-101516666D01*
X178616666Y-101550000D01*
X178650000Y-101616666D01*
X178650000Y-101783333D01*
X178616666Y-101850000D01*
X178583333Y-101883333D01*
X178516666Y-101916666D01*
X178316666Y-101916666D01*
X178250000Y-101883333D01*
X178216666Y-101850000D01*
X178950000Y-101850000D02*
X178983333Y-101883333D01*
X178950000Y-101916666D01*
X178916666Y-101883333D01*
X178950000Y-101850000D01*
X178950000Y-101916666D01*
X179250000Y-101283333D02*
X179283333Y-101250000D01*
X179350000Y-101216666D01*
X179516666Y-101216666D01*
X179583333Y-101250000D01*
X179616666Y-101283333D01*
X179650000Y-101350000D01*
X179650000Y-101416666D01*
X179616666Y-101516666D01*
X179216666Y-101916666D01*
X179650000Y-101916666D01*
X174783333Y-101916666D02*
X174783333Y-101216666D01*
X175050000Y-101216666D01*
X175116666Y-101250000D01*
X175150000Y-101283333D01*
X175183333Y-101350000D01*
X175183333Y-101450000D01*
X175150000Y-101516666D01*
X175116666Y-101550000D01*
X175050000Y-101583333D01*
X174783333Y-101583333D01*
X175850000Y-101916666D02*
X175450000Y-101916666D01*
X175650000Y-101916666D02*
X175650000Y-101216666D01*
X175583333Y-101316666D01*
X175516666Y-101383333D01*
X175450000Y-101416666D01*
X176150000Y-101850000D02*
X176183333Y-101883333D01*
X176150000Y-101916666D01*
X176116666Y-101883333D01*
X176150000Y-101850000D01*
X176150000Y-101916666D01*
X176783333Y-101450000D02*
X176783333Y-101916666D01*
X176616666Y-101183333D02*
X176450000Y-101683333D01*
X176883333Y-101683333D01*
X172383333Y-101916666D02*
X172383333Y-101216666D01*
X172650000Y-101216666D01*
X172716666Y-101250000D01*
X172750000Y-101283333D01*
X172783333Y-101350000D01*
X172783333Y-101450000D01*
X172750000Y-101516666D01*
X172716666Y-101550000D01*
X172650000Y-101583333D01*
X172383333Y-101583333D01*
X173450000Y-101916666D02*
X173050000Y-101916666D01*
X173250000Y-101916666D02*
X173250000Y-101216666D01*
X173183333Y-101316666D01*
X173116666Y-101383333D01*
X173050000Y-101416666D01*
X173750000Y-101850000D02*
X173783333Y-101883333D01*
X173750000Y-101916666D01*
X173716666Y-101883333D01*
X173750000Y-101850000D01*
X173750000Y-101916666D01*
X174416666Y-101216666D02*
X174083333Y-101216666D01*
X174050000Y-101550000D01*
X174083333Y-101516666D01*
X174150000Y-101483333D01*
X174316666Y-101483333D01*
X174383333Y-101516666D01*
X174416666Y-101550000D01*
X174450000Y-101616666D01*
X174450000Y-101783333D01*
X174416666Y-101850000D01*
X174383333Y-101883333D01*
X174316666Y-101916666D01*
X174150000Y-101916666D01*
X174083333Y-101883333D01*
X174050000Y-101850000D01*
X169983333Y-101916666D02*
X169983333Y-101216666D01*
X170250000Y-101216666D01*
X170316666Y-101250000D01*
X170350000Y-101283333D01*
X170383333Y-101350000D01*
X170383333Y-101450000D01*
X170350000Y-101516666D01*
X170316666Y-101550000D01*
X170250000Y-101583333D01*
X169983333Y-101583333D01*
X171050000Y-101916666D02*
X170650000Y-101916666D01*
X170850000Y-101916666D02*
X170850000Y-101216666D01*
X170783333Y-101316666D01*
X170716666Y-101383333D01*
X170650000Y-101416666D01*
X171350000Y-101850000D02*
X171383333Y-101883333D01*
X171350000Y-101916666D01*
X171316666Y-101883333D01*
X171350000Y-101850000D01*
X171350000Y-101916666D01*
X171983333Y-101216666D02*
X171850000Y-101216666D01*
X171783333Y-101250000D01*
X171750000Y-101283333D01*
X171683333Y-101383333D01*
X171650000Y-101516666D01*
X171650000Y-101783333D01*
X171683333Y-101850000D01*
X171716666Y-101883333D01*
X171783333Y-101916666D01*
X171916666Y-101916666D01*
X171983333Y-101883333D01*
X172016666Y-101850000D01*
X172050000Y-101783333D01*
X172050000Y-101616666D01*
X172016666Y-101550000D01*
X171983333Y-101516666D01*
X171916666Y-101483333D01*
X171783333Y-101483333D01*
X171716666Y-101516666D01*
X171683333Y-101550000D01*
X171650000Y-101616666D01*
X167383333Y-101916666D02*
X167383333Y-101216666D01*
X167650000Y-101216666D01*
X167716666Y-101250000D01*
X167750000Y-101283333D01*
X167783333Y-101350000D01*
X167783333Y-101450000D01*
X167750000Y-101516666D01*
X167716666Y-101550000D01*
X167650000Y-101583333D01*
X167383333Y-101583333D01*
X168450000Y-101916666D02*
X168050000Y-101916666D01*
X168250000Y-101916666D02*
X168250000Y-101216666D01*
X168183333Y-101316666D01*
X168116666Y-101383333D01*
X168050000Y-101416666D01*
X168750000Y-101850000D02*
X168783333Y-101883333D01*
X168750000Y-101916666D01*
X168716666Y-101883333D01*
X168750000Y-101850000D01*
X168750000Y-101916666D01*
X169016666Y-101216666D02*
X169483333Y-101216666D01*
X169183333Y-101916666D01*
X164783333Y-101916666D02*
X164783333Y-101216666D01*
X165050000Y-101216666D01*
X165116666Y-101250000D01*
X165150000Y-101283333D01*
X165183333Y-101350000D01*
X165183333Y-101450000D01*
X165150000Y-101516666D01*
X165116666Y-101550000D01*
X165050000Y-101583333D01*
X164783333Y-101583333D01*
X165850000Y-101916666D02*
X165450000Y-101916666D01*
X165650000Y-101916666D02*
X165650000Y-101216666D01*
X165583333Y-101316666D01*
X165516666Y-101383333D01*
X165450000Y-101416666D01*
X166150000Y-101850000D02*
X166183333Y-101883333D01*
X166150000Y-101916666D01*
X166116666Y-101883333D01*
X166150000Y-101850000D01*
X166150000Y-101916666D01*
X166616666Y-101216666D02*
X166683333Y-101216666D01*
X166750000Y-101250000D01*
X166783333Y-101283333D01*
X166816666Y-101350000D01*
X166850000Y-101483333D01*
X166850000Y-101650000D01*
X166816666Y-101783333D01*
X166783333Y-101850000D01*
X166750000Y-101883333D01*
X166683333Y-101916666D01*
X166616666Y-101916666D01*
X166550000Y-101883333D01*
X166516666Y-101850000D01*
X166483333Y-101783333D01*
X166450000Y-101650000D01*
X166450000Y-101483333D01*
X166483333Y-101350000D01*
X166516666Y-101283333D01*
X166550000Y-101250000D01*
X166616666Y-101216666D01*
X162383333Y-101916666D02*
X162383333Y-101216666D01*
X162650000Y-101216666D01*
X162716666Y-101250000D01*
X162750000Y-101283333D01*
X162783333Y-101350000D01*
X162783333Y-101450000D01*
X162750000Y-101516666D01*
X162716666Y-101550000D01*
X162650000Y-101583333D01*
X162383333Y-101583333D01*
X163450000Y-101916666D02*
X163050000Y-101916666D01*
X163250000Y-101916666D02*
X163250000Y-101216666D01*
X163183333Y-101316666D01*
X163116666Y-101383333D01*
X163050000Y-101416666D01*
X163750000Y-101850000D02*
X163783333Y-101883333D01*
X163750000Y-101916666D01*
X163716666Y-101883333D01*
X163750000Y-101850000D01*
X163750000Y-101916666D01*
X164450000Y-101916666D02*
X164050000Y-101916666D01*
X164250000Y-101916666D02*
X164250000Y-101216666D01*
X164183333Y-101316666D01*
X164116666Y-101383333D01*
X164050000Y-101416666D01*
X159783333Y-101916666D02*
X159783333Y-101216666D01*
X160050000Y-101216666D01*
X160116666Y-101250000D01*
X160150000Y-101283333D01*
X160183333Y-101350000D01*
X160183333Y-101450000D01*
X160150000Y-101516666D01*
X160116666Y-101550000D01*
X160050000Y-101583333D01*
X159783333Y-101583333D01*
X160416666Y-101216666D02*
X160850000Y-101216666D01*
X160616666Y-101483333D01*
X160716666Y-101483333D01*
X160783333Y-101516666D01*
X160816666Y-101550000D01*
X160850000Y-101616666D01*
X160850000Y-101783333D01*
X160816666Y-101850000D01*
X160783333Y-101883333D01*
X160716666Y-101916666D01*
X160516666Y-101916666D01*
X160450000Y-101883333D01*
X160416666Y-101850000D01*
X161150000Y-101850000D02*
X161183333Y-101883333D01*
X161150000Y-101916666D01*
X161116666Y-101883333D01*
X161150000Y-101850000D01*
X161150000Y-101916666D01*
X161850000Y-101916666D02*
X161450000Y-101916666D01*
X161650000Y-101916666D02*
X161650000Y-101216666D01*
X161583333Y-101316666D01*
X161516666Y-101383333D01*
X161450000Y-101416666D01*
X156983333Y-101916666D02*
X156983333Y-101216666D01*
X157250000Y-101216666D01*
X157316666Y-101250000D01*
X157350000Y-101283333D01*
X157383333Y-101350000D01*
X157383333Y-101450000D01*
X157350000Y-101516666D01*
X157316666Y-101550000D01*
X157250000Y-101583333D01*
X156983333Y-101583333D01*
X157616666Y-101216666D02*
X158050000Y-101216666D01*
X157816666Y-101483333D01*
X157916666Y-101483333D01*
X157983333Y-101516666D01*
X158016666Y-101550000D01*
X158050000Y-101616666D01*
X158050000Y-101783333D01*
X158016666Y-101850000D01*
X157983333Y-101883333D01*
X157916666Y-101916666D01*
X157716666Y-101916666D01*
X157650000Y-101883333D01*
X157616666Y-101850000D01*
X158350000Y-101850000D02*
X158383333Y-101883333D01*
X158350000Y-101916666D01*
X158316666Y-101883333D01*
X158350000Y-101850000D01*
X158350000Y-101916666D01*
X158816666Y-101216666D02*
X158883333Y-101216666D01*
X158950000Y-101250000D01*
X158983333Y-101283333D01*
X159016666Y-101350000D01*
X159050000Y-101483333D01*
X159050000Y-101650000D01*
X159016666Y-101783333D01*
X158983333Y-101850000D01*
X158950000Y-101883333D01*
X158883333Y-101916666D01*
X158816666Y-101916666D01*
X158750000Y-101883333D01*
X158716666Y-101850000D01*
X158683333Y-101783333D01*
X158650000Y-101650000D01*
X158650000Y-101483333D01*
X158683333Y-101350000D01*
X158716666Y-101283333D01*
X158750000Y-101250000D01*
X158816666Y-101216666D01*
D13*
G04 #@! TO.C,C1*
X175900000Y-106150000D02*
X174900000Y-106150000D01*
X174900000Y-107850000D02*
X175900000Y-107850000D01*
G04 #@! TO.C,C2*
X175700000Y-112550000D02*
X174700000Y-112550000D01*
X174700000Y-114250000D02*
X175700000Y-114250000D01*
G04 #@! TO.C,D1*
X162300000Y-115900000D02*
X163700000Y-115900000D01*
X163700000Y-115900000D02*
X163700000Y-113100000D01*
X162300000Y-115900000D02*
X162300000Y-113100000D01*
G04 #@! TO.C,D2*
X163500000Y-104100000D02*
X163500000Y-106900000D01*
X162100000Y-104100000D02*
X162100000Y-106900000D01*
X163500000Y-104100000D02*
X162100000Y-104100000D01*
G04 #@! TO.C,J1*
X174290000Y-118760000D02*
X176510000Y-118760000D01*
X174290000Y-118760000D02*
X174290000Y-118695000D01*
X176510000Y-118760000D02*
X176510000Y-118695000D01*
X174290000Y-118760000D02*
X174836529Y-118760000D01*
X175963471Y-118760000D02*
X176510000Y-118760000D01*
X174290000Y-118000000D02*
X174290000Y-117240000D01*
X174290000Y-117240000D02*
X175400000Y-117240000D01*
G04 #@! TO.C,J2*
X170560000Y-116690000D02*
X170180000Y-116690000D01*
X170210000Y-121240000D02*
X170210000Y-121500000D01*
X170560000Y-116690000D02*
X170560000Y-118460000D01*
X162240000Y-116690000D02*
X162620000Y-116690000D01*
X162240000Y-118460000D02*
X162240000Y-116690000D01*
X162590000Y-121500000D02*
X162590000Y-121240000D01*
G04 #@! TO.C,J3*
X156870000Y-121930000D02*
X159530000Y-121930000D01*
X156870000Y-114250000D02*
X156870000Y-121930000D01*
X159530000Y-114250000D02*
X159530000Y-121930000D01*
X156870000Y-114250000D02*
X159530000Y-114250000D01*
X156870000Y-112980000D02*
X156870000Y-111650000D01*
X156870000Y-111650000D02*
X158200000Y-111650000D01*
G04 #@! TO.C,R1*
X174600000Y-109120000D02*
X175800000Y-109120000D01*
X175800000Y-110880000D02*
X174600000Y-110880000D01*
D14*
G04 #@! TO.C,SW3*
X179050000Y-118950000D02*
X179050000Y-111450000D01*
X181650000Y-118950000D02*
X181650000Y-111450000D01*
X179050000Y-111350000D02*
X181650000Y-111350000D01*
X181650000Y-111350000D02*
X181650000Y-111650000D01*
X179050000Y-111350000D02*
X179050000Y-111550000D01*
X179050000Y-118950000D02*
X181650000Y-118950000D01*
G04 #@! TO.C,U1*
X165075000Y-107225000D02*
X165075000Y-111675000D01*
X171975000Y-105700000D02*
X171975000Y-111675000D01*
G04 #@! TO.C,SW1 - Prog*
X172750000Y-120050000D02*
X180250000Y-120050000D01*
X172750000Y-122650000D02*
X180250000Y-122650000D01*
X180350000Y-120050000D02*
X180350000Y-122650000D01*
X180350000Y-122650000D02*
X180050000Y-122650000D01*
X180350000Y-120050000D02*
X180150000Y-120050000D01*
X172750000Y-120050000D02*
X172750000Y-122650000D01*
G04 #@! TO.C,SW2*
X158550000Y-102450000D02*
X155950000Y-102450000D01*
X158550000Y-110050000D02*
X158550000Y-109850000D01*
X155950000Y-110050000D02*
X155950000Y-109750000D01*
X158550000Y-110050000D02*
X155950000Y-110050000D01*
X155950000Y-102450000D02*
X155950000Y-109950000D01*
X158550000Y-102450000D02*
X158550000Y-109950000D01*
G04 #@! TO.C,SW4*
X179050000Y-110150000D02*
X179050000Y-102650000D01*
X181650000Y-110150000D02*
X181650000Y-102650000D01*
X179050000Y-102550000D02*
X181650000Y-102550000D01*
X181650000Y-102550000D02*
X181650000Y-102850000D01*
X179050000Y-102550000D02*
X179050000Y-102750000D01*
X179050000Y-110150000D02*
X181650000Y-110150000D01*
D13*
G04 #@! TO.C,J4*
X156890000Y-98670000D02*
X156890000Y-101330000D01*
X177270000Y-98670000D02*
X156890000Y-98670000D01*
X177270000Y-101330000D02*
X156890000Y-101330000D01*
X177270000Y-98670000D02*
X177270000Y-101330000D01*
X178540000Y-98670000D02*
X179870000Y-98670000D01*
X179870000Y-98670000D02*
X179870000Y-100000000D01*
G04 #@! TO.C,R2*
X163850000Y-112080000D02*
X162650000Y-112080000D01*
X162650000Y-110320000D02*
X163850000Y-110320000D01*
G04 #@! TO.C,R3*
X162650000Y-108320000D02*
X163850000Y-108320000D01*
X163850000Y-110080000D02*
X162650000Y-110080000D01*
G04 #@! TO.C,C1*
D14*
X175233333Y-105857142D02*
X175185714Y-105904761D01*
X175042857Y-105952380D01*
X174947619Y-105952380D01*
X174804761Y-105904761D01*
X174709523Y-105809523D01*
X174661904Y-105714285D01*
X174614285Y-105523809D01*
X174614285Y-105380952D01*
X174661904Y-105190476D01*
X174709523Y-105095238D01*
X174804761Y-105000000D01*
X174947619Y-104952380D01*
X175042857Y-104952380D01*
X175185714Y-105000000D01*
X175233333Y-105047619D01*
X176185714Y-105952380D02*
X175614285Y-105952380D01*
X175900000Y-105952380D02*
X175900000Y-104952380D01*
X175804761Y-105095238D01*
X175709523Y-105190476D01*
X175614285Y-105238095D01*
G04 #@! TO.C,C2*
X175033333Y-115257142D02*
X174985714Y-115304761D01*
X174842857Y-115352380D01*
X174747619Y-115352380D01*
X174604761Y-115304761D01*
X174509523Y-115209523D01*
X174461904Y-115114285D01*
X174414285Y-114923809D01*
X174414285Y-114780952D01*
X174461904Y-114590476D01*
X174509523Y-114495238D01*
X174604761Y-114400000D01*
X174747619Y-114352380D01*
X174842857Y-114352380D01*
X174985714Y-114400000D01*
X175033333Y-114447619D01*
X175414285Y-114447619D02*
X175461904Y-114400000D01*
X175557142Y-114352380D01*
X175795238Y-114352380D01*
X175890476Y-114400000D01*
X175938095Y-114447619D01*
X175985714Y-114542857D01*
X175985714Y-114638095D01*
X175938095Y-114780952D01*
X175366666Y-115352380D01*
X175985714Y-115352380D01*
G04 #@! TO.C,D1*
X165044380Y-114838095D02*
X164044380Y-114838095D01*
X164044380Y-114600000D01*
X164092000Y-114457142D01*
X164187238Y-114361904D01*
X164282476Y-114314285D01*
X164472952Y-114266666D01*
X164615809Y-114266666D01*
X164806285Y-114314285D01*
X164901523Y-114361904D01*
X164996761Y-114457142D01*
X165044380Y-114600000D01*
X165044380Y-114838095D01*
X165044380Y-113314285D02*
X165044380Y-113885714D01*
X165044380Y-113600000D02*
X164044380Y-113600000D01*
X164187238Y-113695238D01*
X164282476Y-113790476D01*
X164330095Y-113885714D01*
G04 #@! TO.C,D2*
X161852380Y-106638095D02*
X160852380Y-106638095D01*
X160852380Y-106400000D01*
X160900000Y-106257142D01*
X160995238Y-106161904D01*
X161090476Y-106114285D01*
X161280952Y-106066666D01*
X161423809Y-106066666D01*
X161614285Y-106114285D01*
X161709523Y-106161904D01*
X161804761Y-106257142D01*
X161852380Y-106400000D01*
X161852380Y-106638095D01*
X160947619Y-105685714D02*
X160900000Y-105638095D01*
X160852380Y-105542857D01*
X160852380Y-105304761D01*
X160900000Y-105209523D01*
X160947619Y-105161904D01*
X161042857Y-105114285D01*
X161138095Y-105114285D01*
X161280952Y-105161904D01*
X161852380Y-105733333D01*
X161852380Y-105114285D01*
G04 #@! TO.C,J1*
X175066666Y-115757380D02*
X175066666Y-116471666D01*
X175019047Y-116614523D01*
X174923809Y-116709761D01*
X174780952Y-116757380D01*
X174685714Y-116757380D01*
X176066666Y-116757380D02*
X175495238Y-116757380D01*
X175780952Y-116757380D02*
X175780952Y-115757380D01*
X175685714Y-115900238D01*
X175590476Y-115995476D01*
X175495238Y-116043095D01*
G04 #@! TO.C,J2*
X171202380Y-118033333D02*
X171916666Y-118033333D01*
X172059523Y-118080952D01*
X172154761Y-118176190D01*
X172202380Y-118319047D01*
X172202380Y-118414285D01*
X171297619Y-117604761D02*
X171250000Y-117557142D01*
X171202380Y-117461904D01*
X171202380Y-117223809D01*
X171250000Y-117128571D01*
X171297619Y-117080952D01*
X171392857Y-117033333D01*
X171488095Y-117033333D01*
X171630952Y-117080952D01*
X172202380Y-117652380D01*
X172202380Y-117033333D01*
G04 #@! TO.C,J3*
X157866666Y-110102380D02*
X157866666Y-110816666D01*
X157819047Y-110959523D01*
X157723809Y-111054761D01*
X157580952Y-111102380D01*
X157485714Y-111102380D01*
X158247619Y-110102380D02*
X158866666Y-110102380D01*
X158533333Y-110483333D01*
X158676190Y-110483333D01*
X158771428Y-110530952D01*
X158819047Y-110578571D01*
X158866666Y-110673809D01*
X158866666Y-110911904D01*
X158819047Y-111007142D01*
X158771428Y-111054761D01*
X158676190Y-111102380D01*
X158390476Y-111102380D01*
X158295238Y-111054761D01*
X158247619Y-111007142D01*
G04 #@! TO.C,R1*
X175033333Y-112102380D02*
X174700000Y-111626190D01*
X174461904Y-112102380D02*
X174461904Y-111102380D01*
X174842857Y-111102380D01*
X174938095Y-111150000D01*
X174985714Y-111197619D01*
X175033333Y-111292857D01*
X175033333Y-111435714D01*
X174985714Y-111530952D01*
X174938095Y-111578571D01*
X174842857Y-111626190D01*
X174461904Y-111626190D01*
X175985714Y-112102380D02*
X175414285Y-112102380D01*
X175700000Y-112102380D02*
X175700000Y-111102380D01*
X175604761Y-111245238D01*
X175509523Y-111340476D01*
X175414285Y-111388095D01*
G04 #@! TO.C,SW3*
X178404761Y-118133333D02*
X178452380Y-117990476D01*
X178452380Y-117752380D01*
X178404761Y-117657142D01*
X178357142Y-117609523D01*
X178261904Y-117561904D01*
X178166666Y-117561904D01*
X178071428Y-117609523D01*
X178023809Y-117657142D01*
X177976190Y-117752380D01*
X177928571Y-117942857D01*
X177880952Y-118038095D01*
X177833333Y-118085714D01*
X177738095Y-118133333D01*
X177642857Y-118133333D01*
X177547619Y-118085714D01*
X177500000Y-118038095D01*
X177452380Y-117942857D01*
X177452380Y-117704761D01*
X177500000Y-117561904D01*
X177452380Y-117228571D02*
X178452380Y-116990476D01*
X177738095Y-116800000D01*
X178452380Y-116609523D01*
X177452380Y-116371428D01*
X177452380Y-116085714D02*
X177452380Y-115466666D01*
X177833333Y-115800000D01*
X177833333Y-115657142D01*
X177880952Y-115561904D01*
X177928571Y-115514285D01*
X178023809Y-115466666D01*
X178261904Y-115466666D01*
X178357142Y-115514285D01*
X178404761Y-115561904D01*
X178452380Y-115657142D01*
X178452380Y-115942857D01*
X178404761Y-116038095D01*
X178357142Y-116085714D01*
G04 #@! TO.C,U1*
X172277380Y-110211904D02*
X173086904Y-110211904D01*
X173182142Y-110164285D01*
X173229761Y-110116666D01*
X173277380Y-110021428D01*
X173277380Y-109830952D01*
X173229761Y-109735714D01*
X173182142Y-109688095D01*
X173086904Y-109640476D01*
X172277380Y-109640476D01*
X173277380Y-108640476D02*
X173277380Y-109211904D01*
X173277380Y-108926190D02*
X172277380Y-108926190D01*
X172420238Y-109021428D01*
X172515476Y-109116666D01*
X172563095Y-109211904D01*
G04 #@! TO.C,SW1 - Prog*
X172957142Y-119654761D02*
X173071428Y-119702380D01*
X173261904Y-119702380D01*
X173338095Y-119654761D01*
X173376190Y-119607142D01*
X173414285Y-119511904D01*
X173414285Y-119416666D01*
X173376190Y-119321428D01*
X173338095Y-119273809D01*
X173261904Y-119226190D01*
X173109523Y-119178571D01*
X173033333Y-119130952D01*
X172995238Y-119083333D01*
X172957142Y-118988095D01*
X172957142Y-118892857D01*
X172995238Y-118797619D01*
X173033333Y-118750000D01*
X173109523Y-118702380D01*
X173300000Y-118702380D01*
X173414285Y-118750000D01*
X173680952Y-118702380D02*
X173871428Y-119702380D01*
X174023809Y-118988095D01*
X174176190Y-119702380D01*
X174366666Y-118702380D01*
X175090476Y-119702380D02*
X174633333Y-119702380D01*
X174861904Y-119702380D02*
X174861904Y-118702380D01*
X174785714Y-118845238D01*
X174709523Y-118940476D01*
X174633333Y-118988095D01*
X176042857Y-119321428D02*
X176652380Y-119321428D01*
X177642857Y-119702380D02*
X177642857Y-118702380D01*
X177947619Y-118702380D01*
X178023809Y-118750000D01*
X178061904Y-118797619D01*
X178100000Y-118892857D01*
X178100000Y-119035714D01*
X178061904Y-119130952D01*
X178023809Y-119178571D01*
X177947619Y-119226190D01*
X177642857Y-119226190D01*
X178442857Y-119702380D02*
X178442857Y-119035714D01*
X178442857Y-119226190D02*
X178480952Y-119130952D01*
X178519047Y-119083333D01*
X178595238Y-119035714D01*
X178671428Y-119035714D01*
X179052380Y-119702380D02*
X178976190Y-119654761D01*
X178938095Y-119607142D01*
X178900000Y-119511904D01*
X178900000Y-119226190D01*
X178938095Y-119130952D01*
X178976190Y-119083333D01*
X179052380Y-119035714D01*
X179166666Y-119035714D01*
X179242857Y-119083333D01*
X179280952Y-119130952D01*
X179319047Y-119226190D01*
X179319047Y-119511904D01*
X179280952Y-119607142D01*
X179242857Y-119654761D01*
X179166666Y-119702380D01*
X179052380Y-119702380D01*
X180004761Y-119035714D02*
X180004761Y-119845238D01*
X179966666Y-119940476D01*
X179928571Y-119988095D01*
X179852380Y-120035714D01*
X179738095Y-120035714D01*
X179661904Y-119988095D01*
X180004761Y-119654761D02*
X179928571Y-119702380D01*
X179776190Y-119702380D01*
X179700000Y-119654761D01*
X179661904Y-119607142D01*
X179623809Y-119511904D01*
X179623809Y-119226190D01*
X179661904Y-119130952D01*
X179700000Y-119083333D01*
X179776190Y-119035714D01*
X179928571Y-119035714D01*
X180004761Y-119083333D01*
G04 #@! TO.C,SW2*
X160204761Y-107733333D02*
X160252380Y-107590476D01*
X160252380Y-107352380D01*
X160204761Y-107257142D01*
X160157142Y-107209523D01*
X160061904Y-107161904D01*
X159966666Y-107161904D01*
X159871428Y-107209523D01*
X159823809Y-107257142D01*
X159776190Y-107352380D01*
X159728571Y-107542857D01*
X159680952Y-107638095D01*
X159633333Y-107685714D01*
X159538095Y-107733333D01*
X159442857Y-107733333D01*
X159347619Y-107685714D01*
X159300000Y-107638095D01*
X159252380Y-107542857D01*
X159252380Y-107304761D01*
X159300000Y-107161904D01*
X159252380Y-106828571D02*
X160252380Y-106590476D01*
X159538095Y-106400000D01*
X160252380Y-106209523D01*
X159252380Y-105971428D01*
X159347619Y-105638095D02*
X159300000Y-105590476D01*
X159252380Y-105495238D01*
X159252380Y-105257142D01*
X159300000Y-105161904D01*
X159347619Y-105114285D01*
X159442857Y-105066666D01*
X159538095Y-105066666D01*
X159680952Y-105114285D01*
X160252380Y-105685714D01*
X160252380Y-105066666D01*
G04 #@! TO.C,SW4*
X178404761Y-108533333D02*
X178452380Y-108390476D01*
X178452380Y-108152380D01*
X178404761Y-108057142D01*
X178357142Y-108009523D01*
X178261904Y-107961904D01*
X178166666Y-107961904D01*
X178071428Y-108009523D01*
X178023809Y-108057142D01*
X177976190Y-108152380D01*
X177928571Y-108342857D01*
X177880952Y-108438095D01*
X177833333Y-108485714D01*
X177738095Y-108533333D01*
X177642857Y-108533333D01*
X177547619Y-108485714D01*
X177500000Y-108438095D01*
X177452380Y-108342857D01*
X177452380Y-108104761D01*
X177500000Y-107961904D01*
X177452380Y-107628571D02*
X178452380Y-107390476D01*
X177738095Y-107200000D01*
X178452380Y-107009523D01*
X177452380Y-106771428D01*
X177785714Y-105961904D02*
X178452380Y-105961904D01*
X177404761Y-106200000D02*
X178119047Y-106438095D01*
X178119047Y-105819047D01*
G04 #@! TO.C,J4*
X180322380Y-100333333D02*
X181036666Y-100333333D01*
X181179523Y-100380952D01*
X181274761Y-100476190D01*
X181322380Y-100619047D01*
X181322380Y-100714285D01*
X180655714Y-99428571D02*
X181322380Y-99428571D01*
X180274761Y-99666666D02*
X180989047Y-99904761D01*
X180989047Y-99285714D01*
G04 #@! TO.C,R2*
X160433333Y-111652380D02*
X160100000Y-111176190D01*
X159861904Y-111652380D02*
X159861904Y-110652380D01*
X160242857Y-110652380D01*
X160338095Y-110700000D01*
X160385714Y-110747619D01*
X160433333Y-110842857D01*
X160433333Y-110985714D01*
X160385714Y-111080952D01*
X160338095Y-111128571D01*
X160242857Y-111176190D01*
X159861904Y-111176190D01*
X160814285Y-110747619D02*
X160861904Y-110700000D01*
X160957142Y-110652380D01*
X161195238Y-110652380D01*
X161290476Y-110700000D01*
X161338095Y-110747619D01*
X161385714Y-110842857D01*
X161385714Y-110938095D01*
X161338095Y-111080952D01*
X160766666Y-111652380D01*
X161385714Y-111652380D01*
G04 #@! TO.C,R3*
X160433333Y-109652380D02*
X160100000Y-109176190D01*
X159861904Y-109652380D02*
X159861904Y-108652380D01*
X160242857Y-108652380D01*
X160338095Y-108700000D01*
X160385714Y-108747619D01*
X160433333Y-108842857D01*
X160433333Y-108985714D01*
X160385714Y-109080952D01*
X160338095Y-109128571D01*
X160242857Y-109176190D01*
X159861904Y-109176190D01*
X160766666Y-108652380D02*
X161385714Y-108652380D01*
X161052380Y-109033333D01*
X161195238Y-109033333D01*
X161290476Y-109080952D01*
X161338095Y-109128571D01*
X161385714Y-109223809D01*
X161385714Y-109461904D01*
X161338095Y-109557142D01*
X161290476Y-109604761D01*
X161195238Y-109652380D01*
X160909523Y-109652380D01*
X160814285Y-109604761D01*
X160766666Y-109557142D01*
G04 #@! TD*
M02*
