G04 #@! TF.GenerationSoftware,KiCad,Pcbnew,5.0.1*
G04 #@! TF.CreationDate,2019-03-05T21:59:43-06:00*
G04 #@! TF.ProjectId,CH552Devboard,4348353532446576626F6172642E6B69,rev?*
G04 #@! TF.SameCoordinates,Original*
G04 #@! TF.FileFunction,Soldermask,Bot*
G04 #@! TF.FilePolarity,Negative*
%FSLAX46Y46*%
G04 Gerber Fmt 4.6, Leading zero omitted, Abs format (unit mm)*
G04 Created by KiCad (PCBNEW 5.0.1) date Tue 05 Mar 2019 09:59:43 PM CST*
%MOMM*%
%LPD*%
G01*
G04 APERTURE LIST*
%ADD10C,0.100000*%
G04 APERTURE END LIST*
D10*
G36*
X177752383Y-121162489D02*
X177816261Y-121188948D01*
X177873750Y-121227361D01*
X177922639Y-121276250D01*
X177961052Y-121333739D01*
X177987511Y-121397617D01*
X178001000Y-121465430D01*
X178001000Y-121534570D01*
X177987511Y-121602383D01*
X177961052Y-121666261D01*
X177922639Y-121723750D01*
X177873750Y-121772639D01*
X177816261Y-121811052D01*
X177752383Y-121837511D01*
X177684570Y-121851000D01*
X177615430Y-121851000D01*
X177547617Y-121837511D01*
X177483739Y-121811052D01*
X177426250Y-121772639D01*
X177377361Y-121723750D01*
X177338948Y-121666261D01*
X177312489Y-121602383D01*
X177299000Y-121534570D01*
X177299000Y-121465430D01*
X177312489Y-121397617D01*
X177338948Y-121333739D01*
X177377361Y-121276250D01*
X177426250Y-121227361D01*
X177483739Y-121188948D01*
X177547617Y-121162489D01*
X177615430Y-121149000D01*
X177684570Y-121149000D01*
X177752383Y-121162489D01*
X177752383Y-121162489D01*
G37*
G36*
X175552383Y-121162489D02*
X175616261Y-121188948D01*
X175673750Y-121227361D01*
X175722639Y-121276250D01*
X175761052Y-121333739D01*
X175787511Y-121397617D01*
X175801000Y-121465430D01*
X175801000Y-121534570D01*
X175787511Y-121602383D01*
X175761052Y-121666261D01*
X175722639Y-121723750D01*
X175673750Y-121772639D01*
X175616261Y-121811052D01*
X175552383Y-121837511D01*
X175484570Y-121851000D01*
X175415430Y-121851000D01*
X175347617Y-121837511D01*
X175283739Y-121811052D01*
X175226250Y-121772639D01*
X175177361Y-121723750D01*
X175138948Y-121666261D01*
X175112489Y-121602383D01*
X175099000Y-121534570D01*
X175099000Y-121465430D01*
X175112489Y-121397617D01*
X175138948Y-121333739D01*
X175177361Y-121276250D01*
X175226250Y-121227361D01*
X175283739Y-121188948D01*
X175347617Y-121162489D01*
X175415430Y-121149000D01*
X175484570Y-121149000D01*
X175552383Y-121162489D01*
X175552383Y-121162489D01*
G37*
G36*
X158310443Y-119705519D02*
X158376627Y-119712037D01*
X158489853Y-119746384D01*
X158546467Y-119763557D01*
X158685087Y-119837652D01*
X158702991Y-119847222D01*
X158738729Y-119876552D01*
X158840186Y-119959814D01*
X158923448Y-120061271D01*
X158952778Y-120097009D01*
X158952779Y-120097011D01*
X159036443Y-120253533D01*
X159036443Y-120253534D01*
X159087963Y-120423373D01*
X159105359Y-120600000D01*
X159087963Y-120776627D01*
X159053616Y-120889853D01*
X159036443Y-120946467D01*
X158962348Y-121085087D01*
X158952778Y-121102991D01*
X158923448Y-121138729D01*
X158840186Y-121240186D01*
X158738729Y-121323448D01*
X158702991Y-121352778D01*
X158702989Y-121352779D01*
X158546467Y-121436443D01*
X158489853Y-121453616D01*
X158376627Y-121487963D01*
X158310442Y-121494482D01*
X158244260Y-121501000D01*
X158155740Y-121501000D01*
X158089558Y-121494482D01*
X158023373Y-121487963D01*
X157910147Y-121453616D01*
X157853533Y-121436443D01*
X157697011Y-121352779D01*
X157697009Y-121352778D01*
X157661271Y-121323448D01*
X157559814Y-121240186D01*
X157476552Y-121138729D01*
X157447222Y-121102991D01*
X157437652Y-121085087D01*
X157363557Y-120946467D01*
X157346384Y-120889853D01*
X157312037Y-120776627D01*
X157294641Y-120600000D01*
X157312037Y-120423373D01*
X157363557Y-120253534D01*
X157363557Y-120253533D01*
X157447221Y-120097011D01*
X157447222Y-120097009D01*
X157476552Y-120061271D01*
X157559814Y-119959814D01*
X157661271Y-119876552D01*
X157697009Y-119847222D01*
X157714913Y-119837652D01*
X157853533Y-119763557D01*
X157910147Y-119746384D01*
X158023373Y-119712037D01*
X158089557Y-119705519D01*
X158155740Y-119699000D01*
X158244260Y-119699000D01*
X158310443Y-119705519D01*
X158310443Y-119705519D01*
G37*
G36*
X158310442Y-117165518D02*
X158376627Y-117172037D01*
X158489853Y-117206384D01*
X158546467Y-117223557D01*
X158685087Y-117297652D01*
X158702991Y-117307222D01*
X158738729Y-117336552D01*
X158840186Y-117419814D01*
X158923448Y-117521271D01*
X158952778Y-117557009D01*
X158952779Y-117557011D01*
X159036443Y-117713533D01*
X159036443Y-117713534D01*
X159087963Y-117883373D01*
X159105359Y-118060000D01*
X159087963Y-118236627D01*
X159070990Y-118292578D01*
X159036443Y-118406467D01*
X159018822Y-118439433D01*
X158952778Y-118562991D01*
X158923448Y-118598729D01*
X158840186Y-118700186D01*
X158738729Y-118783448D01*
X158702991Y-118812778D01*
X158702989Y-118812779D01*
X158546467Y-118896443D01*
X158489853Y-118913616D01*
X158376627Y-118947963D01*
X158310443Y-118954481D01*
X158244260Y-118961000D01*
X158155740Y-118961000D01*
X158089557Y-118954481D01*
X158023373Y-118947963D01*
X157910147Y-118913616D01*
X157853533Y-118896443D01*
X157697011Y-118812779D01*
X157697009Y-118812778D01*
X157661271Y-118783448D01*
X157559814Y-118700186D01*
X157476552Y-118598729D01*
X157447222Y-118562991D01*
X157381178Y-118439433D01*
X157363557Y-118406467D01*
X157329010Y-118292578D01*
X157312037Y-118236627D01*
X157294641Y-118060000D01*
X157312037Y-117883373D01*
X157363557Y-117713534D01*
X157363557Y-117713533D01*
X157447221Y-117557011D01*
X157447222Y-117557009D01*
X157476552Y-117521271D01*
X157559814Y-117419814D01*
X157661271Y-117336552D01*
X157697009Y-117307222D01*
X157714913Y-117297652D01*
X157853533Y-117223557D01*
X157910147Y-117206384D01*
X158023373Y-117172037D01*
X158089558Y-117165518D01*
X158155740Y-117159000D01*
X158244260Y-117159000D01*
X158310442Y-117165518D01*
X158310442Y-117165518D01*
G37*
G36*
X175951000Y-118551000D02*
X174849000Y-118551000D01*
X174849000Y-117449000D01*
X175951000Y-117449000D01*
X175951000Y-118551000D01*
X175951000Y-118551000D01*
G37*
G36*
X168487796Y-117860567D02*
X168542578Y-117883258D01*
X168591879Y-117916200D01*
X168633800Y-117958121D01*
X168666742Y-118007422D01*
X168689433Y-118062204D01*
X168701000Y-118120353D01*
X168701000Y-118179647D01*
X168689433Y-118237796D01*
X168666742Y-118292578D01*
X168633800Y-118341879D01*
X168591879Y-118383800D01*
X168542578Y-118416742D01*
X168487796Y-118439433D01*
X168429647Y-118451000D01*
X168370353Y-118451000D01*
X168312204Y-118439433D01*
X168257422Y-118416742D01*
X168208121Y-118383800D01*
X168166200Y-118341879D01*
X168133258Y-118292578D01*
X168110567Y-118237796D01*
X168099000Y-118179647D01*
X168099000Y-118120353D01*
X168110567Y-118062204D01*
X168133258Y-118007422D01*
X168166200Y-117958121D01*
X168208121Y-117916200D01*
X168257422Y-117883258D01*
X168312204Y-117860567D01*
X168370353Y-117849000D01*
X168429647Y-117849000D01*
X168487796Y-117860567D01*
X168487796Y-117860567D01*
G37*
G36*
X164487796Y-117860567D02*
X164542578Y-117883258D01*
X164591879Y-117916200D01*
X164633800Y-117958121D01*
X164666742Y-118007422D01*
X164689433Y-118062204D01*
X164701000Y-118120353D01*
X164701000Y-118179647D01*
X164689433Y-118237796D01*
X164666742Y-118292578D01*
X164633800Y-118341879D01*
X164591879Y-118383800D01*
X164542578Y-118416742D01*
X164487796Y-118439433D01*
X164429647Y-118451000D01*
X164370353Y-118451000D01*
X164312204Y-118439433D01*
X164257422Y-118416742D01*
X164208121Y-118383800D01*
X164166200Y-118341879D01*
X164133258Y-118292578D01*
X164110567Y-118237796D01*
X164099000Y-118179647D01*
X164099000Y-118120353D01*
X164110567Y-118062204D01*
X164133258Y-118007422D01*
X164166200Y-117958121D01*
X164208121Y-117916200D01*
X164257422Y-117883258D01*
X164312204Y-117860567D01*
X164370353Y-117849000D01*
X164429647Y-117849000D01*
X164487796Y-117860567D01*
X164487796Y-117860567D01*
G37*
G36*
X180602383Y-115912489D02*
X180666261Y-115938948D01*
X180723750Y-115977361D01*
X180772639Y-116026250D01*
X180811052Y-116083739D01*
X180837511Y-116147617D01*
X180851000Y-116215430D01*
X180851000Y-116284570D01*
X180837511Y-116352383D01*
X180811052Y-116416261D01*
X180772639Y-116473750D01*
X180723750Y-116522639D01*
X180666261Y-116561052D01*
X180602383Y-116587511D01*
X180534570Y-116601000D01*
X180465430Y-116601000D01*
X180397617Y-116587511D01*
X180333739Y-116561052D01*
X180276250Y-116522639D01*
X180227361Y-116473750D01*
X180188948Y-116416261D01*
X180162489Y-116352383D01*
X180149000Y-116284570D01*
X180149000Y-116215430D01*
X180162489Y-116147617D01*
X180188948Y-116083739D01*
X180227361Y-116026250D01*
X180276250Y-115977361D01*
X180333739Y-115938948D01*
X180397617Y-115912489D01*
X180465430Y-115899000D01*
X180534570Y-115899000D01*
X180602383Y-115912489D01*
X180602383Y-115912489D01*
G37*
G36*
X158310442Y-114625518D02*
X158376627Y-114632037D01*
X158489853Y-114666384D01*
X158546467Y-114683557D01*
X158685087Y-114757652D01*
X158702991Y-114767222D01*
X158738729Y-114796552D01*
X158840186Y-114879814D01*
X158923448Y-114981271D01*
X158952778Y-115017009D01*
X158952779Y-115017011D01*
X159036443Y-115173533D01*
X159036443Y-115173534D01*
X159087963Y-115343373D01*
X159105359Y-115520000D01*
X159087963Y-115696627D01*
X159053616Y-115809853D01*
X159036443Y-115866467D01*
X158977168Y-115977361D01*
X158952778Y-116022991D01*
X158923448Y-116058729D01*
X158840186Y-116160186D01*
X158738729Y-116243448D01*
X158702991Y-116272778D01*
X158702989Y-116272779D01*
X158546467Y-116356443D01*
X158489853Y-116373616D01*
X158376627Y-116407963D01*
X158310442Y-116414482D01*
X158244260Y-116421000D01*
X158155740Y-116421000D01*
X158089558Y-116414482D01*
X158023373Y-116407963D01*
X157910147Y-116373616D01*
X157853533Y-116356443D01*
X157697011Y-116272779D01*
X157697009Y-116272778D01*
X157661271Y-116243448D01*
X157559814Y-116160186D01*
X157476552Y-116058729D01*
X157447222Y-116022991D01*
X157422832Y-115977361D01*
X157363557Y-115866467D01*
X157346384Y-115809853D01*
X157312037Y-115696627D01*
X157294641Y-115520000D01*
X157312037Y-115343373D01*
X157363557Y-115173534D01*
X157363557Y-115173533D01*
X157447221Y-115017011D01*
X157447222Y-115017009D01*
X157476552Y-114981271D01*
X157559814Y-114879814D01*
X157661271Y-114796552D01*
X157697009Y-114767222D01*
X157714913Y-114757652D01*
X157853533Y-114683557D01*
X157910147Y-114666384D01*
X158023373Y-114632037D01*
X158089558Y-114625518D01*
X158155740Y-114619000D01*
X158244260Y-114619000D01*
X158310442Y-114625518D01*
X158310442Y-114625518D01*
G37*
G36*
X180602383Y-113712489D02*
X180666261Y-113738948D01*
X180723750Y-113777361D01*
X180772639Y-113826250D01*
X180811052Y-113883739D01*
X180837511Y-113947617D01*
X180851000Y-114015430D01*
X180851000Y-114084570D01*
X180837511Y-114152383D01*
X180811052Y-114216261D01*
X180772639Y-114273750D01*
X180723750Y-114322639D01*
X180666261Y-114361052D01*
X180602383Y-114387511D01*
X180534570Y-114401000D01*
X180465430Y-114401000D01*
X180397617Y-114387511D01*
X180333739Y-114361052D01*
X180276250Y-114322639D01*
X180227361Y-114273750D01*
X180188948Y-114216261D01*
X180162489Y-114152383D01*
X180149000Y-114084570D01*
X180149000Y-114015430D01*
X180162489Y-113947617D01*
X180188948Y-113883739D01*
X180227361Y-113826250D01*
X180276250Y-113777361D01*
X180333739Y-113738948D01*
X180397617Y-113712489D01*
X180465430Y-113699000D01*
X180534570Y-113699000D01*
X180602383Y-113712489D01*
X180602383Y-113712489D01*
G37*
G36*
X159101000Y-113881000D02*
X157299000Y-113881000D01*
X157299000Y-112079000D01*
X159101000Y-112079000D01*
X159101000Y-113881000D01*
X159101000Y-113881000D01*
G37*
G36*
X180602383Y-107112489D02*
X180666261Y-107138948D01*
X180723750Y-107177361D01*
X180772639Y-107226250D01*
X180811052Y-107283739D01*
X180837511Y-107347617D01*
X180851000Y-107415430D01*
X180851000Y-107484570D01*
X180837511Y-107552383D01*
X180811052Y-107616261D01*
X180772639Y-107673750D01*
X180723750Y-107722639D01*
X180666261Y-107761052D01*
X180602383Y-107787511D01*
X180534570Y-107801000D01*
X180465430Y-107801000D01*
X180397617Y-107787511D01*
X180333739Y-107761052D01*
X180276250Y-107722639D01*
X180227361Y-107673750D01*
X180188948Y-107616261D01*
X180162489Y-107552383D01*
X180149000Y-107484570D01*
X180149000Y-107415430D01*
X180162489Y-107347617D01*
X180188948Y-107283739D01*
X180227361Y-107226250D01*
X180276250Y-107177361D01*
X180333739Y-107138948D01*
X180397617Y-107112489D01*
X180465430Y-107099000D01*
X180534570Y-107099000D01*
X180602383Y-107112489D01*
X180602383Y-107112489D01*
G37*
G36*
X157202383Y-107012489D02*
X157266261Y-107038948D01*
X157323750Y-107077361D01*
X157372639Y-107126250D01*
X157411052Y-107183739D01*
X157437511Y-107247617D01*
X157451000Y-107315430D01*
X157451000Y-107384570D01*
X157437511Y-107452383D01*
X157411052Y-107516261D01*
X157372639Y-107573750D01*
X157323750Y-107622639D01*
X157266261Y-107661052D01*
X157202383Y-107687511D01*
X157134570Y-107701000D01*
X157065430Y-107701000D01*
X156997617Y-107687511D01*
X156933739Y-107661052D01*
X156876250Y-107622639D01*
X156827361Y-107573750D01*
X156788948Y-107516261D01*
X156762489Y-107452383D01*
X156749000Y-107384570D01*
X156749000Y-107315430D01*
X156762489Y-107247617D01*
X156788948Y-107183739D01*
X156827361Y-107126250D01*
X156876250Y-107077361D01*
X156933739Y-107038948D01*
X156997617Y-107012489D01*
X157065430Y-106999000D01*
X157134570Y-106999000D01*
X157202383Y-107012489D01*
X157202383Y-107012489D01*
G37*
G36*
X180602383Y-104912489D02*
X180666261Y-104938948D01*
X180723750Y-104977361D01*
X180772639Y-105026250D01*
X180811052Y-105083739D01*
X180837511Y-105147617D01*
X180851000Y-105215430D01*
X180851000Y-105284570D01*
X180837511Y-105352383D01*
X180811052Y-105416261D01*
X180772639Y-105473750D01*
X180723750Y-105522639D01*
X180666261Y-105561052D01*
X180602383Y-105587511D01*
X180534570Y-105601000D01*
X180465430Y-105601000D01*
X180397617Y-105587511D01*
X180333739Y-105561052D01*
X180276250Y-105522639D01*
X180227361Y-105473750D01*
X180188948Y-105416261D01*
X180162489Y-105352383D01*
X180149000Y-105284570D01*
X180149000Y-105215430D01*
X180162489Y-105147617D01*
X180188948Y-105083739D01*
X180227361Y-105026250D01*
X180276250Y-104977361D01*
X180333739Y-104938948D01*
X180397617Y-104912489D01*
X180465430Y-104899000D01*
X180534570Y-104899000D01*
X180602383Y-104912489D01*
X180602383Y-104912489D01*
G37*
G36*
X157202383Y-104812489D02*
X157266261Y-104838948D01*
X157323750Y-104877361D01*
X157372639Y-104926250D01*
X157411052Y-104983739D01*
X157437511Y-105047617D01*
X157451000Y-105115430D01*
X157451000Y-105184570D01*
X157437511Y-105252383D01*
X157411052Y-105316261D01*
X157372639Y-105373750D01*
X157323750Y-105422639D01*
X157266261Y-105461052D01*
X157202383Y-105487511D01*
X157134570Y-105501000D01*
X157065430Y-105501000D01*
X156997617Y-105487511D01*
X156933739Y-105461052D01*
X156876250Y-105422639D01*
X156827361Y-105373750D01*
X156788948Y-105316261D01*
X156762489Y-105252383D01*
X156749000Y-105184570D01*
X156749000Y-105115430D01*
X156762489Y-105047617D01*
X156788948Y-104983739D01*
X156827361Y-104926250D01*
X156876250Y-104877361D01*
X156933739Y-104838948D01*
X156997617Y-104812489D01*
X157065430Y-104799000D01*
X157134570Y-104799000D01*
X157202383Y-104812489D01*
X157202383Y-104812489D01*
G37*
G36*
X176110442Y-99105518D02*
X176176627Y-99112037D01*
X176289853Y-99146384D01*
X176346467Y-99163557D01*
X176485087Y-99237652D01*
X176502991Y-99247222D01*
X176538729Y-99276552D01*
X176640186Y-99359814D01*
X176723448Y-99461271D01*
X176752778Y-99497009D01*
X176752779Y-99497011D01*
X176836443Y-99653533D01*
X176836443Y-99653534D01*
X176887963Y-99823373D01*
X176905359Y-100000000D01*
X176887963Y-100176627D01*
X176853616Y-100289853D01*
X176836443Y-100346467D01*
X176762348Y-100485087D01*
X176752778Y-100502991D01*
X176723448Y-100538729D01*
X176640186Y-100640186D01*
X176538729Y-100723448D01*
X176502991Y-100752778D01*
X176502989Y-100752779D01*
X176346467Y-100836443D01*
X176289853Y-100853616D01*
X176176627Y-100887963D01*
X176110443Y-100894481D01*
X176044260Y-100901000D01*
X175955740Y-100901000D01*
X175889557Y-100894481D01*
X175823373Y-100887963D01*
X175710147Y-100853616D01*
X175653533Y-100836443D01*
X175497011Y-100752779D01*
X175497009Y-100752778D01*
X175461271Y-100723448D01*
X175359814Y-100640186D01*
X175276552Y-100538729D01*
X175247222Y-100502991D01*
X175237652Y-100485087D01*
X175163557Y-100346467D01*
X175146384Y-100289853D01*
X175112037Y-100176627D01*
X175094641Y-100000000D01*
X175112037Y-99823373D01*
X175163557Y-99653534D01*
X175163557Y-99653533D01*
X175247221Y-99497011D01*
X175247222Y-99497009D01*
X175276552Y-99461271D01*
X175359814Y-99359814D01*
X175461271Y-99276552D01*
X175497009Y-99247222D01*
X175514913Y-99237652D01*
X175653533Y-99163557D01*
X175710147Y-99146384D01*
X175823373Y-99112037D01*
X175889558Y-99105518D01*
X175955740Y-99099000D01*
X176044260Y-99099000D01*
X176110442Y-99105518D01*
X176110442Y-99105518D01*
G37*
G36*
X158330442Y-99105518D02*
X158396627Y-99112037D01*
X158509853Y-99146384D01*
X158566467Y-99163557D01*
X158705087Y-99237652D01*
X158722991Y-99247222D01*
X158758729Y-99276552D01*
X158860186Y-99359814D01*
X158943448Y-99461271D01*
X158972778Y-99497009D01*
X158972779Y-99497011D01*
X159056443Y-99653533D01*
X159056443Y-99653534D01*
X159107963Y-99823373D01*
X159125359Y-100000000D01*
X159107963Y-100176627D01*
X159073616Y-100289853D01*
X159056443Y-100346467D01*
X158982348Y-100485087D01*
X158972778Y-100502991D01*
X158943448Y-100538729D01*
X158860186Y-100640186D01*
X158758729Y-100723448D01*
X158722991Y-100752778D01*
X158722989Y-100752779D01*
X158566467Y-100836443D01*
X158509853Y-100853616D01*
X158396627Y-100887963D01*
X158330443Y-100894481D01*
X158264260Y-100901000D01*
X158175740Y-100901000D01*
X158109557Y-100894481D01*
X158043373Y-100887963D01*
X157930147Y-100853616D01*
X157873533Y-100836443D01*
X157717011Y-100752779D01*
X157717009Y-100752778D01*
X157681271Y-100723448D01*
X157579814Y-100640186D01*
X157496552Y-100538729D01*
X157467222Y-100502991D01*
X157457652Y-100485087D01*
X157383557Y-100346467D01*
X157366384Y-100289853D01*
X157332037Y-100176627D01*
X157314641Y-100000000D01*
X157332037Y-99823373D01*
X157383557Y-99653534D01*
X157383557Y-99653533D01*
X157467221Y-99497011D01*
X157467222Y-99497009D01*
X157496552Y-99461271D01*
X157579814Y-99359814D01*
X157681271Y-99276552D01*
X157717009Y-99247222D01*
X157734913Y-99237652D01*
X157873533Y-99163557D01*
X157930147Y-99146384D01*
X158043373Y-99112037D01*
X158109558Y-99105518D01*
X158175740Y-99099000D01*
X158264260Y-99099000D01*
X158330442Y-99105518D01*
X158330442Y-99105518D01*
G37*
G36*
X173570442Y-99105518D02*
X173636627Y-99112037D01*
X173749853Y-99146384D01*
X173806467Y-99163557D01*
X173945087Y-99237652D01*
X173962991Y-99247222D01*
X173998729Y-99276552D01*
X174100186Y-99359814D01*
X174183448Y-99461271D01*
X174212778Y-99497009D01*
X174212779Y-99497011D01*
X174296443Y-99653533D01*
X174296443Y-99653534D01*
X174347963Y-99823373D01*
X174365359Y-100000000D01*
X174347963Y-100176627D01*
X174313616Y-100289853D01*
X174296443Y-100346467D01*
X174222348Y-100485087D01*
X174212778Y-100502991D01*
X174183448Y-100538729D01*
X174100186Y-100640186D01*
X173998729Y-100723448D01*
X173962991Y-100752778D01*
X173962989Y-100752779D01*
X173806467Y-100836443D01*
X173749853Y-100853616D01*
X173636627Y-100887963D01*
X173570443Y-100894481D01*
X173504260Y-100901000D01*
X173415740Y-100901000D01*
X173349557Y-100894481D01*
X173283373Y-100887963D01*
X173170147Y-100853616D01*
X173113533Y-100836443D01*
X172957011Y-100752779D01*
X172957009Y-100752778D01*
X172921271Y-100723448D01*
X172819814Y-100640186D01*
X172736552Y-100538729D01*
X172707222Y-100502991D01*
X172697652Y-100485087D01*
X172623557Y-100346467D01*
X172606384Y-100289853D01*
X172572037Y-100176627D01*
X172554641Y-100000000D01*
X172572037Y-99823373D01*
X172623557Y-99653534D01*
X172623557Y-99653533D01*
X172707221Y-99497011D01*
X172707222Y-99497009D01*
X172736552Y-99461271D01*
X172819814Y-99359814D01*
X172921271Y-99276552D01*
X172957009Y-99247222D01*
X172974913Y-99237652D01*
X173113533Y-99163557D01*
X173170147Y-99146384D01*
X173283373Y-99112037D01*
X173349558Y-99105518D01*
X173415740Y-99099000D01*
X173504260Y-99099000D01*
X173570442Y-99105518D01*
X173570442Y-99105518D01*
G37*
G36*
X171030442Y-99105518D02*
X171096627Y-99112037D01*
X171209853Y-99146384D01*
X171266467Y-99163557D01*
X171405087Y-99237652D01*
X171422991Y-99247222D01*
X171458729Y-99276552D01*
X171560186Y-99359814D01*
X171643448Y-99461271D01*
X171672778Y-99497009D01*
X171672779Y-99497011D01*
X171756443Y-99653533D01*
X171756443Y-99653534D01*
X171807963Y-99823373D01*
X171825359Y-100000000D01*
X171807963Y-100176627D01*
X171773616Y-100289853D01*
X171756443Y-100346467D01*
X171682348Y-100485087D01*
X171672778Y-100502991D01*
X171643448Y-100538729D01*
X171560186Y-100640186D01*
X171458729Y-100723448D01*
X171422991Y-100752778D01*
X171422989Y-100752779D01*
X171266467Y-100836443D01*
X171209853Y-100853616D01*
X171096627Y-100887963D01*
X171030443Y-100894481D01*
X170964260Y-100901000D01*
X170875740Y-100901000D01*
X170809557Y-100894481D01*
X170743373Y-100887963D01*
X170630147Y-100853616D01*
X170573533Y-100836443D01*
X170417011Y-100752779D01*
X170417009Y-100752778D01*
X170381271Y-100723448D01*
X170279814Y-100640186D01*
X170196552Y-100538729D01*
X170167222Y-100502991D01*
X170157652Y-100485087D01*
X170083557Y-100346467D01*
X170066384Y-100289853D01*
X170032037Y-100176627D01*
X170014641Y-100000000D01*
X170032037Y-99823373D01*
X170083557Y-99653534D01*
X170083557Y-99653533D01*
X170167221Y-99497011D01*
X170167222Y-99497009D01*
X170196552Y-99461271D01*
X170279814Y-99359814D01*
X170381271Y-99276552D01*
X170417009Y-99247222D01*
X170434913Y-99237652D01*
X170573533Y-99163557D01*
X170630147Y-99146384D01*
X170743373Y-99112037D01*
X170809558Y-99105518D01*
X170875740Y-99099000D01*
X170964260Y-99099000D01*
X171030442Y-99105518D01*
X171030442Y-99105518D01*
G37*
G36*
X168490442Y-99105518D02*
X168556627Y-99112037D01*
X168669853Y-99146384D01*
X168726467Y-99163557D01*
X168865087Y-99237652D01*
X168882991Y-99247222D01*
X168918729Y-99276552D01*
X169020186Y-99359814D01*
X169103448Y-99461271D01*
X169132778Y-99497009D01*
X169132779Y-99497011D01*
X169216443Y-99653533D01*
X169216443Y-99653534D01*
X169267963Y-99823373D01*
X169285359Y-100000000D01*
X169267963Y-100176627D01*
X169233616Y-100289853D01*
X169216443Y-100346467D01*
X169142348Y-100485087D01*
X169132778Y-100502991D01*
X169103448Y-100538729D01*
X169020186Y-100640186D01*
X168918729Y-100723448D01*
X168882991Y-100752778D01*
X168882989Y-100752779D01*
X168726467Y-100836443D01*
X168669853Y-100853616D01*
X168556627Y-100887963D01*
X168490443Y-100894481D01*
X168424260Y-100901000D01*
X168335740Y-100901000D01*
X168269557Y-100894481D01*
X168203373Y-100887963D01*
X168090147Y-100853616D01*
X168033533Y-100836443D01*
X167877011Y-100752779D01*
X167877009Y-100752778D01*
X167841271Y-100723448D01*
X167739814Y-100640186D01*
X167656552Y-100538729D01*
X167627222Y-100502991D01*
X167617652Y-100485087D01*
X167543557Y-100346467D01*
X167526384Y-100289853D01*
X167492037Y-100176627D01*
X167474641Y-100000000D01*
X167492037Y-99823373D01*
X167543557Y-99653534D01*
X167543557Y-99653533D01*
X167627221Y-99497011D01*
X167627222Y-99497009D01*
X167656552Y-99461271D01*
X167739814Y-99359814D01*
X167841271Y-99276552D01*
X167877009Y-99247222D01*
X167894913Y-99237652D01*
X168033533Y-99163557D01*
X168090147Y-99146384D01*
X168203373Y-99112037D01*
X168269558Y-99105518D01*
X168335740Y-99099000D01*
X168424260Y-99099000D01*
X168490442Y-99105518D01*
X168490442Y-99105518D01*
G37*
G36*
X165950442Y-99105518D02*
X166016627Y-99112037D01*
X166129853Y-99146384D01*
X166186467Y-99163557D01*
X166325087Y-99237652D01*
X166342991Y-99247222D01*
X166378729Y-99276552D01*
X166480186Y-99359814D01*
X166563448Y-99461271D01*
X166592778Y-99497009D01*
X166592779Y-99497011D01*
X166676443Y-99653533D01*
X166676443Y-99653534D01*
X166727963Y-99823373D01*
X166745359Y-100000000D01*
X166727963Y-100176627D01*
X166693616Y-100289853D01*
X166676443Y-100346467D01*
X166602348Y-100485087D01*
X166592778Y-100502991D01*
X166563448Y-100538729D01*
X166480186Y-100640186D01*
X166378729Y-100723448D01*
X166342991Y-100752778D01*
X166342989Y-100752779D01*
X166186467Y-100836443D01*
X166129853Y-100853616D01*
X166016627Y-100887963D01*
X165950443Y-100894481D01*
X165884260Y-100901000D01*
X165795740Y-100901000D01*
X165729557Y-100894481D01*
X165663373Y-100887963D01*
X165550147Y-100853616D01*
X165493533Y-100836443D01*
X165337011Y-100752779D01*
X165337009Y-100752778D01*
X165301271Y-100723448D01*
X165199814Y-100640186D01*
X165116552Y-100538729D01*
X165087222Y-100502991D01*
X165077652Y-100485087D01*
X165003557Y-100346467D01*
X164986384Y-100289853D01*
X164952037Y-100176627D01*
X164934641Y-100000000D01*
X164952037Y-99823373D01*
X165003557Y-99653534D01*
X165003557Y-99653533D01*
X165087221Y-99497011D01*
X165087222Y-99497009D01*
X165116552Y-99461271D01*
X165199814Y-99359814D01*
X165301271Y-99276552D01*
X165337009Y-99247222D01*
X165354913Y-99237652D01*
X165493533Y-99163557D01*
X165550147Y-99146384D01*
X165663373Y-99112037D01*
X165729558Y-99105518D01*
X165795740Y-99099000D01*
X165884260Y-99099000D01*
X165950442Y-99105518D01*
X165950442Y-99105518D01*
G37*
G36*
X163410442Y-99105518D02*
X163476627Y-99112037D01*
X163589853Y-99146384D01*
X163646467Y-99163557D01*
X163785087Y-99237652D01*
X163802991Y-99247222D01*
X163838729Y-99276552D01*
X163940186Y-99359814D01*
X164023448Y-99461271D01*
X164052778Y-99497009D01*
X164052779Y-99497011D01*
X164136443Y-99653533D01*
X164136443Y-99653534D01*
X164187963Y-99823373D01*
X164205359Y-100000000D01*
X164187963Y-100176627D01*
X164153616Y-100289853D01*
X164136443Y-100346467D01*
X164062348Y-100485087D01*
X164052778Y-100502991D01*
X164023448Y-100538729D01*
X163940186Y-100640186D01*
X163838729Y-100723448D01*
X163802991Y-100752778D01*
X163802989Y-100752779D01*
X163646467Y-100836443D01*
X163589853Y-100853616D01*
X163476627Y-100887963D01*
X163410443Y-100894481D01*
X163344260Y-100901000D01*
X163255740Y-100901000D01*
X163189557Y-100894481D01*
X163123373Y-100887963D01*
X163010147Y-100853616D01*
X162953533Y-100836443D01*
X162797011Y-100752779D01*
X162797009Y-100752778D01*
X162761271Y-100723448D01*
X162659814Y-100640186D01*
X162576552Y-100538729D01*
X162547222Y-100502991D01*
X162537652Y-100485087D01*
X162463557Y-100346467D01*
X162446384Y-100289853D01*
X162412037Y-100176627D01*
X162394641Y-100000000D01*
X162412037Y-99823373D01*
X162463557Y-99653534D01*
X162463557Y-99653533D01*
X162547221Y-99497011D01*
X162547222Y-99497009D01*
X162576552Y-99461271D01*
X162659814Y-99359814D01*
X162761271Y-99276552D01*
X162797009Y-99247222D01*
X162814913Y-99237652D01*
X162953533Y-99163557D01*
X163010147Y-99146384D01*
X163123373Y-99112037D01*
X163189558Y-99105518D01*
X163255740Y-99099000D01*
X163344260Y-99099000D01*
X163410442Y-99105518D01*
X163410442Y-99105518D01*
G37*
G36*
X160870442Y-99105518D02*
X160936627Y-99112037D01*
X161049853Y-99146384D01*
X161106467Y-99163557D01*
X161245087Y-99237652D01*
X161262991Y-99247222D01*
X161298729Y-99276552D01*
X161400186Y-99359814D01*
X161483448Y-99461271D01*
X161512778Y-99497009D01*
X161512779Y-99497011D01*
X161596443Y-99653533D01*
X161596443Y-99653534D01*
X161647963Y-99823373D01*
X161665359Y-100000000D01*
X161647963Y-100176627D01*
X161613616Y-100289853D01*
X161596443Y-100346467D01*
X161522348Y-100485087D01*
X161512778Y-100502991D01*
X161483448Y-100538729D01*
X161400186Y-100640186D01*
X161298729Y-100723448D01*
X161262991Y-100752778D01*
X161262989Y-100752779D01*
X161106467Y-100836443D01*
X161049853Y-100853616D01*
X160936627Y-100887963D01*
X160870443Y-100894481D01*
X160804260Y-100901000D01*
X160715740Y-100901000D01*
X160649557Y-100894481D01*
X160583373Y-100887963D01*
X160470147Y-100853616D01*
X160413533Y-100836443D01*
X160257011Y-100752779D01*
X160257009Y-100752778D01*
X160221271Y-100723448D01*
X160119814Y-100640186D01*
X160036552Y-100538729D01*
X160007222Y-100502991D01*
X159997652Y-100485087D01*
X159923557Y-100346467D01*
X159906384Y-100289853D01*
X159872037Y-100176627D01*
X159854641Y-100000000D01*
X159872037Y-99823373D01*
X159923557Y-99653534D01*
X159923557Y-99653533D01*
X160007221Y-99497011D01*
X160007222Y-99497009D01*
X160036552Y-99461271D01*
X160119814Y-99359814D01*
X160221271Y-99276552D01*
X160257009Y-99247222D01*
X160274913Y-99237652D01*
X160413533Y-99163557D01*
X160470147Y-99146384D01*
X160583373Y-99112037D01*
X160649558Y-99105518D01*
X160715740Y-99099000D01*
X160804260Y-99099000D01*
X160870442Y-99105518D01*
X160870442Y-99105518D01*
G37*
G36*
X179441000Y-100901000D02*
X177639000Y-100901000D01*
X177639000Y-99099000D01*
X179441000Y-99099000D01*
X179441000Y-100901000D01*
X179441000Y-100901000D01*
G37*
M02*
