G04 #@! TF.GenerationSoftware,KiCad,Pcbnew,5.0.1*
G04 #@! TF.CreationDate,2019-03-06T14:29:28-06:00*
G04 #@! TF.ProjectId,CH552Devboard,4348353532446576626F6172642E6B69,rev?*
G04 #@! TF.SameCoordinates,Original*
G04 #@! TF.FileFunction,Copper,L2,Bot,Signal*
G04 #@! TF.FilePolarity,Positive*
%FSLAX46Y46*%
G04 Gerber Fmt 4.6, Leading zero omitted, Abs format (unit mm)*
G04 Created by KiCad (PCBNEW 5.0.1) date Wed 06 Mar 2019 02:29:28 PM CST*
%MOMM*%
%LPD*%
G01*
G04 APERTURE LIST*
G04 #@! TA.AperFunction,ComponentPad*
%ADD10R,1.000000X1.000000*%
G04 #@! TD*
G04 #@! TA.AperFunction,ComponentPad*
%ADD11R,1.700000X1.700000*%
G04 #@! TD*
G04 #@! TA.AperFunction,ComponentPad*
%ADD12O,1.700000X1.700000*%
G04 #@! TD*
G04 #@! TA.AperFunction,ViaPad*
%ADD13C,0.800000*%
G04 #@! TD*
G04 #@! TA.AperFunction,Conductor*
%ADD14C,0.250000*%
G04 #@! TD*
G04 #@! TA.AperFunction,Conductor*
%ADD15C,0.254000*%
G04 #@! TD*
G04 APERTURE END LIST*
D10*
G04 #@! TO.P,J1,1*
G04 #@! TO.N,D+*
X175400000Y-118000000D03*
G04 #@! TD*
D11*
G04 #@! TO.P,J3,1*
G04 #@! TO.N,RST*
X158200000Y-112980000D03*
D12*
G04 #@! TO.P,J3,2*
G04 #@! TO.N,VSS*
X158200000Y-115520000D03*
G04 #@! TO.P,J3,3*
G04 #@! TO.N,+3V3*
X158200000Y-118060000D03*
G04 #@! TO.P,J3,4*
G04 #@! TO.N,VCC*
X158200000Y-120600000D03*
G04 #@! TD*
D11*
G04 #@! TO.P,J4,1*
G04 #@! TO.N,P3.2*
X178540000Y-100000000D03*
D12*
G04 #@! TO.P,J4,2*
G04 #@! TO.N,P1.4*
X176000000Y-100000000D03*
G04 #@! TO.P,J4,3*
G04 #@! TO.N,P1.5*
X173460000Y-100000000D03*
G04 #@! TO.P,J4,4*
G04 #@! TO.N,P1.6*
X170920000Y-100000000D03*
G04 #@! TO.P,J4,5*
G04 #@! TO.N,P1.7*
X168380000Y-100000000D03*
G04 #@! TO.P,J4,6*
G04 #@! TO.N,P1.0*
X165840000Y-100000000D03*
G04 #@! TO.P,J4,7*
G04 #@! TO.N,P1.1*
X163300000Y-100000000D03*
G04 #@! TO.P,J4,8*
G04 #@! TO.N,P3.1*
X160760000Y-100000000D03*
G04 #@! TO.P,J4,9*
G04 #@! TO.N,P3.0*
X158220000Y-100000000D03*
G04 #@! TD*
D13*
G04 #@! TO.N,+3V3*
X177800000Y-119800000D03*
X160800000Y-112000000D03*
X172400000Y-113200000D03*
X172800000Y-111725000D03*
X173000000Y-107400000D03*
G04 #@! TO.N,VCC*
X170875000Y-115800000D03*
G04 #@! TO.N,VSS*
X178000000Y-106600000D03*
X178000000Y-113000000D03*
X176000000Y-115000000D03*
X171000000Y-117800000D03*
X169000000Y-120200000D03*
X161600000Y-118400000D03*
X161600000Y-120400000D03*
G04 #@! TO.N,D-*
X168275000Y-114000000D03*
X165987347Y-115787347D03*
G04 #@! TO.N,RST*
X167400000Y-108000000D03*
G04 #@! TO.N,Net-(R1-Pad1)*
X177200000Y-112000000D03*
X177000000Y-110000000D03*
G04 #@! TO.N,B3*
X169413811Y-113620186D03*
X158350000Y-104250000D03*
G04 #@! TD*
D14*
G04 #@! TO.N,*
X159484999Y-116884999D02*
X157115001Y-116884999D01*
X159600000Y-117000000D02*
X159484999Y-116884999D01*
X157115001Y-116884999D02*
X156800000Y-117200000D01*
X156800000Y-117200000D02*
X157320998Y-117200000D01*
G04 #@! TO.N,+3V3*
X172800000Y-107600000D02*
X173000000Y-107400000D01*
X172800000Y-111725000D02*
X172800000Y-107600000D01*
G04 #@! TO.N,VCC*
X170875000Y-115800000D02*
X170309315Y-115800000D01*
X170309315Y-115800000D02*
X168534316Y-117574999D01*
X168534316Y-117574999D02*
X161225001Y-117574999D01*
X161225001Y-117574999D02*
X159049999Y-119750001D01*
X159049999Y-119750001D02*
X158200000Y-120600000D01*
G04 #@! TO.N,VSS*
X178000000Y-113565685D02*
X178000000Y-113000000D01*
X176565685Y-115000000D02*
X178000000Y-113565685D01*
X176000000Y-115000000D02*
X176565685Y-115000000D01*
X178000000Y-106600000D02*
X178000000Y-113000000D01*
X169000000Y-119800000D02*
X169000000Y-120200000D01*
X171000000Y-117800000D02*
X169000000Y-119800000D01*
X161600000Y-118400000D02*
X161600000Y-120400000D01*
G04 #@! TO.N,D-*
X168275000Y-114000000D02*
X166487653Y-115787347D01*
X166487653Y-115787347D02*
X165987347Y-115787347D01*
G04 #@! TO.N,RST*
X158200000Y-111880000D02*
X158200000Y-112980000D01*
X162080000Y-108000000D02*
X158200000Y-111880000D01*
X167400000Y-108000000D02*
X162080000Y-108000000D01*
G04 #@! TO.N,Net-(R1-Pad1)*
X177200000Y-112000000D02*
X177200000Y-110200000D01*
X177200000Y-110200000D02*
X177000000Y-110000000D01*
G04 #@! TO.N,B3*
X157024999Y-108350003D02*
X158400000Y-106975002D01*
X169013812Y-113220187D02*
X160244815Y-113220187D01*
X169413811Y-113620186D02*
X169013812Y-113220187D01*
X160244815Y-113220187D02*
X159310001Y-114155001D01*
X159310001Y-114155001D02*
X157089999Y-114155001D01*
X157089999Y-114155001D02*
X157024999Y-114090001D01*
X157024999Y-114090001D02*
X157024999Y-108350003D01*
X158400000Y-106975002D02*
X158400000Y-104300000D01*
X158400000Y-104300000D02*
X158350000Y-104250000D01*
G04 #@! TD*
D15*
G04 #@! TO.N,+3V3*
G36*
X180829118Y-98729702D02*
X180853804Y-98746196D01*
X180870298Y-98770881D01*
X180890001Y-98869935D01*
X180890001Y-104399507D01*
X180685983Y-104315000D01*
X180314017Y-104315000D01*
X179970365Y-104457345D01*
X179707345Y-104720365D01*
X179565000Y-105064017D01*
X179565000Y-105435983D01*
X179707345Y-105779635D01*
X179970365Y-106042655D01*
X180314017Y-106185000D01*
X180685983Y-106185000D01*
X180890001Y-106100493D01*
X180890001Y-106599507D01*
X180685983Y-106515000D01*
X180314017Y-106515000D01*
X179970365Y-106657345D01*
X179707345Y-106920365D01*
X179565000Y-107264017D01*
X179565000Y-107635983D01*
X179707345Y-107979635D01*
X179970365Y-108242655D01*
X180314017Y-108385000D01*
X180685983Y-108385000D01*
X180890001Y-108300493D01*
X180890000Y-113199507D01*
X180685983Y-113115000D01*
X180314017Y-113115000D01*
X179970365Y-113257345D01*
X179707345Y-113520365D01*
X179565000Y-113864017D01*
X179565000Y-114235983D01*
X179707345Y-114579635D01*
X179970365Y-114842655D01*
X180314017Y-114985000D01*
X180685983Y-114985000D01*
X180890000Y-114900493D01*
X180890000Y-115399507D01*
X180685983Y-115315000D01*
X180314017Y-115315000D01*
X179970365Y-115457345D01*
X179707345Y-115720365D01*
X179565000Y-116064017D01*
X179565000Y-116435983D01*
X179707345Y-116779635D01*
X179970365Y-117042655D01*
X180314017Y-117185000D01*
X180685983Y-117185000D01*
X180890000Y-117100493D01*
X180890000Y-121730070D01*
X180870298Y-121829119D01*
X180853804Y-121853804D01*
X180829118Y-121870298D01*
X180730070Y-121890000D01*
X178500494Y-121890000D01*
X178585000Y-121685983D01*
X178585000Y-121314017D01*
X178442655Y-120970365D01*
X178179635Y-120707345D01*
X177835983Y-120565000D01*
X177464017Y-120565000D01*
X177120365Y-120707345D01*
X176857345Y-120970365D01*
X176715000Y-121314017D01*
X176715000Y-121685983D01*
X176799506Y-121890000D01*
X176300494Y-121890000D01*
X176385000Y-121685983D01*
X176385000Y-121314017D01*
X176242655Y-120970365D01*
X175979635Y-120707345D01*
X175635983Y-120565000D01*
X175264017Y-120565000D01*
X174920365Y-120707345D01*
X174657345Y-120970365D01*
X174515000Y-121314017D01*
X174515000Y-121685983D01*
X174599506Y-121890000D01*
X158942307Y-121890000D01*
X159270625Y-121670625D01*
X159598839Y-121179418D01*
X159714092Y-120600000D01*
X159641209Y-120233592D01*
X160805546Y-119069257D01*
X160840000Y-119103711D01*
X160840001Y-119696288D01*
X160722569Y-119813720D01*
X160565000Y-120194126D01*
X160565000Y-120605874D01*
X160722569Y-120986280D01*
X161013720Y-121277431D01*
X161394126Y-121435000D01*
X161805874Y-121435000D01*
X162186280Y-121277431D01*
X162477431Y-120986280D01*
X162635000Y-120605874D01*
X162635000Y-120194126D01*
X162477431Y-119813720D01*
X162360000Y-119696289D01*
X162360000Y-119103711D01*
X162477431Y-118986280D01*
X162635000Y-118605874D01*
X162635000Y-118334999D01*
X163518712Y-118334999D01*
X163649733Y-118651312D01*
X163898688Y-118900267D01*
X164223963Y-119035000D01*
X164576037Y-119035000D01*
X164901312Y-118900267D01*
X165150267Y-118651312D01*
X165281288Y-118334999D01*
X167518712Y-118334999D01*
X167649733Y-118651312D01*
X167898688Y-118900267D01*
X168223963Y-119035000D01*
X168576037Y-119035000D01*
X168770923Y-118954276D01*
X168515530Y-119209669D01*
X168452071Y-119252071D01*
X168387338Y-119348951D01*
X168122569Y-119613720D01*
X167965000Y-119994126D01*
X167965000Y-120405874D01*
X168122569Y-120786280D01*
X168413720Y-121077431D01*
X168794126Y-121235000D01*
X169205874Y-121235000D01*
X169586280Y-121077431D01*
X169877431Y-120786280D01*
X170035000Y-120405874D01*
X170035000Y-119994126D01*
X169989799Y-119885002D01*
X171039802Y-118835000D01*
X171205874Y-118835000D01*
X171586280Y-118677431D01*
X171877431Y-118386280D01*
X172035000Y-118005874D01*
X172035000Y-117594126D01*
X171996012Y-117500000D01*
X174252560Y-117500000D01*
X174252560Y-118500000D01*
X174301843Y-118747765D01*
X174442191Y-118957809D01*
X174652235Y-119098157D01*
X174900000Y-119147440D01*
X175900000Y-119147440D01*
X176147765Y-119098157D01*
X176357809Y-118957809D01*
X176498157Y-118747765D01*
X176547440Y-118500000D01*
X176547440Y-117500000D01*
X176498157Y-117252235D01*
X176357809Y-117042191D01*
X176147765Y-116901843D01*
X175900000Y-116852560D01*
X174900000Y-116852560D01*
X174652235Y-116901843D01*
X174442191Y-117042191D01*
X174301843Y-117252235D01*
X174252560Y-117500000D01*
X171996012Y-117500000D01*
X171877431Y-117213720D01*
X171586280Y-116922569D01*
X171227872Y-116774112D01*
X171461280Y-116677431D01*
X171752431Y-116386280D01*
X171910000Y-116005874D01*
X171910000Y-115594126D01*
X171752431Y-115213720D01*
X171461280Y-114922569D01*
X171151191Y-114794126D01*
X174965000Y-114794126D01*
X174965000Y-115205874D01*
X175122569Y-115586280D01*
X175413720Y-115877431D01*
X175794126Y-116035000D01*
X176205874Y-116035000D01*
X176586280Y-115877431D01*
X176719397Y-115744314D01*
X176862222Y-115715904D01*
X177113614Y-115547929D01*
X177156016Y-115484470D01*
X178484473Y-114156014D01*
X178547929Y-114113614D01*
X178647230Y-113965000D01*
X178715904Y-113862223D01*
X178729581Y-113793464D01*
X178744314Y-113719397D01*
X178877431Y-113586280D01*
X179035000Y-113205874D01*
X179035000Y-112794126D01*
X178877431Y-112413720D01*
X178760000Y-112296289D01*
X178760000Y-107303711D01*
X178877431Y-107186280D01*
X179035000Y-106805874D01*
X179035000Y-106394126D01*
X178877431Y-106013720D01*
X178586280Y-105722569D01*
X178205874Y-105565000D01*
X177794126Y-105565000D01*
X177413720Y-105722569D01*
X177122569Y-106013720D01*
X176965000Y-106394126D01*
X176965000Y-106805874D01*
X177122569Y-107186280D01*
X177240000Y-107303711D01*
X177240000Y-108979136D01*
X177205874Y-108965000D01*
X176794126Y-108965000D01*
X176413720Y-109122569D01*
X176122569Y-109413720D01*
X175965000Y-109794126D01*
X175965000Y-110205874D01*
X176122569Y-110586280D01*
X176413720Y-110877431D01*
X176440001Y-110888317D01*
X176440000Y-111296289D01*
X176322569Y-111413720D01*
X176165000Y-111794126D01*
X176165000Y-112205874D01*
X176322569Y-112586280D01*
X176613720Y-112877431D01*
X176965000Y-113022936D01*
X176965000Y-113205874D01*
X177058728Y-113432155D01*
X176432155Y-114058729D01*
X176205874Y-113965000D01*
X175794126Y-113965000D01*
X175413720Y-114122569D01*
X175122569Y-114413720D01*
X174965000Y-114794126D01*
X171151191Y-114794126D01*
X171080874Y-114765000D01*
X170669126Y-114765000D01*
X170288720Y-114922569D01*
X170155603Y-115055686D01*
X170076389Y-115071443D01*
X170012777Y-115084096D01*
X169837719Y-115201067D01*
X169761386Y-115252071D01*
X169718986Y-115315527D01*
X168219515Y-116814999D01*
X166210961Y-116814999D01*
X166573627Y-116664778D01*
X166722978Y-116515427D01*
X166784190Y-116503251D01*
X167035582Y-116335276D01*
X167077984Y-116271817D01*
X168314802Y-115035000D01*
X168480874Y-115035000D01*
X168861280Y-114877431D01*
X169119964Y-114618747D01*
X169207937Y-114655186D01*
X169619685Y-114655186D01*
X170000091Y-114497617D01*
X170291242Y-114206466D01*
X170448811Y-113826060D01*
X170448811Y-113414312D01*
X170291242Y-113033906D01*
X170000091Y-112742755D01*
X169619685Y-112585186D01*
X169431429Y-112585186D01*
X169310349Y-112504283D01*
X169088664Y-112460187D01*
X169088659Y-112460187D01*
X169013812Y-112445299D01*
X168938965Y-112460187D01*
X160319663Y-112460187D01*
X160244815Y-112445299D01*
X160169967Y-112460187D01*
X160169963Y-112460187D01*
X159948278Y-112504283D01*
X159697440Y-112671888D01*
X159697440Y-112130000D01*
X159648157Y-111882235D01*
X159507809Y-111672191D01*
X159492703Y-111662098D01*
X162394802Y-108760000D01*
X166696289Y-108760000D01*
X166813720Y-108877431D01*
X167194126Y-109035000D01*
X167605874Y-109035000D01*
X167986280Y-108877431D01*
X168277431Y-108586280D01*
X168435000Y-108205874D01*
X168435000Y-107794126D01*
X168277431Y-107413720D01*
X167986280Y-107122569D01*
X167605874Y-106965000D01*
X167194126Y-106965000D01*
X166813720Y-107122569D01*
X166696289Y-107240000D01*
X162154848Y-107240000D01*
X162080000Y-107225112D01*
X162005152Y-107240000D01*
X162005148Y-107240000D01*
X161783463Y-107284096D01*
X161532071Y-107452071D01*
X161489671Y-107515527D01*
X157784999Y-111220200D01*
X157784999Y-108664804D01*
X158884473Y-107565331D01*
X158947929Y-107522931D01*
X159115904Y-107271539D01*
X159160000Y-107049854D01*
X159160000Y-107049850D01*
X159174888Y-106975003D01*
X159160000Y-106900156D01*
X159160000Y-104903711D01*
X159227431Y-104836280D01*
X159385000Y-104455874D01*
X159385000Y-104044126D01*
X159227431Y-103663720D01*
X158936280Y-103372569D01*
X158555874Y-103215000D01*
X158144126Y-103215000D01*
X157763720Y-103372569D01*
X157472569Y-103663720D01*
X157315000Y-104044126D01*
X157315000Y-104227019D01*
X157285983Y-104215000D01*
X156914017Y-104215000D01*
X156710000Y-104299506D01*
X156710000Y-100020572D01*
X156821161Y-100579418D01*
X157149375Y-101070625D01*
X157640582Y-101398839D01*
X158073744Y-101485000D01*
X158366256Y-101485000D01*
X158799418Y-101398839D01*
X159290625Y-101070625D01*
X159490000Y-100772239D01*
X159689375Y-101070625D01*
X160180582Y-101398839D01*
X160613744Y-101485000D01*
X160906256Y-101485000D01*
X161339418Y-101398839D01*
X161830625Y-101070625D01*
X162030000Y-100772239D01*
X162229375Y-101070625D01*
X162720582Y-101398839D01*
X163153744Y-101485000D01*
X163446256Y-101485000D01*
X163879418Y-101398839D01*
X164370625Y-101070625D01*
X164570000Y-100772239D01*
X164769375Y-101070625D01*
X165260582Y-101398839D01*
X165693744Y-101485000D01*
X165986256Y-101485000D01*
X166419418Y-101398839D01*
X166910625Y-101070625D01*
X167110000Y-100772239D01*
X167309375Y-101070625D01*
X167800582Y-101398839D01*
X168233744Y-101485000D01*
X168526256Y-101485000D01*
X168959418Y-101398839D01*
X169450625Y-101070625D01*
X169650000Y-100772239D01*
X169849375Y-101070625D01*
X170340582Y-101398839D01*
X170773744Y-101485000D01*
X171066256Y-101485000D01*
X171499418Y-101398839D01*
X171990625Y-101070625D01*
X172190000Y-100772239D01*
X172389375Y-101070625D01*
X172880582Y-101398839D01*
X173313744Y-101485000D01*
X173606256Y-101485000D01*
X174039418Y-101398839D01*
X174530625Y-101070625D01*
X174730000Y-100772239D01*
X174929375Y-101070625D01*
X175420582Y-101398839D01*
X175853744Y-101485000D01*
X176146256Y-101485000D01*
X176579418Y-101398839D01*
X177070625Y-101070625D01*
X177082816Y-101052381D01*
X177091843Y-101097765D01*
X177232191Y-101307809D01*
X177442235Y-101448157D01*
X177690000Y-101497440D01*
X179390000Y-101497440D01*
X179637765Y-101448157D01*
X179847809Y-101307809D01*
X179988157Y-101097765D01*
X180037440Y-100850000D01*
X180037440Y-99150000D01*
X179988157Y-98902235D01*
X179859709Y-98710000D01*
X180730070Y-98710000D01*
X180829118Y-98729702D01*
X180829118Y-98729702D01*
G37*
X180829118Y-98729702D02*
X180853804Y-98746196D01*
X180870298Y-98770881D01*
X180890001Y-98869935D01*
X180890001Y-104399507D01*
X180685983Y-104315000D01*
X180314017Y-104315000D01*
X179970365Y-104457345D01*
X179707345Y-104720365D01*
X179565000Y-105064017D01*
X179565000Y-105435983D01*
X179707345Y-105779635D01*
X179970365Y-106042655D01*
X180314017Y-106185000D01*
X180685983Y-106185000D01*
X180890001Y-106100493D01*
X180890001Y-106599507D01*
X180685983Y-106515000D01*
X180314017Y-106515000D01*
X179970365Y-106657345D01*
X179707345Y-106920365D01*
X179565000Y-107264017D01*
X179565000Y-107635983D01*
X179707345Y-107979635D01*
X179970365Y-108242655D01*
X180314017Y-108385000D01*
X180685983Y-108385000D01*
X180890001Y-108300493D01*
X180890000Y-113199507D01*
X180685983Y-113115000D01*
X180314017Y-113115000D01*
X179970365Y-113257345D01*
X179707345Y-113520365D01*
X179565000Y-113864017D01*
X179565000Y-114235983D01*
X179707345Y-114579635D01*
X179970365Y-114842655D01*
X180314017Y-114985000D01*
X180685983Y-114985000D01*
X180890000Y-114900493D01*
X180890000Y-115399507D01*
X180685983Y-115315000D01*
X180314017Y-115315000D01*
X179970365Y-115457345D01*
X179707345Y-115720365D01*
X179565000Y-116064017D01*
X179565000Y-116435983D01*
X179707345Y-116779635D01*
X179970365Y-117042655D01*
X180314017Y-117185000D01*
X180685983Y-117185000D01*
X180890000Y-117100493D01*
X180890000Y-121730070D01*
X180870298Y-121829119D01*
X180853804Y-121853804D01*
X180829118Y-121870298D01*
X180730070Y-121890000D01*
X178500494Y-121890000D01*
X178585000Y-121685983D01*
X178585000Y-121314017D01*
X178442655Y-120970365D01*
X178179635Y-120707345D01*
X177835983Y-120565000D01*
X177464017Y-120565000D01*
X177120365Y-120707345D01*
X176857345Y-120970365D01*
X176715000Y-121314017D01*
X176715000Y-121685983D01*
X176799506Y-121890000D01*
X176300494Y-121890000D01*
X176385000Y-121685983D01*
X176385000Y-121314017D01*
X176242655Y-120970365D01*
X175979635Y-120707345D01*
X175635983Y-120565000D01*
X175264017Y-120565000D01*
X174920365Y-120707345D01*
X174657345Y-120970365D01*
X174515000Y-121314017D01*
X174515000Y-121685983D01*
X174599506Y-121890000D01*
X158942307Y-121890000D01*
X159270625Y-121670625D01*
X159598839Y-121179418D01*
X159714092Y-120600000D01*
X159641209Y-120233592D01*
X160805546Y-119069257D01*
X160840000Y-119103711D01*
X160840001Y-119696288D01*
X160722569Y-119813720D01*
X160565000Y-120194126D01*
X160565000Y-120605874D01*
X160722569Y-120986280D01*
X161013720Y-121277431D01*
X161394126Y-121435000D01*
X161805874Y-121435000D01*
X162186280Y-121277431D01*
X162477431Y-120986280D01*
X162635000Y-120605874D01*
X162635000Y-120194126D01*
X162477431Y-119813720D01*
X162360000Y-119696289D01*
X162360000Y-119103711D01*
X162477431Y-118986280D01*
X162635000Y-118605874D01*
X162635000Y-118334999D01*
X163518712Y-118334999D01*
X163649733Y-118651312D01*
X163898688Y-118900267D01*
X164223963Y-119035000D01*
X164576037Y-119035000D01*
X164901312Y-118900267D01*
X165150267Y-118651312D01*
X165281288Y-118334999D01*
X167518712Y-118334999D01*
X167649733Y-118651312D01*
X167898688Y-118900267D01*
X168223963Y-119035000D01*
X168576037Y-119035000D01*
X168770923Y-118954276D01*
X168515530Y-119209669D01*
X168452071Y-119252071D01*
X168387338Y-119348951D01*
X168122569Y-119613720D01*
X167965000Y-119994126D01*
X167965000Y-120405874D01*
X168122569Y-120786280D01*
X168413720Y-121077431D01*
X168794126Y-121235000D01*
X169205874Y-121235000D01*
X169586280Y-121077431D01*
X169877431Y-120786280D01*
X170035000Y-120405874D01*
X170035000Y-119994126D01*
X169989799Y-119885002D01*
X171039802Y-118835000D01*
X171205874Y-118835000D01*
X171586280Y-118677431D01*
X171877431Y-118386280D01*
X172035000Y-118005874D01*
X172035000Y-117594126D01*
X171996012Y-117500000D01*
X174252560Y-117500000D01*
X174252560Y-118500000D01*
X174301843Y-118747765D01*
X174442191Y-118957809D01*
X174652235Y-119098157D01*
X174900000Y-119147440D01*
X175900000Y-119147440D01*
X176147765Y-119098157D01*
X176357809Y-118957809D01*
X176498157Y-118747765D01*
X176547440Y-118500000D01*
X176547440Y-117500000D01*
X176498157Y-117252235D01*
X176357809Y-117042191D01*
X176147765Y-116901843D01*
X175900000Y-116852560D01*
X174900000Y-116852560D01*
X174652235Y-116901843D01*
X174442191Y-117042191D01*
X174301843Y-117252235D01*
X174252560Y-117500000D01*
X171996012Y-117500000D01*
X171877431Y-117213720D01*
X171586280Y-116922569D01*
X171227872Y-116774112D01*
X171461280Y-116677431D01*
X171752431Y-116386280D01*
X171910000Y-116005874D01*
X171910000Y-115594126D01*
X171752431Y-115213720D01*
X171461280Y-114922569D01*
X171151191Y-114794126D01*
X174965000Y-114794126D01*
X174965000Y-115205874D01*
X175122569Y-115586280D01*
X175413720Y-115877431D01*
X175794126Y-116035000D01*
X176205874Y-116035000D01*
X176586280Y-115877431D01*
X176719397Y-115744314D01*
X176862222Y-115715904D01*
X177113614Y-115547929D01*
X177156016Y-115484470D01*
X178484473Y-114156014D01*
X178547929Y-114113614D01*
X178647230Y-113965000D01*
X178715904Y-113862223D01*
X178729581Y-113793464D01*
X178744314Y-113719397D01*
X178877431Y-113586280D01*
X179035000Y-113205874D01*
X179035000Y-112794126D01*
X178877431Y-112413720D01*
X178760000Y-112296289D01*
X178760000Y-107303711D01*
X178877431Y-107186280D01*
X179035000Y-106805874D01*
X179035000Y-106394126D01*
X178877431Y-106013720D01*
X178586280Y-105722569D01*
X178205874Y-105565000D01*
X177794126Y-105565000D01*
X177413720Y-105722569D01*
X177122569Y-106013720D01*
X176965000Y-106394126D01*
X176965000Y-106805874D01*
X177122569Y-107186280D01*
X177240000Y-107303711D01*
X177240000Y-108979136D01*
X177205874Y-108965000D01*
X176794126Y-108965000D01*
X176413720Y-109122569D01*
X176122569Y-109413720D01*
X175965000Y-109794126D01*
X175965000Y-110205874D01*
X176122569Y-110586280D01*
X176413720Y-110877431D01*
X176440001Y-110888317D01*
X176440000Y-111296289D01*
X176322569Y-111413720D01*
X176165000Y-111794126D01*
X176165000Y-112205874D01*
X176322569Y-112586280D01*
X176613720Y-112877431D01*
X176965000Y-113022936D01*
X176965000Y-113205874D01*
X177058728Y-113432155D01*
X176432155Y-114058729D01*
X176205874Y-113965000D01*
X175794126Y-113965000D01*
X175413720Y-114122569D01*
X175122569Y-114413720D01*
X174965000Y-114794126D01*
X171151191Y-114794126D01*
X171080874Y-114765000D01*
X170669126Y-114765000D01*
X170288720Y-114922569D01*
X170155603Y-115055686D01*
X170076389Y-115071443D01*
X170012777Y-115084096D01*
X169837719Y-115201067D01*
X169761386Y-115252071D01*
X169718986Y-115315527D01*
X168219515Y-116814999D01*
X166210961Y-116814999D01*
X166573627Y-116664778D01*
X166722978Y-116515427D01*
X166784190Y-116503251D01*
X167035582Y-116335276D01*
X167077984Y-116271817D01*
X168314802Y-115035000D01*
X168480874Y-115035000D01*
X168861280Y-114877431D01*
X169119964Y-114618747D01*
X169207937Y-114655186D01*
X169619685Y-114655186D01*
X170000091Y-114497617D01*
X170291242Y-114206466D01*
X170448811Y-113826060D01*
X170448811Y-113414312D01*
X170291242Y-113033906D01*
X170000091Y-112742755D01*
X169619685Y-112585186D01*
X169431429Y-112585186D01*
X169310349Y-112504283D01*
X169088664Y-112460187D01*
X169088659Y-112460187D01*
X169013812Y-112445299D01*
X168938965Y-112460187D01*
X160319663Y-112460187D01*
X160244815Y-112445299D01*
X160169967Y-112460187D01*
X160169963Y-112460187D01*
X159948278Y-112504283D01*
X159697440Y-112671888D01*
X159697440Y-112130000D01*
X159648157Y-111882235D01*
X159507809Y-111672191D01*
X159492703Y-111662098D01*
X162394802Y-108760000D01*
X166696289Y-108760000D01*
X166813720Y-108877431D01*
X167194126Y-109035000D01*
X167605874Y-109035000D01*
X167986280Y-108877431D01*
X168277431Y-108586280D01*
X168435000Y-108205874D01*
X168435000Y-107794126D01*
X168277431Y-107413720D01*
X167986280Y-107122569D01*
X167605874Y-106965000D01*
X167194126Y-106965000D01*
X166813720Y-107122569D01*
X166696289Y-107240000D01*
X162154848Y-107240000D01*
X162080000Y-107225112D01*
X162005152Y-107240000D01*
X162005148Y-107240000D01*
X161783463Y-107284096D01*
X161532071Y-107452071D01*
X161489671Y-107515527D01*
X157784999Y-111220200D01*
X157784999Y-108664804D01*
X158884473Y-107565331D01*
X158947929Y-107522931D01*
X159115904Y-107271539D01*
X159160000Y-107049854D01*
X159160000Y-107049850D01*
X159174888Y-106975003D01*
X159160000Y-106900156D01*
X159160000Y-104903711D01*
X159227431Y-104836280D01*
X159385000Y-104455874D01*
X159385000Y-104044126D01*
X159227431Y-103663720D01*
X158936280Y-103372569D01*
X158555874Y-103215000D01*
X158144126Y-103215000D01*
X157763720Y-103372569D01*
X157472569Y-103663720D01*
X157315000Y-104044126D01*
X157315000Y-104227019D01*
X157285983Y-104215000D01*
X156914017Y-104215000D01*
X156710000Y-104299506D01*
X156710000Y-100020572D01*
X156821161Y-100579418D01*
X157149375Y-101070625D01*
X157640582Y-101398839D01*
X158073744Y-101485000D01*
X158366256Y-101485000D01*
X158799418Y-101398839D01*
X159290625Y-101070625D01*
X159490000Y-100772239D01*
X159689375Y-101070625D01*
X160180582Y-101398839D01*
X160613744Y-101485000D01*
X160906256Y-101485000D01*
X161339418Y-101398839D01*
X161830625Y-101070625D01*
X162030000Y-100772239D01*
X162229375Y-101070625D01*
X162720582Y-101398839D01*
X163153744Y-101485000D01*
X163446256Y-101485000D01*
X163879418Y-101398839D01*
X164370625Y-101070625D01*
X164570000Y-100772239D01*
X164769375Y-101070625D01*
X165260582Y-101398839D01*
X165693744Y-101485000D01*
X165986256Y-101485000D01*
X166419418Y-101398839D01*
X166910625Y-101070625D01*
X167110000Y-100772239D01*
X167309375Y-101070625D01*
X167800582Y-101398839D01*
X168233744Y-101485000D01*
X168526256Y-101485000D01*
X168959418Y-101398839D01*
X169450625Y-101070625D01*
X169650000Y-100772239D01*
X169849375Y-101070625D01*
X170340582Y-101398839D01*
X170773744Y-101485000D01*
X171066256Y-101485000D01*
X171499418Y-101398839D01*
X171990625Y-101070625D01*
X172190000Y-100772239D01*
X172389375Y-101070625D01*
X172880582Y-101398839D01*
X173313744Y-101485000D01*
X173606256Y-101485000D01*
X174039418Y-101398839D01*
X174530625Y-101070625D01*
X174730000Y-100772239D01*
X174929375Y-101070625D01*
X175420582Y-101398839D01*
X175853744Y-101485000D01*
X176146256Y-101485000D01*
X176579418Y-101398839D01*
X177070625Y-101070625D01*
X177082816Y-101052381D01*
X177091843Y-101097765D01*
X177232191Y-101307809D01*
X177442235Y-101448157D01*
X177690000Y-101497440D01*
X179390000Y-101497440D01*
X179637765Y-101448157D01*
X179847809Y-101307809D01*
X179988157Y-101097765D01*
X180037440Y-100850000D01*
X180037440Y-99150000D01*
X179988157Y-98902235D01*
X179859709Y-98710000D01*
X180730070Y-98710000D01*
X180829118Y-98729702D01*
G36*
X158327000Y-117933000D02*
X158347000Y-117933000D01*
X158347000Y-118187000D01*
X158327000Y-118187000D01*
X158327000Y-118207000D01*
X158073000Y-118207000D01*
X158073000Y-118187000D01*
X156879845Y-118187000D01*
X156758524Y-118416890D01*
X156928355Y-118826924D01*
X157318642Y-119255183D01*
X157448478Y-119316157D01*
X157129375Y-119529375D01*
X156801161Y-120020582D01*
X156710000Y-120478881D01*
X156710000Y-117956987D01*
X156725148Y-117960000D01*
X156725153Y-117960000D01*
X156800000Y-117974888D01*
X156874847Y-117960000D01*
X157395850Y-117960000D01*
X157531588Y-117933000D01*
X158073000Y-117933000D01*
X158073000Y-117913000D01*
X158327000Y-117913000D01*
X158327000Y-117933000D01*
X158327000Y-117933000D01*
G37*
X158327000Y-117933000D02*
X158347000Y-117933000D01*
X158347000Y-118187000D01*
X158327000Y-118187000D01*
X158327000Y-118207000D01*
X158073000Y-118207000D01*
X158073000Y-118187000D01*
X156879845Y-118187000D01*
X156758524Y-118416890D01*
X156928355Y-118826924D01*
X157318642Y-119255183D01*
X157448478Y-119316157D01*
X157129375Y-119529375D01*
X156801161Y-120020582D01*
X156710000Y-120478881D01*
X156710000Y-117956987D01*
X156725148Y-117960000D01*
X156725153Y-117960000D01*
X156800000Y-117974888D01*
X156874847Y-117960000D01*
X157395850Y-117960000D01*
X157531588Y-117933000D01*
X158073000Y-117933000D01*
X158073000Y-117913000D01*
X158327000Y-117913000D01*
X158327000Y-117933000D01*
G04 #@! TD*
M02*
