G04 #@! TF.GenerationSoftware,KiCad,Pcbnew,5.0.1*
G04 #@! TF.CreationDate,2019-03-06T14:29:28-06:00*
G04 #@! TF.ProjectId,CH552Devboard,4348353532446576626F6172642E6B69,rev?*
G04 #@! TF.SameCoordinates,Original*
G04 #@! TF.FileFunction,Paste,Top*
G04 #@! TF.FilePolarity,Positive*
%FSLAX46Y46*%
G04 Gerber Fmt 4.6, Leading zero omitted, Abs format (unit mm)*
G04 Created by KiCad (PCBNEW 5.0.1) date Wed 06 Mar 2019 02:29:28 PM CST*
%MOMM*%
%LPD*%
G01*
G04 APERTURE LIST*
%ADD10R,1.000000X1.250000*%
%ADD11R,1.200000X1.200000*%
%ADD12R,1.500000X1.400000*%
%ADD13R,0.400000X1.800000*%
%ADD14R,1.350000X1.500000*%
%ADD15R,1.100000X1.000000*%
%ADD16R,0.700000X1.300000*%
%ADD17R,1.524000X1.524000*%
%ADD18R,1.000000X2.000000*%
%ADD19R,0.450000X1.450000*%
%ADD20R,2.000000X1.000000*%
G04 APERTURE END LIST*
D10*
G04 #@! TO.C,C1*
X174400000Y-107000000D03*
X176400000Y-107000000D03*
G04 #@! TD*
G04 #@! TO.C,C2*
X174200000Y-113400000D03*
X176200000Y-113400000D03*
G04 #@! TD*
D11*
G04 #@! TO.C,D1*
X163000000Y-113000000D03*
X163000000Y-115200000D03*
G04 #@! TD*
G04 #@! TO.C,D2*
X162800000Y-104800000D03*
X162800000Y-107000000D03*
G04 #@! TD*
D12*
G04 #@! TO.C,J2*
X163150000Y-117700000D03*
X169650000Y-117700000D03*
D13*
X166400000Y-117500000D03*
X165750000Y-117500000D03*
X167050000Y-117500000D03*
X165100000Y-117500000D03*
X167700000Y-117500000D03*
D14*
X162325000Y-120370000D03*
X170475000Y-120370000D03*
D15*
X164900000Y-121550000D03*
X167900000Y-121550000D03*
G04 #@! TD*
D16*
G04 #@! TO.C,R1*
X176150000Y-110000000D03*
X174250000Y-110000000D03*
G04 #@! TD*
D17*
G04 #@! TO.C,SW3*
X180800000Y-111800000D03*
X180800000Y-118500000D03*
D18*
X179250000Y-113150000D03*
X179250000Y-117150000D03*
G04 #@! TD*
D19*
G04 #@! TO.C,U1*
X171450000Y-106500000D03*
X170800000Y-106500000D03*
X170150000Y-106500000D03*
X169500000Y-106500000D03*
X168850000Y-106500000D03*
X168200000Y-106500000D03*
X167550000Y-106500000D03*
X166900000Y-106500000D03*
X166250000Y-106500000D03*
X165600000Y-106500000D03*
X165600000Y-112400000D03*
X166250000Y-112400000D03*
X166900000Y-112400000D03*
X167550000Y-112400000D03*
X168200000Y-112400000D03*
X168850000Y-112400000D03*
X169500000Y-112400000D03*
X170150000Y-112400000D03*
X170800000Y-112400000D03*
X171450000Y-112400000D03*
G04 #@! TD*
D17*
G04 #@! TO.C,SW1 - Prog*
X179900000Y-121800000D03*
X173200000Y-121800000D03*
D20*
X178550000Y-120250000D03*
X174550000Y-120250000D03*
G04 #@! TD*
D18*
G04 #@! TO.C,SW2*
X158350000Y-104250000D03*
X158350000Y-108250000D03*
D17*
X156800000Y-102900000D03*
X156800000Y-109600000D03*
G04 #@! TD*
G04 #@! TO.C,SW4*
X180800000Y-103000000D03*
X180800000Y-109700000D03*
D18*
X179250000Y-104350000D03*
X179250000Y-108350000D03*
G04 #@! TD*
D16*
G04 #@! TO.C,R2*
X162300000Y-111200000D03*
X164200000Y-111200000D03*
G04 #@! TD*
G04 #@! TO.C,R3*
X164200000Y-109200000D03*
X162300000Y-109200000D03*
G04 #@! TD*
M02*
