G04 #@! TF.GenerationSoftware,KiCad,Pcbnew,5.0.1*
G04 #@! TF.CreationDate,2019-03-06T14:29:28-06:00*
G04 #@! TF.ProjectId,CH552Devboard,4348353532446576626F6172642E6B69,rev?*
G04 #@! TF.SameCoordinates,Original*
G04 #@! TF.FileFunction,Copper,L1,Top,Signal*
G04 #@! TF.FilePolarity,Positive*
%FSLAX46Y46*%
G04 Gerber Fmt 4.6, Leading zero omitted, Abs format (unit mm)*
G04 Created by KiCad (PCBNEW 5.0.1) date Wed 06 Mar 2019 02:29:28 PM CST*
%MOMM*%
%LPD*%
G01*
G04 APERTURE LIST*
G04 #@! TA.AperFunction,SMDPad,CuDef*
%ADD10R,1.000000X1.250000*%
G04 #@! TD*
G04 #@! TA.AperFunction,SMDPad,CuDef*
%ADD11R,1.200000X1.200000*%
G04 #@! TD*
G04 #@! TA.AperFunction,ComponentPad*
%ADD12R,1.000000X1.000000*%
G04 #@! TD*
G04 #@! TA.AperFunction,SMDPad,CuDef*
%ADD13R,1.500000X1.400000*%
G04 #@! TD*
G04 #@! TA.AperFunction,SMDPad,CuDef*
%ADD14R,0.400000X1.800000*%
G04 #@! TD*
G04 #@! TA.AperFunction,SMDPad,CuDef*
%ADD15R,1.350000X1.500000*%
G04 #@! TD*
G04 #@! TA.AperFunction,SMDPad,CuDef*
%ADD16R,1.100000X1.000000*%
G04 #@! TD*
G04 #@! TA.AperFunction,ComponentPad*
%ADD17R,1.700000X1.700000*%
G04 #@! TD*
G04 #@! TA.AperFunction,ComponentPad*
%ADD18O,1.700000X1.700000*%
G04 #@! TD*
G04 #@! TA.AperFunction,SMDPad,CuDef*
%ADD19R,0.700000X1.300000*%
G04 #@! TD*
G04 #@! TA.AperFunction,SMDPad,CuDef*
%ADD20R,1.524000X1.524000*%
G04 #@! TD*
G04 #@! TA.AperFunction,SMDPad,CuDef*
%ADD21R,1.000000X2.000000*%
G04 #@! TD*
G04 #@! TA.AperFunction,SMDPad,CuDef*
%ADD22R,0.450000X1.450000*%
G04 #@! TD*
G04 #@! TA.AperFunction,SMDPad,CuDef*
%ADD23R,2.000000X1.000000*%
G04 #@! TD*
G04 #@! TA.AperFunction,ViaPad*
%ADD24C,0.800000*%
G04 #@! TD*
G04 #@! TA.AperFunction,Conductor*
%ADD25C,0.250000*%
G04 #@! TD*
G04 #@! TA.AperFunction,Conductor*
%ADD26C,0.254000*%
G04 #@! TD*
G04 APERTURE END LIST*
D10*
G04 #@! TO.P,C1,1*
G04 #@! TO.N,+3V3*
X174400000Y-107000000D03*
G04 #@! TO.P,C1,2*
G04 #@! TO.N,VSS*
X176400000Y-107000000D03*
G04 #@! TD*
G04 #@! TO.P,C2,2*
G04 #@! TO.N,VCC*
X174200000Y-113400000D03*
G04 #@! TO.P,C2,1*
G04 #@! TO.N,VSS*
X176200000Y-113400000D03*
G04 #@! TD*
D11*
G04 #@! TO.P,D1,2*
G04 #@! TO.N,Net-(D1-Pad2)*
X163000000Y-113000000D03*
G04 #@! TO.P,D1,1*
G04 #@! TO.N,VSS*
X163000000Y-115200000D03*
G04 #@! TD*
G04 #@! TO.P,D2,1*
G04 #@! TO.N,VSS*
X162800000Y-104800000D03*
G04 #@! TO.P,D2,2*
G04 #@! TO.N,Net-(D2-Pad2)*
X162800000Y-107000000D03*
G04 #@! TD*
D12*
G04 #@! TO.P,J1,1*
G04 #@! TO.N,D+*
X175400000Y-118000000D03*
G04 #@! TD*
D13*
G04 #@! TO.P,J2,6*
G04 #@! TO.N,VSS*
X163150000Y-117700000D03*
X169650000Y-117700000D03*
D14*
G04 #@! TO.P,J2,3*
G04 #@! TO.N,D+*
X166400000Y-117500000D03*
G04 #@! TO.P,J2,2*
G04 #@! TO.N,D-*
X165750000Y-117500000D03*
G04 #@! TO.P,J2,4*
G04 #@! TO.N,Net-(J2-Pad4)*
X167050000Y-117500000D03*
G04 #@! TO.P,J2,1*
G04 #@! TO.N,VCC*
X165100000Y-117500000D03*
G04 #@! TO.P,J2,5*
G04 #@! TO.N,VSS*
X167700000Y-117500000D03*
D15*
G04 #@! TO.P,J2,6*
X162325000Y-120370000D03*
X170475000Y-120370000D03*
D16*
X164900000Y-121550000D03*
X167900000Y-121550000D03*
G04 #@! TD*
D17*
G04 #@! TO.P,J3,1*
G04 #@! TO.N,RST*
X158200000Y-112980000D03*
D18*
G04 #@! TO.P,J3,2*
G04 #@! TO.N,VSS*
X158200000Y-115520000D03*
G04 #@! TO.P,J3,3*
G04 #@! TO.N,+3V3*
X158200000Y-118060000D03*
G04 #@! TO.P,J3,4*
G04 #@! TO.N,VCC*
X158200000Y-120600000D03*
G04 #@! TD*
D19*
G04 #@! TO.P,R1,1*
G04 #@! TO.N,Net-(R1-Pad1)*
X176150000Y-110000000D03*
G04 #@! TO.P,R1,2*
G04 #@! TO.N,D+*
X174250000Y-110000000D03*
G04 #@! TD*
D20*
G04 #@! TO.P,SW3,3*
G04 #@! TO.N,N/C*
X180800000Y-111800000D03*
X180800000Y-118500000D03*
D21*
G04 #@! TO.P,SW3,1*
G04 #@! TO.N,B2*
X179250000Y-113150000D03*
G04 #@! TO.P,SW3,2*
G04 #@! TO.N,VSS*
X179250000Y-117150000D03*
G04 #@! TD*
D22*
G04 #@! TO.P,U1,1*
G04 #@! TO.N,P3.2*
X171450000Y-106500000D03*
G04 #@! TO.P,U1,2*
G04 #@! TO.N,P1.4*
X170800000Y-106500000D03*
G04 #@! TO.P,U1,3*
G04 #@! TO.N,P1.5*
X170150000Y-106500000D03*
G04 #@! TO.P,U1,4*
G04 #@! TO.N,P1.6*
X169500000Y-106500000D03*
G04 #@! TO.P,U1,5*
G04 #@! TO.N,P1.7*
X168850000Y-106500000D03*
G04 #@! TO.P,U1,6*
G04 #@! TO.N,RST*
X168200000Y-106500000D03*
G04 #@! TO.P,U1,7*
G04 #@! TO.N,P1.0*
X167550000Y-106500000D03*
G04 #@! TO.P,U1,8*
G04 #@! TO.N,P1.1*
X166900000Y-106500000D03*
G04 #@! TO.P,U1,9*
G04 #@! TO.N,P3.1*
X166250000Y-106500000D03*
G04 #@! TO.P,U1,10*
G04 #@! TO.N,P3.0*
X165600000Y-106500000D03*
G04 #@! TO.P,U1,11*
G04 #@! TO.N,Net-(R3-Pad2)*
X165600000Y-112400000D03*
G04 #@! TO.P,U1,12*
G04 #@! TO.N,B1*
X166250000Y-112400000D03*
G04 #@! TO.P,U1,13*
G04 #@! TO.N,Net-(R2-Pad2)*
X166900000Y-112400000D03*
G04 #@! TO.P,U1,14*
G04 #@! TO.N,D+*
X167550000Y-112400000D03*
G04 #@! TO.P,U1,15*
G04 #@! TO.N,D-*
X168200000Y-112400000D03*
G04 #@! TO.P,U1,16*
G04 #@! TO.N,B2*
X168850000Y-112400000D03*
G04 #@! TO.P,U1,17*
G04 #@! TO.N,B3*
X169500000Y-112400000D03*
G04 #@! TO.P,U1,18*
G04 #@! TO.N,VSS*
X170150000Y-112400000D03*
G04 #@! TO.P,U1,19*
G04 #@! TO.N,VCC*
X170800000Y-112400000D03*
G04 #@! TO.P,U1,20*
G04 #@! TO.N,+3V3*
X171450000Y-112400000D03*
G04 #@! TD*
D20*
G04 #@! TO.P,SW1 - Prog,3*
G04 #@! TO.N,N/C*
X179900000Y-121800000D03*
X173200000Y-121800000D03*
D23*
G04 #@! TO.P,SW1 - Prog,2*
G04 #@! TO.N,+3V3*
X178550000Y-120250000D03*
G04 #@! TO.P,SW1 - Prog,1*
G04 #@! TO.N,Net-(R1-Pad1)*
X174550000Y-120250000D03*
G04 #@! TD*
D21*
G04 #@! TO.P,SW2,1*
G04 #@! TO.N,B3*
X158350000Y-104250000D03*
G04 #@! TO.P,SW2,2*
G04 #@! TO.N,VSS*
X158350000Y-108250000D03*
D20*
G04 #@! TO.P,SW2,3*
G04 #@! TO.N,N/C*
X156800000Y-102900000D03*
X156800000Y-109600000D03*
G04 #@! TD*
G04 #@! TO.P,SW4,3*
G04 #@! TO.N,N/C*
X180800000Y-103000000D03*
X180800000Y-109700000D03*
D21*
G04 #@! TO.P,SW4,2*
G04 #@! TO.N,VSS*
X179250000Y-104350000D03*
G04 #@! TO.P,SW4,1*
G04 #@! TO.N,B1*
X179250000Y-108350000D03*
G04 #@! TD*
D17*
G04 #@! TO.P,J4,1*
G04 #@! TO.N,P3.2*
X178540000Y-100000000D03*
D18*
G04 #@! TO.P,J4,2*
G04 #@! TO.N,P1.4*
X176000000Y-100000000D03*
G04 #@! TO.P,J4,3*
G04 #@! TO.N,P1.5*
X173460000Y-100000000D03*
G04 #@! TO.P,J4,4*
G04 #@! TO.N,P1.6*
X170920000Y-100000000D03*
G04 #@! TO.P,J4,5*
G04 #@! TO.N,P1.7*
X168380000Y-100000000D03*
G04 #@! TO.P,J4,6*
G04 #@! TO.N,P1.0*
X165840000Y-100000000D03*
G04 #@! TO.P,J4,7*
G04 #@! TO.N,P1.1*
X163300000Y-100000000D03*
G04 #@! TO.P,J4,8*
G04 #@! TO.N,P3.1*
X160760000Y-100000000D03*
G04 #@! TO.P,J4,9*
G04 #@! TO.N,P3.0*
X158220000Y-100000000D03*
G04 #@! TD*
D19*
G04 #@! TO.P,R2,1*
G04 #@! TO.N,Net-(D1-Pad2)*
X162300000Y-111200000D03*
G04 #@! TO.P,R2,2*
G04 #@! TO.N,Net-(R2-Pad2)*
X164200000Y-111200000D03*
G04 #@! TD*
G04 #@! TO.P,R3,2*
G04 #@! TO.N,Net-(R3-Pad2)*
X164200000Y-109200000D03*
G04 #@! TO.P,R3,1*
G04 #@! TO.N,Net-(D2-Pad2)*
X162300000Y-109200000D03*
G04 #@! TD*
D24*
G04 #@! TO.N,+3V3*
X177800000Y-119800000D03*
X160800000Y-112000000D03*
X172400000Y-113200000D03*
X172800000Y-111725000D03*
X173000000Y-107400000D03*
G04 #@! TO.N,VCC*
X170875000Y-115800000D03*
G04 #@! TO.N,VSS*
X178000000Y-106600000D03*
X178000000Y-113000000D03*
X176000000Y-115000000D03*
X171000000Y-117800000D03*
X169000000Y-120200000D03*
X161600000Y-118400000D03*
X161600000Y-120400000D03*
G04 #@! TO.N,D-*
X168275000Y-114000000D03*
X165987347Y-115787347D03*
G04 #@! TO.N,RST*
X167400000Y-108000000D03*
G04 #@! TO.N,Net-(R1-Pad1)*
X177200000Y-112000000D03*
X177000000Y-110000000D03*
G04 #@! TO.N,B3*
X169413811Y-113620186D03*
X158350000Y-104250000D03*
G04 #@! TD*
D25*
G04 #@! TO.N,+3V3*
X160800000Y-115460000D02*
X158200000Y-118060000D01*
X160800000Y-112000000D02*
X160800000Y-115460000D01*
X171834315Y-113200000D02*
X171484325Y-112850010D01*
X172400000Y-113200000D02*
X171834315Y-113200000D01*
X174000000Y-107000000D02*
X174200000Y-107000000D01*
X173400000Y-107000000D02*
X174000000Y-107000000D01*
X173000000Y-107400000D02*
X173400000Y-107000000D01*
X172125000Y-112400000D02*
X172800000Y-111725000D01*
X171450000Y-112400000D02*
X172125000Y-112400000D01*
G04 #@! TO.N,VCC*
X174200000Y-113525000D02*
X174200000Y-113400000D01*
X171700000Y-114275000D02*
X173450000Y-114275000D01*
X173450000Y-114275000D02*
X174200000Y-113525000D01*
X170800000Y-113375000D02*
X171700000Y-114275000D01*
X170800000Y-112400000D02*
X170800000Y-113375000D01*
X164455001Y-119294999D02*
X159505001Y-119294999D01*
X159049999Y-119750001D02*
X158200000Y-120600000D01*
X165100000Y-118650000D02*
X164455001Y-119294999D01*
X159505001Y-119294999D02*
X159049999Y-119750001D01*
X165100000Y-117500000D02*
X165100000Y-118650000D01*
X170875000Y-112475000D02*
X170800000Y-112400000D01*
X170875000Y-115800000D02*
X170875000Y-112475000D01*
G04 #@! TO.N,Net-(D1-Pad2)*
X163000000Y-112963590D02*
X163018205Y-112981795D01*
X163000000Y-112800000D02*
X163000000Y-112963590D01*
X162300000Y-112100000D02*
X163000000Y-112800000D01*
X162300000Y-111200000D02*
X162300000Y-112100000D01*
G04 #@! TO.N,VSS*
X176200000Y-113400000D02*
X176200000Y-113525000D01*
X170150000Y-117200000D02*
X169650000Y-117700000D01*
X170150000Y-112400000D02*
X170150000Y-117200000D01*
X169450000Y-117500000D02*
X169650000Y-117700000D01*
X167700000Y-117500000D02*
X169450000Y-117500000D01*
X162800000Y-114250000D02*
X162800000Y-113400000D01*
X162800000Y-115199002D02*
X162800000Y-114250000D01*
X157635999Y-119235001D02*
X158764001Y-119235001D01*
X157024999Y-118624001D02*
X157635999Y-119235001D01*
X157024999Y-111948003D02*
X157024999Y-118624001D01*
X158350000Y-110623002D02*
X157024999Y-111948003D01*
X158764001Y-119235001D02*
X162800000Y-115199002D01*
X158350000Y-108250000D02*
X158350000Y-110623002D01*
X158350000Y-109500000D02*
X158350000Y-108250000D01*
X159375001Y-110525001D02*
X158350000Y-109500000D01*
X159375001Y-114344999D02*
X159375001Y-110525001D01*
X158200000Y-115520000D02*
X159375001Y-114344999D01*
G04 #@! TO.N,Net-(D2-Pad2)*
X162300000Y-107500000D02*
X162800000Y-107000000D01*
X162300000Y-109200000D02*
X162300000Y-107500000D01*
G04 #@! TO.N,D+*
X166275001Y-117375001D02*
X166400000Y-117500000D01*
X166275001Y-116524999D02*
X166275001Y-117375001D01*
X167550000Y-114348002D02*
X168200000Y-114998002D01*
X167550000Y-112400000D02*
X167550000Y-114348002D01*
X168200000Y-114998002D02*
X168200000Y-115400000D01*
X166400000Y-116464998D02*
X166400000Y-117500000D01*
X167464998Y-115400000D02*
X166400000Y-116464998D01*
X168200000Y-115400000D02*
X167464998Y-115400000D01*
X175400000Y-118800000D02*
X175400000Y-118000000D01*
X175000000Y-119200000D02*
X175400000Y-118800000D01*
X166950000Y-119200000D02*
X175000000Y-119200000D01*
X166400000Y-117500000D02*
X166400000Y-118650000D01*
X166400000Y-118650000D02*
X166950000Y-119200000D01*
X168975000Y-110000000D02*
X173650000Y-110000000D01*
X173650000Y-110000000D02*
X174250000Y-110000000D01*
X167550000Y-111425000D02*
X168975000Y-110000000D01*
X167550000Y-112400000D02*
X167550000Y-111425000D01*
G04 #@! TO.N,D-*
X168200000Y-112400000D02*
X168200000Y-113925000D01*
X168200000Y-113925000D02*
X168275000Y-114000000D01*
X165750000Y-116024694D02*
X165750000Y-117500000D01*
X165987347Y-115787347D02*
X165750000Y-116024694D01*
G04 #@! TO.N,RST*
X167675000Y-108000000D02*
X167400000Y-108000000D01*
X168200000Y-106500000D02*
X168200000Y-107475000D01*
X168200000Y-107475000D02*
X167675000Y-108000000D01*
G04 #@! TO.N,P3.2*
X178425000Y-100000000D02*
X178540000Y-100000000D01*
X171925000Y-106500000D02*
X178425000Y-100000000D01*
X171450000Y-106500000D02*
X171925000Y-106500000D01*
G04 #@! TO.N,P1.4*
X170800000Y-105200000D02*
X176000000Y-100000000D01*
X170800000Y-106500000D02*
X170800000Y-105200000D01*
G04 #@! TO.N,P1.5*
X170150000Y-103310000D02*
X173460000Y-100000000D01*
X170150000Y-106500000D02*
X170150000Y-103310000D01*
G04 #@! TO.N,P1.6*
X169500000Y-101420000D02*
X170920000Y-100000000D01*
X169500000Y-106500000D02*
X169500000Y-101420000D01*
G04 #@! TO.N,P1.7*
X168850000Y-100470000D02*
X168380000Y-100000000D01*
X168850000Y-106500000D02*
X168850000Y-100470000D01*
G04 #@! TO.N,P3.0*
X159069999Y-100849999D02*
X158220000Y-100000000D01*
X159395001Y-101175001D02*
X159069999Y-100849999D01*
X161250001Y-101175001D02*
X159395001Y-101175001D01*
X165600000Y-105525000D02*
X161250001Y-101175001D01*
X165600000Y-106500000D02*
X165600000Y-105525000D01*
G04 #@! TO.N,P3.1*
X166150001Y-106400001D02*
X166250000Y-106500000D01*
X166150001Y-105390001D02*
X166150001Y-106400001D01*
X160760000Y-100000000D02*
X166150001Y-105390001D01*
G04 #@! TO.N,P1.1*
X164149999Y-100849999D02*
X163300000Y-100000000D01*
X166600011Y-103300011D02*
X164149999Y-100849999D01*
X166600011Y-105400000D02*
X166600011Y-103300011D01*
X166900000Y-105699989D02*
X166600011Y-105400000D01*
X166900000Y-106500000D02*
X166900000Y-105699989D01*
G04 #@! TO.N,P1.0*
X167550000Y-101710000D02*
X167550000Y-106500000D01*
X165840000Y-100000000D02*
X167550000Y-101710000D01*
G04 #@! TO.N,Net-(R1-Pad1)*
X177200000Y-117785002D02*
X177200000Y-112000000D01*
X174550000Y-120250000D02*
X175050000Y-120250000D01*
X177200000Y-118100000D02*
X177200000Y-117785002D01*
X175050000Y-120250000D02*
X177200000Y-118100000D01*
X177000000Y-110000000D02*
X176150000Y-110000000D01*
G04 #@! TO.N,B3*
X169500000Y-112400000D02*
X169500000Y-113533997D01*
X169500000Y-113533997D02*
X169413811Y-113620186D01*
G04 #@! TO.N,B2*
X168850000Y-111425000D02*
X169275000Y-111000000D01*
X168850000Y-112400000D02*
X168850000Y-111425000D01*
X179250000Y-112650000D02*
X179250000Y-113150000D01*
X177600000Y-111000000D02*
X179250000Y-112650000D01*
X169275000Y-111000000D02*
X177600000Y-111000000D01*
G04 #@! TO.N,B1*
X169325000Y-108350000D02*
X178500000Y-108350000D01*
X166250000Y-111425000D02*
X169325000Y-108350000D01*
X178500000Y-108350000D02*
X179250000Y-108350000D01*
X166250000Y-112400000D02*
X166250000Y-111425000D01*
G04 #@! TO.N,Net-(R2-Pad2)*
X166824999Y-113450001D02*
X166900000Y-113375000D01*
X165050001Y-113450001D02*
X166824999Y-113450001D01*
X166900000Y-113375000D02*
X166900000Y-112400000D01*
X164200000Y-112600000D02*
X164200000Y-111200000D01*
X165050001Y-113450001D02*
X164200000Y-112600000D01*
G04 #@! TO.N,Net-(R3-Pad2)*
X164200000Y-109500000D02*
X164200000Y-109200000D01*
X165600000Y-110900000D02*
X164200000Y-109500000D01*
X165600000Y-112400000D02*
X165600000Y-110900000D01*
G04 #@! TD*
D26*
G04 #@! TO.N,VSS*
G36*
X165796661Y-119115000D02*
X165852072Y-119197929D01*
X165915527Y-119240328D01*
X166359672Y-119684475D01*
X166402071Y-119747929D01*
X166465524Y-119790327D01*
X166465526Y-119790329D01*
X166570032Y-119860157D01*
X166653463Y-119915904D01*
X166875148Y-119960000D01*
X166875152Y-119960000D01*
X166949999Y-119974888D01*
X167024846Y-119960000D01*
X169165000Y-119960000D01*
X169165000Y-120084250D01*
X169323750Y-120243000D01*
X170348000Y-120243000D01*
X170348000Y-120223000D01*
X170602000Y-120223000D01*
X170602000Y-120243000D01*
X171626250Y-120243000D01*
X171785000Y-120084250D01*
X171785000Y-119960000D01*
X172902560Y-119960000D01*
X172902560Y-120390560D01*
X172438000Y-120390560D01*
X172190235Y-120439843D01*
X171980191Y-120580191D01*
X171839843Y-120790235D01*
X171790560Y-121038000D01*
X171790560Y-121890000D01*
X169085000Y-121890000D01*
X169085000Y-121835750D01*
X168926250Y-121677000D01*
X168027000Y-121677000D01*
X168027000Y-121697000D01*
X167773000Y-121697000D01*
X167773000Y-121677000D01*
X166873750Y-121677000D01*
X166715000Y-121835750D01*
X166715000Y-121890000D01*
X166085000Y-121890000D01*
X166085000Y-121835750D01*
X165926250Y-121677000D01*
X165027000Y-121677000D01*
X165027000Y-121697000D01*
X164773000Y-121697000D01*
X164773000Y-121677000D01*
X163873750Y-121677000D01*
X163715000Y-121835750D01*
X163715000Y-121890000D01*
X158942307Y-121890000D01*
X159270625Y-121670625D01*
X159598839Y-121179418D01*
X159703002Y-120655750D01*
X161015000Y-120655750D01*
X161015000Y-121246310D01*
X161111673Y-121479699D01*
X161290302Y-121658327D01*
X161523691Y-121755000D01*
X162039250Y-121755000D01*
X162198000Y-121596250D01*
X162198000Y-120497000D01*
X162452000Y-120497000D01*
X162452000Y-121596250D01*
X162610750Y-121755000D01*
X163126309Y-121755000D01*
X163359698Y-121658327D01*
X163538327Y-121479699D01*
X163635000Y-121246310D01*
X163635000Y-120923690D01*
X163715000Y-120923690D01*
X163715000Y-121264250D01*
X163873750Y-121423000D01*
X164773000Y-121423000D01*
X164773000Y-120573750D01*
X165027000Y-120573750D01*
X165027000Y-121423000D01*
X165926250Y-121423000D01*
X166085000Y-121264250D01*
X166085000Y-120923690D01*
X166715000Y-120923690D01*
X166715000Y-121264250D01*
X166873750Y-121423000D01*
X167773000Y-121423000D01*
X167773000Y-120573750D01*
X168027000Y-120573750D01*
X168027000Y-121423000D01*
X168926250Y-121423000D01*
X169085000Y-121264250D01*
X169085000Y-120923690D01*
X168988327Y-120690301D01*
X168953776Y-120655750D01*
X169165000Y-120655750D01*
X169165000Y-121246310D01*
X169261673Y-121479699D01*
X169440302Y-121658327D01*
X169673691Y-121755000D01*
X170189250Y-121755000D01*
X170348000Y-121596250D01*
X170348000Y-120497000D01*
X170602000Y-120497000D01*
X170602000Y-121596250D01*
X170760750Y-121755000D01*
X171276309Y-121755000D01*
X171509698Y-121658327D01*
X171688327Y-121479699D01*
X171785000Y-121246310D01*
X171785000Y-120655750D01*
X171626250Y-120497000D01*
X170602000Y-120497000D01*
X170348000Y-120497000D01*
X169323750Y-120497000D01*
X169165000Y-120655750D01*
X168953776Y-120655750D01*
X168809698Y-120511673D01*
X168576309Y-120415000D01*
X168185750Y-120415000D01*
X168027000Y-120573750D01*
X167773000Y-120573750D01*
X167614250Y-120415000D01*
X167223691Y-120415000D01*
X166990302Y-120511673D01*
X166811673Y-120690301D01*
X166715000Y-120923690D01*
X166085000Y-120923690D01*
X165988327Y-120690301D01*
X165809698Y-120511673D01*
X165576309Y-120415000D01*
X165185750Y-120415000D01*
X165027000Y-120573750D01*
X164773000Y-120573750D01*
X164614250Y-120415000D01*
X164223691Y-120415000D01*
X163990302Y-120511673D01*
X163811673Y-120690301D01*
X163715000Y-120923690D01*
X163635000Y-120923690D01*
X163635000Y-120655750D01*
X163476250Y-120497000D01*
X162452000Y-120497000D01*
X162198000Y-120497000D01*
X161173750Y-120497000D01*
X161015000Y-120655750D01*
X159703002Y-120655750D01*
X159714092Y-120600000D01*
X159641209Y-120233592D01*
X159819802Y-120054999D01*
X161015000Y-120054999D01*
X161015000Y-120084250D01*
X161173750Y-120243000D01*
X162198000Y-120243000D01*
X162198000Y-120223000D01*
X162452000Y-120223000D01*
X162452000Y-120243000D01*
X163476250Y-120243000D01*
X163635000Y-120084250D01*
X163635000Y-120054999D01*
X164380154Y-120054999D01*
X164455001Y-120069887D01*
X164529848Y-120054999D01*
X164529853Y-120054999D01*
X164751538Y-120010903D01*
X165002930Y-119842928D01*
X165045331Y-119779470D01*
X165584475Y-119240328D01*
X165647929Y-119197929D01*
X165690327Y-119134476D01*
X165690329Y-119134474D01*
X165748483Y-119047440D01*
X165751518Y-119047440D01*
X165796661Y-119115000D01*
X165796661Y-119115000D01*
G37*
X165796661Y-119115000D02*
X165852072Y-119197929D01*
X165915527Y-119240328D01*
X166359672Y-119684475D01*
X166402071Y-119747929D01*
X166465524Y-119790327D01*
X166465526Y-119790329D01*
X166570032Y-119860157D01*
X166653463Y-119915904D01*
X166875148Y-119960000D01*
X166875152Y-119960000D01*
X166949999Y-119974888D01*
X167024846Y-119960000D01*
X169165000Y-119960000D01*
X169165000Y-120084250D01*
X169323750Y-120243000D01*
X170348000Y-120243000D01*
X170348000Y-120223000D01*
X170602000Y-120223000D01*
X170602000Y-120243000D01*
X171626250Y-120243000D01*
X171785000Y-120084250D01*
X171785000Y-119960000D01*
X172902560Y-119960000D01*
X172902560Y-120390560D01*
X172438000Y-120390560D01*
X172190235Y-120439843D01*
X171980191Y-120580191D01*
X171839843Y-120790235D01*
X171790560Y-121038000D01*
X171790560Y-121890000D01*
X169085000Y-121890000D01*
X169085000Y-121835750D01*
X168926250Y-121677000D01*
X168027000Y-121677000D01*
X168027000Y-121697000D01*
X167773000Y-121697000D01*
X167773000Y-121677000D01*
X166873750Y-121677000D01*
X166715000Y-121835750D01*
X166715000Y-121890000D01*
X166085000Y-121890000D01*
X166085000Y-121835750D01*
X165926250Y-121677000D01*
X165027000Y-121677000D01*
X165027000Y-121697000D01*
X164773000Y-121697000D01*
X164773000Y-121677000D01*
X163873750Y-121677000D01*
X163715000Y-121835750D01*
X163715000Y-121890000D01*
X158942307Y-121890000D01*
X159270625Y-121670625D01*
X159598839Y-121179418D01*
X159703002Y-120655750D01*
X161015000Y-120655750D01*
X161015000Y-121246310D01*
X161111673Y-121479699D01*
X161290302Y-121658327D01*
X161523691Y-121755000D01*
X162039250Y-121755000D01*
X162198000Y-121596250D01*
X162198000Y-120497000D01*
X162452000Y-120497000D01*
X162452000Y-121596250D01*
X162610750Y-121755000D01*
X163126309Y-121755000D01*
X163359698Y-121658327D01*
X163538327Y-121479699D01*
X163635000Y-121246310D01*
X163635000Y-120923690D01*
X163715000Y-120923690D01*
X163715000Y-121264250D01*
X163873750Y-121423000D01*
X164773000Y-121423000D01*
X164773000Y-120573750D01*
X165027000Y-120573750D01*
X165027000Y-121423000D01*
X165926250Y-121423000D01*
X166085000Y-121264250D01*
X166085000Y-120923690D01*
X166715000Y-120923690D01*
X166715000Y-121264250D01*
X166873750Y-121423000D01*
X167773000Y-121423000D01*
X167773000Y-120573750D01*
X168027000Y-120573750D01*
X168027000Y-121423000D01*
X168926250Y-121423000D01*
X169085000Y-121264250D01*
X169085000Y-120923690D01*
X168988327Y-120690301D01*
X168953776Y-120655750D01*
X169165000Y-120655750D01*
X169165000Y-121246310D01*
X169261673Y-121479699D01*
X169440302Y-121658327D01*
X169673691Y-121755000D01*
X170189250Y-121755000D01*
X170348000Y-121596250D01*
X170348000Y-120497000D01*
X170602000Y-120497000D01*
X170602000Y-121596250D01*
X170760750Y-121755000D01*
X171276309Y-121755000D01*
X171509698Y-121658327D01*
X171688327Y-121479699D01*
X171785000Y-121246310D01*
X171785000Y-120655750D01*
X171626250Y-120497000D01*
X170602000Y-120497000D01*
X170348000Y-120497000D01*
X169323750Y-120497000D01*
X169165000Y-120655750D01*
X168953776Y-120655750D01*
X168809698Y-120511673D01*
X168576309Y-120415000D01*
X168185750Y-120415000D01*
X168027000Y-120573750D01*
X167773000Y-120573750D01*
X167614250Y-120415000D01*
X167223691Y-120415000D01*
X166990302Y-120511673D01*
X166811673Y-120690301D01*
X166715000Y-120923690D01*
X166085000Y-120923690D01*
X165988327Y-120690301D01*
X165809698Y-120511673D01*
X165576309Y-120415000D01*
X165185750Y-120415000D01*
X165027000Y-120573750D01*
X164773000Y-120573750D01*
X164614250Y-120415000D01*
X164223691Y-120415000D01*
X163990302Y-120511673D01*
X163811673Y-120690301D01*
X163715000Y-120923690D01*
X163635000Y-120923690D01*
X163635000Y-120655750D01*
X163476250Y-120497000D01*
X162452000Y-120497000D01*
X162198000Y-120497000D01*
X161173750Y-120497000D01*
X161015000Y-120655750D01*
X159703002Y-120655750D01*
X159714092Y-120600000D01*
X159641209Y-120233592D01*
X159819802Y-120054999D01*
X161015000Y-120054999D01*
X161015000Y-120084250D01*
X161173750Y-120243000D01*
X162198000Y-120243000D01*
X162198000Y-120223000D01*
X162452000Y-120223000D01*
X162452000Y-120243000D01*
X163476250Y-120243000D01*
X163635000Y-120084250D01*
X163635000Y-120054999D01*
X164380154Y-120054999D01*
X164455001Y-120069887D01*
X164529848Y-120054999D01*
X164529853Y-120054999D01*
X164751538Y-120010903D01*
X165002930Y-119842928D01*
X165045331Y-119779470D01*
X165584475Y-119240328D01*
X165647929Y-119197929D01*
X165690327Y-119134476D01*
X165690329Y-119134474D01*
X165748483Y-119047440D01*
X165751518Y-119047440D01*
X165796661Y-119115000D01*
G36*
X156801161Y-118639418D02*
X157129375Y-119130625D01*
X157427761Y-119330000D01*
X157129375Y-119529375D01*
X156801161Y-120020582D01*
X156710000Y-120478881D01*
X156710000Y-118181119D01*
X156801161Y-118639418D01*
X156801161Y-118639418D01*
G37*
X156801161Y-118639418D02*
X157129375Y-119130625D01*
X157427761Y-119330000D01*
X157129375Y-119529375D01*
X156801161Y-120020582D01*
X156710000Y-120478881D01*
X156710000Y-118181119D01*
X156801161Y-118639418D01*
G36*
X178102560Y-112577362D02*
X178102560Y-114150000D01*
X178151843Y-114397765D01*
X178292191Y-114607809D01*
X178502235Y-114748157D01*
X178750000Y-114797440D01*
X179750000Y-114797440D01*
X179896091Y-114768381D01*
X179970365Y-114842655D01*
X180314017Y-114985000D01*
X180685983Y-114985000D01*
X180890000Y-114900493D01*
X180890000Y-115399507D01*
X180685983Y-115315000D01*
X180314017Y-115315000D01*
X179970365Y-115457345D01*
X179902049Y-115525661D01*
X179876310Y-115515000D01*
X179535750Y-115515000D01*
X179377000Y-115673750D01*
X179377000Y-117023000D01*
X179397000Y-117023000D01*
X179397000Y-117277000D01*
X179377000Y-117277000D01*
X179377000Y-118626250D01*
X179390560Y-118639810D01*
X179390560Y-119102560D01*
X178566271Y-119102560D01*
X178386280Y-118922569D01*
X178005874Y-118765000D01*
X177609802Y-118765000D01*
X177684473Y-118690329D01*
X177747929Y-118647929D01*
X177915904Y-118396537D01*
X177960000Y-118174852D01*
X177960000Y-118174848D01*
X177974888Y-118100001D01*
X177960000Y-118025154D01*
X177960000Y-117435750D01*
X178115000Y-117435750D01*
X178115000Y-118276309D01*
X178211673Y-118509698D01*
X178390301Y-118688327D01*
X178623690Y-118785000D01*
X178964250Y-118785000D01*
X179123000Y-118626250D01*
X179123000Y-117277000D01*
X178273750Y-117277000D01*
X178115000Y-117435750D01*
X177960000Y-117435750D01*
X177960000Y-116023691D01*
X178115000Y-116023691D01*
X178115000Y-116864250D01*
X178273750Y-117023000D01*
X179123000Y-117023000D01*
X179123000Y-115673750D01*
X178964250Y-115515000D01*
X178623690Y-115515000D01*
X178390301Y-115611673D01*
X178211673Y-115790302D01*
X178115000Y-116023691D01*
X177960000Y-116023691D01*
X177960000Y-112703711D01*
X178077431Y-112586280D01*
X178087403Y-112562205D01*
X178102560Y-112577362D01*
X178102560Y-112577362D01*
G37*
X178102560Y-112577362D02*
X178102560Y-114150000D01*
X178151843Y-114397765D01*
X178292191Y-114607809D01*
X178502235Y-114748157D01*
X178750000Y-114797440D01*
X179750000Y-114797440D01*
X179896091Y-114768381D01*
X179970365Y-114842655D01*
X180314017Y-114985000D01*
X180685983Y-114985000D01*
X180890000Y-114900493D01*
X180890000Y-115399507D01*
X180685983Y-115315000D01*
X180314017Y-115315000D01*
X179970365Y-115457345D01*
X179902049Y-115525661D01*
X179876310Y-115515000D01*
X179535750Y-115515000D01*
X179377000Y-115673750D01*
X179377000Y-117023000D01*
X179397000Y-117023000D01*
X179397000Y-117277000D01*
X179377000Y-117277000D01*
X179377000Y-118626250D01*
X179390560Y-118639810D01*
X179390560Y-119102560D01*
X178566271Y-119102560D01*
X178386280Y-118922569D01*
X178005874Y-118765000D01*
X177609802Y-118765000D01*
X177684473Y-118690329D01*
X177747929Y-118647929D01*
X177915904Y-118396537D01*
X177960000Y-118174852D01*
X177960000Y-118174848D01*
X177974888Y-118100001D01*
X177960000Y-118025154D01*
X177960000Y-117435750D01*
X178115000Y-117435750D01*
X178115000Y-118276309D01*
X178211673Y-118509698D01*
X178390301Y-118688327D01*
X178623690Y-118785000D01*
X178964250Y-118785000D01*
X179123000Y-118626250D01*
X179123000Y-117277000D01*
X178273750Y-117277000D01*
X178115000Y-117435750D01*
X177960000Y-117435750D01*
X177960000Y-116023691D01*
X178115000Y-116023691D01*
X178115000Y-116864250D01*
X178273750Y-117023000D01*
X179123000Y-117023000D01*
X179123000Y-115673750D01*
X178964250Y-115515000D01*
X178623690Y-115515000D01*
X178390301Y-115611673D01*
X178211673Y-115790302D01*
X178115000Y-116023691D01*
X177960000Y-116023691D01*
X177960000Y-112703711D01*
X178077431Y-112586280D01*
X178087403Y-112562205D01*
X178102560Y-112577362D01*
G36*
X161752072Y-112647929D02*
X161752560Y-112648255D01*
X161752560Y-113600000D01*
X161801843Y-113847765D01*
X161942191Y-114057809D01*
X162003320Y-114098654D01*
X161861673Y-114240302D01*
X161765000Y-114473691D01*
X161765000Y-114914250D01*
X161923750Y-115073000D01*
X162873000Y-115073000D01*
X162873000Y-115053000D01*
X163127000Y-115053000D01*
X163127000Y-115073000D01*
X164076250Y-115073000D01*
X164235000Y-114914250D01*
X164235000Y-114473691D01*
X164138327Y-114240302D01*
X163996680Y-114098654D01*
X164057809Y-114057809D01*
X164198157Y-113847765D01*
X164227159Y-113701961D01*
X164459672Y-113934474D01*
X164502072Y-113997930D01*
X164753464Y-114165905D01*
X164975149Y-114210001D01*
X164975154Y-114210001D01*
X165050001Y-114224889D01*
X165124848Y-114210001D01*
X166750152Y-114210001D01*
X166790001Y-114217927D01*
X166790001Y-114273150D01*
X166775112Y-114348002D01*
X166834097Y-114644539D01*
X166953294Y-114822929D01*
X166955574Y-114826342D01*
X166917069Y-114852071D01*
X166874669Y-114915527D01*
X166726954Y-115063243D01*
X166573627Y-114909916D01*
X166193221Y-114752347D01*
X165781473Y-114752347D01*
X165401067Y-114909916D01*
X165109916Y-115201067D01*
X164952347Y-115581473D01*
X164952347Y-115952560D01*
X164900000Y-115952560D01*
X164652235Y-116001843D01*
X164442191Y-116142191D01*
X164301843Y-116352235D01*
X164276694Y-116478669D01*
X164259698Y-116461673D01*
X164026309Y-116365000D01*
X163895305Y-116365000D01*
X163959699Y-116338327D01*
X164138327Y-116159698D01*
X164235000Y-115926309D01*
X164235000Y-115485750D01*
X164076250Y-115327000D01*
X163127000Y-115327000D01*
X163127000Y-116276250D01*
X163285750Y-116435000D01*
X163365750Y-116435000D01*
X163277000Y-116523750D01*
X163277000Y-117573000D01*
X163297000Y-117573000D01*
X163297000Y-117827000D01*
X163277000Y-117827000D01*
X163277000Y-117847000D01*
X163023000Y-117847000D01*
X163023000Y-117827000D01*
X161923750Y-117827000D01*
X161765000Y-117985750D01*
X161765000Y-118526310D01*
X161768599Y-118534999D01*
X159619609Y-118534999D01*
X159714092Y-118060000D01*
X159641209Y-117693592D01*
X161284473Y-116050329D01*
X161347929Y-116007929D01*
X161515904Y-115756537D01*
X161560000Y-115534852D01*
X161560000Y-115534848D01*
X161569766Y-115485750D01*
X161765000Y-115485750D01*
X161765000Y-115926309D01*
X161861673Y-116159698D01*
X162040301Y-116338327D01*
X162189193Y-116400000D01*
X162040302Y-116461673D01*
X161861673Y-116640301D01*
X161765000Y-116873690D01*
X161765000Y-117414250D01*
X161923750Y-117573000D01*
X163023000Y-117573000D01*
X163023000Y-116523750D01*
X162864250Y-116365000D01*
X162784250Y-116365000D01*
X162873000Y-116276250D01*
X162873000Y-115327000D01*
X161923750Y-115327000D01*
X161765000Y-115485750D01*
X161569766Y-115485750D01*
X161574888Y-115460001D01*
X161560000Y-115385154D01*
X161560000Y-112703711D01*
X161677431Y-112586280D01*
X161690231Y-112555378D01*
X161752072Y-112647929D01*
X161752072Y-112647929D01*
G37*
X161752072Y-112647929D02*
X161752560Y-112648255D01*
X161752560Y-113600000D01*
X161801843Y-113847765D01*
X161942191Y-114057809D01*
X162003320Y-114098654D01*
X161861673Y-114240302D01*
X161765000Y-114473691D01*
X161765000Y-114914250D01*
X161923750Y-115073000D01*
X162873000Y-115073000D01*
X162873000Y-115053000D01*
X163127000Y-115053000D01*
X163127000Y-115073000D01*
X164076250Y-115073000D01*
X164235000Y-114914250D01*
X164235000Y-114473691D01*
X164138327Y-114240302D01*
X163996680Y-114098654D01*
X164057809Y-114057809D01*
X164198157Y-113847765D01*
X164227159Y-113701961D01*
X164459672Y-113934474D01*
X164502072Y-113997930D01*
X164753464Y-114165905D01*
X164975149Y-114210001D01*
X164975154Y-114210001D01*
X165050001Y-114224889D01*
X165124848Y-114210001D01*
X166750152Y-114210001D01*
X166790001Y-114217927D01*
X166790001Y-114273150D01*
X166775112Y-114348002D01*
X166834097Y-114644539D01*
X166953294Y-114822929D01*
X166955574Y-114826342D01*
X166917069Y-114852071D01*
X166874669Y-114915527D01*
X166726954Y-115063243D01*
X166573627Y-114909916D01*
X166193221Y-114752347D01*
X165781473Y-114752347D01*
X165401067Y-114909916D01*
X165109916Y-115201067D01*
X164952347Y-115581473D01*
X164952347Y-115952560D01*
X164900000Y-115952560D01*
X164652235Y-116001843D01*
X164442191Y-116142191D01*
X164301843Y-116352235D01*
X164276694Y-116478669D01*
X164259698Y-116461673D01*
X164026309Y-116365000D01*
X163895305Y-116365000D01*
X163959699Y-116338327D01*
X164138327Y-116159698D01*
X164235000Y-115926309D01*
X164235000Y-115485750D01*
X164076250Y-115327000D01*
X163127000Y-115327000D01*
X163127000Y-116276250D01*
X163285750Y-116435000D01*
X163365750Y-116435000D01*
X163277000Y-116523750D01*
X163277000Y-117573000D01*
X163297000Y-117573000D01*
X163297000Y-117827000D01*
X163277000Y-117827000D01*
X163277000Y-117847000D01*
X163023000Y-117847000D01*
X163023000Y-117827000D01*
X161923750Y-117827000D01*
X161765000Y-117985750D01*
X161765000Y-118526310D01*
X161768599Y-118534999D01*
X159619609Y-118534999D01*
X159714092Y-118060000D01*
X159641209Y-117693592D01*
X161284473Y-116050329D01*
X161347929Y-116007929D01*
X161515904Y-115756537D01*
X161560000Y-115534852D01*
X161560000Y-115534848D01*
X161569766Y-115485750D01*
X161765000Y-115485750D01*
X161765000Y-115926309D01*
X161861673Y-116159698D01*
X162040301Y-116338327D01*
X162189193Y-116400000D01*
X162040302Y-116461673D01*
X161861673Y-116640301D01*
X161765000Y-116873690D01*
X161765000Y-117414250D01*
X161923750Y-117573000D01*
X163023000Y-117573000D01*
X163023000Y-116523750D01*
X162864250Y-116365000D01*
X162784250Y-116365000D01*
X162873000Y-116276250D01*
X162873000Y-115327000D01*
X161923750Y-115327000D01*
X161765000Y-115485750D01*
X161569766Y-115485750D01*
X161574888Y-115460001D01*
X161560000Y-115385154D01*
X161560000Y-112703711D01*
X161677431Y-112586280D01*
X161690231Y-112555378D01*
X161752072Y-112647929D01*
G36*
X176327000Y-113273000D02*
X176347000Y-113273000D01*
X176347000Y-113527000D01*
X176327000Y-113527000D01*
X176327000Y-114501250D01*
X176440001Y-114614251D01*
X176440000Y-117165198D01*
X176357809Y-117042191D01*
X176147765Y-116901843D01*
X175900000Y-116852560D01*
X174900000Y-116852560D01*
X174652235Y-116901843D01*
X174442191Y-117042191D01*
X174301843Y-117252235D01*
X174252560Y-117500000D01*
X174252560Y-118440000D01*
X171035000Y-118440000D01*
X171035000Y-117985750D01*
X170876250Y-117827000D01*
X169777000Y-117827000D01*
X169777000Y-117847000D01*
X169523000Y-117847000D01*
X169523000Y-117827000D01*
X169503000Y-117827000D01*
X169503000Y-117573000D01*
X169523000Y-117573000D01*
X169523000Y-116523750D01*
X169364250Y-116365000D01*
X168773691Y-116365000D01*
X168540302Y-116461673D01*
X168533033Y-116468942D01*
X168438327Y-116240301D01*
X168344226Y-116146201D01*
X168496537Y-116115904D01*
X168747929Y-115947929D01*
X168915904Y-115696537D01*
X168925758Y-115647000D01*
X168974889Y-115400000D01*
X168960000Y-115325148D01*
X168960000Y-115072850D01*
X168974888Y-114998002D01*
X168960000Y-114923154D01*
X168960000Y-114923150D01*
X168936036Y-114802675D01*
X169119964Y-114618747D01*
X169207937Y-114655186D01*
X169619685Y-114655186D01*
X170000091Y-114497617D01*
X170115000Y-114382708D01*
X170115000Y-115096289D01*
X169997569Y-115213720D01*
X169840000Y-115594126D01*
X169840000Y-116005874D01*
X169988755Y-116365000D01*
X169935750Y-116365000D01*
X169777000Y-116523750D01*
X169777000Y-117573000D01*
X170876250Y-117573000D01*
X171035000Y-117414250D01*
X171035000Y-116873690D01*
X171018974Y-116835000D01*
X171080874Y-116835000D01*
X171461280Y-116677431D01*
X171752431Y-116386280D01*
X171910000Y-116005874D01*
X171910000Y-115594126D01*
X171752431Y-115213720D01*
X171635000Y-115096289D01*
X171635000Y-115036959D01*
X171699999Y-115049888D01*
X171774846Y-115035000D01*
X173375153Y-115035000D01*
X173450000Y-115049888D01*
X173524847Y-115035000D01*
X173524852Y-115035000D01*
X173746537Y-114990904D01*
X173997929Y-114822929D01*
X174040331Y-114759470D01*
X174127361Y-114672440D01*
X174700000Y-114672440D01*
X174947765Y-114623157D01*
X175157809Y-114482809D01*
X175198654Y-114421680D01*
X175340302Y-114563327D01*
X175573691Y-114660000D01*
X175914250Y-114660000D01*
X176073000Y-114501250D01*
X176073000Y-113527000D01*
X176053000Y-113527000D01*
X176053000Y-113273000D01*
X176073000Y-113273000D01*
X176073000Y-113253000D01*
X176327000Y-113253000D01*
X176327000Y-113273000D01*
X176327000Y-113273000D01*
G37*
X176327000Y-113273000D02*
X176347000Y-113273000D01*
X176347000Y-113527000D01*
X176327000Y-113527000D01*
X176327000Y-114501250D01*
X176440001Y-114614251D01*
X176440000Y-117165198D01*
X176357809Y-117042191D01*
X176147765Y-116901843D01*
X175900000Y-116852560D01*
X174900000Y-116852560D01*
X174652235Y-116901843D01*
X174442191Y-117042191D01*
X174301843Y-117252235D01*
X174252560Y-117500000D01*
X174252560Y-118440000D01*
X171035000Y-118440000D01*
X171035000Y-117985750D01*
X170876250Y-117827000D01*
X169777000Y-117827000D01*
X169777000Y-117847000D01*
X169523000Y-117847000D01*
X169523000Y-117827000D01*
X169503000Y-117827000D01*
X169503000Y-117573000D01*
X169523000Y-117573000D01*
X169523000Y-116523750D01*
X169364250Y-116365000D01*
X168773691Y-116365000D01*
X168540302Y-116461673D01*
X168533033Y-116468942D01*
X168438327Y-116240301D01*
X168344226Y-116146201D01*
X168496537Y-116115904D01*
X168747929Y-115947929D01*
X168915904Y-115696537D01*
X168925758Y-115647000D01*
X168974889Y-115400000D01*
X168960000Y-115325148D01*
X168960000Y-115072850D01*
X168974888Y-114998002D01*
X168960000Y-114923154D01*
X168960000Y-114923150D01*
X168936036Y-114802675D01*
X169119964Y-114618747D01*
X169207937Y-114655186D01*
X169619685Y-114655186D01*
X170000091Y-114497617D01*
X170115000Y-114382708D01*
X170115000Y-115096289D01*
X169997569Y-115213720D01*
X169840000Y-115594126D01*
X169840000Y-116005874D01*
X169988755Y-116365000D01*
X169935750Y-116365000D01*
X169777000Y-116523750D01*
X169777000Y-117573000D01*
X170876250Y-117573000D01*
X171035000Y-117414250D01*
X171035000Y-116873690D01*
X171018974Y-116835000D01*
X171080874Y-116835000D01*
X171461280Y-116677431D01*
X171752431Y-116386280D01*
X171910000Y-116005874D01*
X171910000Y-115594126D01*
X171752431Y-115213720D01*
X171635000Y-115096289D01*
X171635000Y-115036959D01*
X171699999Y-115049888D01*
X171774846Y-115035000D01*
X173375153Y-115035000D01*
X173450000Y-115049888D01*
X173524847Y-115035000D01*
X173524852Y-115035000D01*
X173746537Y-114990904D01*
X173997929Y-114822929D01*
X174040331Y-114759470D01*
X174127361Y-114672440D01*
X174700000Y-114672440D01*
X174947765Y-114623157D01*
X175157809Y-114482809D01*
X175198654Y-114421680D01*
X175340302Y-114563327D01*
X175573691Y-114660000D01*
X175914250Y-114660000D01*
X176073000Y-114501250D01*
X176073000Y-113527000D01*
X176053000Y-113527000D01*
X176053000Y-113273000D01*
X176073000Y-113273000D01*
X176073000Y-113253000D01*
X176327000Y-113253000D01*
X176327000Y-113273000D01*
G36*
X156751843Y-114077765D02*
X156892191Y-114287809D01*
X157102235Y-114428157D01*
X157205708Y-114448739D01*
X156928355Y-114753076D01*
X156758524Y-115163110D01*
X156879845Y-115393000D01*
X158073000Y-115393000D01*
X158073000Y-115373000D01*
X158327000Y-115373000D01*
X158327000Y-115393000D01*
X158347000Y-115393000D01*
X158347000Y-115647000D01*
X158327000Y-115647000D01*
X158327000Y-115667000D01*
X158073000Y-115667000D01*
X158073000Y-115647000D01*
X156879845Y-115647000D01*
X156758524Y-115876890D01*
X156928355Y-116286924D01*
X157318642Y-116715183D01*
X157448478Y-116776157D01*
X157129375Y-116989375D01*
X156801161Y-117480582D01*
X156710000Y-117938881D01*
X156710000Y-113867404D01*
X156751843Y-114077765D01*
X156751843Y-114077765D01*
G37*
X156751843Y-114077765D02*
X156892191Y-114287809D01*
X157102235Y-114428157D01*
X157205708Y-114448739D01*
X156928355Y-114753076D01*
X156758524Y-115163110D01*
X156879845Y-115393000D01*
X158073000Y-115393000D01*
X158073000Y-115373000D01*
X158327000Y-115373000D01*
X158327000Y-115393000D01*
X158347000Y-115393000D01*
X158347000Y-115647000D01*
X158327000Y-115647000D01*
X158327000Y-115667000D01*
X158073000Y-115667000D01*
X158073000Y-115647000D01*
X156879845Y-115647000D01*
X156758524Y-115876890D01*
X156928355Y-116286924D01*
X157318642Y-116715183D01*
X157448478Y-116776157D01*
X157129375Y-116989375D01*
X156801161Y-117480582D01*
X156710000Y-117938881D01*
X156710000Y-113867404D01*
X156751843Y-114077765D01*
G36*
X156821161Y-100579418D02*
X157149375Y-101070625D01*
X157640582Y-101398839D01*
X158073744Y-101485000D01*
X158366256Y-101485000D01*
X158586408Y-101441209D01*
X158804670Y-101659471D01*
X158847072Y-101722930D01*
X159098464Y-101890905D01*
X159320149Y-101935001D01*
X159320153Y-101935001D01*
X159395000Y-101949889D01*
X159469847Y-101935001D01*
X160935200Y-101935001D01*
X162672998Y-103672800D01*
X162672998Y-103723748D01*
X162514250Y-103565000D01*
X162073690Y-103565000D01*
X161840301Y-103661673D01*
X161661673Y-103840302D01*
X161565000Y-104073691D01*
X161565000Y-104514250D01*
X161723750Y-104673000D01*
X162673000Y-104673000D01*
X162673000Y-104653000D01*
X162927000Y-104653000D01*
X162927000Y-104673000D01*
X162947000Y-104673000D01*
X162947000Y-104927000D01*
X162927000Y-104927000D01*
X162927000Y-104947000D01*
X162673000Y-104947000D01*
X162673000Y-104927000D01*
X161723750Y-104927000D01*
X161565000Y-105085750D01*
X161565000Y-105526309D01*
X161661673Y-105759698D01*
X161803320Y-105901346D01*
X161742191Y-105942191D01*
X161601843Y-106152235D01*
X161552560Y-106400000D01*
X161552560Y-107362010D01*
X161525112Y-107500000D01*
X161540001Y-107574851D01*
X161540001Y-108060245D01*
X161492191Y-108092191D01*
X161351843Y-108302235D01*
X161302560Y-108550000D01*
X161302560Y-109850000D01*
X161351843Y-110097765D01*
X161420155Y-110200000D01*
X161351843Y-110302235D01*
X161302560Y-110550000D01*
X161302560Y-111087891D01*
X161005874Y-110965000D01*
X160594126Y-110965000D01*
X160213720Y-111122569D01*
X159922569Y-111413720D01*
X159765000Y-111794126D01*
X159765000Y-112205874D01*
X159922569Y-112586280D01*
X160040000Y-112703711D01*
X160040001Y-115145197D01*
X159685000Y-115500198D01*
X159685000Y-115392998D01*
X159520156Y-115392998D01*
X159641476Y-115163110D01*
X159471645Y-114753076D01*
X159194292Y-114448739D01*
X159297765Y-114428157D01*
X159507809Y-114287809D01*
X159648157Y-114077765D01*
X159697440Y-113830000D01*
X159697440Y-112130000D01*
X159648157Y-111882235D01*
X159507809Y-111672191D01*
X159297765Y-111531843D01*
X159050000Y-111482560D01*
X157350000Y-111482560D01*
X157102235Y-111531843D01*
X156892191Y-111672191D01*
X156751843Y-111882235D01*
X156710000Y-112092596D01*
X156710000Y-111009440D01*
X157562000Y-111009440D01*
X157809765Y-110960157D01*
X158019809Y-110819809D01*
X158160157Y-110609765D01*
X158209440Y-110362000D01*
X158209440Y-109739810D01*
X158223000Y-109726250D01*
X158223000Y-108377000D01*
X158477000Y-108377000D01*
X158477000Y-109726250D01*
X158635750Y-109885000D01*
X158976310Y-109885000D01*
X159209699Y-109788327D01*
X159388327Y-109609698D01*
X159485000Y-109376309D01*
X159485000Y-108535750D01*
X159326250Y-108377000D01*
X158477000Y-108377000D01*
X158223000Y-108377000D01*
X158203000Y-108377000D01*
X158203000Y-108123000D01*
X158223000Y-108123000D01*
X158223000Y-106773750D01*
X158477000Y-106773750D01*
X158477000Y-108123000D01*
X159326250Y-108123000D01*
X159485000Y-107964250D01*
X159485000Y-107123691D01*
X159388327Y-106890302D01*
X159209699Y-106711673D01*
X158976310Y-106615000D01*
X158635750Y-106615000D01*
X158477000Y-106773750D01*
X158223000Y-106773750D01*
X158064250Y-106615000D01*
X157723690Y-106615000D01*
X157697951Y-106625661D01*
X157629635Y-106557345D01*
X157285983Y-106415000D01*
X156914017Y-106415000D01*
X156710000Y-106499506D01*
X156710000Y-106000494D01*
X156914017Y-106085000D01*
X157285983Y-106085000D01*
X157629635Y-105942655D01*
X157703909Y-105868381D01*
X157850000Y-105897440D01*
X158850000Y-105897440D01*
X159097765Y-105848157D01*
X159307809Y-105707809D01*
X159448157Y-105497765D01*
X159497440Y-105250000D01*
X159497440Y-103250000D01*
X159448157Y-103002235D01*
X159307809Y-102792191D01*
X159097765Y-102651843D01*
X158850000Y-102602560D01*
X158209440Y-102602560D01*
X158209440Y-102138000D01*
X158160157Y-101890235D01*
X158019809Y-101680191D01*
X157809765Y-101539843D01*
X157562000Y-101490560D01*
X156710000Y-101490560D01*
X156710000Y-100020572D01*
X156821161Y-100579418D01*
X156821161Y-100579418D01*
G37*
X156821161Y-100579418D02*
X157149375Y-101070625D01*
X157640582Y-101398839D01*
X158073744Y-101485000D01*
X158366256Y-101485000D01*
X158586408Y-101441209D01*
X158804670Y-101659471D01*
X158847072Y-101722930D01*
X159098464Y-101890905D01*
X159320149Y-101935001D01*
X159320153Y-101935001D01*
X159395000Y-101949889D01*
X159469847Y-101935001D01*
X160935200Y-101935001D01*
X162672998Y-103672800D01*
X162672998Y-103723748D01*
X162514250Y-103565000D01*
X162073690Y-103565000D01*
X161840301Y-103661673D01*
X161661673Y-103840302D01*
X161565000Y-104073691D01*
X161565000Y-104514250D01*
X161723750Y-104673000D01*
X162673000Y-104673000D01*
X162673000Y-104653000D01*
X162927000Y-104653000D01*
X162927000Y-104673000D01*
X162947000Y-104673000D01*
X162947000Y-104927000D01*
X162927000Y-104927000D01*
X162927000Y-104947000D01*
X162673000Y-104947000D01*
X162673000Y-104927000D01*
X161723750Y-104927000D01*
X161565000Y-105085750D01*
X161565000Y-105526309D01*
X161661673Y-105759698D01*
X161803320Y-105901346D01*
X161742191Y-105942191D01*
X161601843Y-106152235D01*
X161552560Y-106400000D01*
X161552560Y-107362010D01*
X161525112Y-107500000D01*
X161540001Y-107574851D01*
X161540001Y-108060245D01*
X161492191Y-108092191D01*
X161351843Y-108302235D01*
X161302560Y-108550000D01*
X161302560Y-109850000D01*
X161351843Y-110097765D01*
X161420155Y-110200000D01*
X161351843Y-110302235D01*
X161302560Y-110550000D01*
X161302560Y-111087891D01*
X161005874Y-110965000D01*
X160594126Y-110965000D01*
X160213720Y-111122569D01*
X159922569Y-111413720D01*
X159765000Y-111794126D01*
X159765000Y-112205874D01*
X159922569Y-112586280D01*
X160040000Y-112703711D01*
X160040001Y-115145197D01*
X159685000Y-115500198D01*
X159685000Y-115392998D01*
X159520156Y-115392998D01*
X159641476Y-115163110D01*
X159471645Y-114753076D01*
X159194292Y-114448739D01*
X159297765Y-114428157D01*
X159507809Y-114287809D01*
X159648157Y-114077765D01*
X159697440Y-113830000D01*
X159697440Y-112130000D01*
X159648157Y-111882235D01*
X159507809Y-111672191D01*
X159297765Y-111531843D01*
X159050000Y-111482560D01*
X157350000Y-111482560D01*
X157102235Y-111531843D01*
X156892191Y-111672191D01*
X156751843Y-111882235D01*
X156710000Y-112092596D01*
X156710000Y-111009440D01*
X157562000Y-111009440D01*
X157809765Y-110960157D01*
X158019809Y-110819809D01*
X158160157Y-110609765D01*
X158209440Y-110362000D01*
X158209440Y-109739810D01*
X158223000Y-109726250D01*
X158223000Y-108377000D01*
X158477000Y-108377000D01*
X158477000Y-109726250D01*
X158635750Y-109885000D01*
X158976310Y-109885000D01*
X159209699Y-109788327D01*
X159388327Y-109609698D01*
X159485000Y-109376309D01*
X159485000Y-108535750D01*
X159326250Y-108377000D01*
X158477000Y-108377000D01*
X158223000Y-108377000D01*
X158203000Y-108377000D01*
X158203000Y-108123000D01*
X158223000Y-108123000D01*
X158223000Y-106773750D01*
X158477000Y-106773750D01*
X158477000Y-108123000D01*
X159326250Y-108123000D01*
X159485000Y-107964250D01*
X159485000Y-107123691D01*
X159388327Y-106890302D01*
X159209699Y-106711673D01*
X158976310Y-106615000D01*
X158635750Y-106615000D01*
X158477000Y-106773750D01*
X158223000Y-106773750D01*
X158064250Y-106615000D01*
X157723690Y-106615000D01*
X157697951Y-106625661D01*
X157629635Y-106557345D01*
X157285983Y-106415000D01*
X156914017Y-106415000D01*
X156710000Y-106499506D01*
X156710000Y-106000494D01*
X156914017Y-106085000D01*
X157285983Y-106085000D01*
X157629635Y-105942655D01*
X157703909Y-105868381D01*
X157850000Y-105897440D01*
X158850000Y-105897440D01*
X159097765Y-105848157D01*
X159307809Y-105707809D01*
X159448157Y-105497765D01*
X159497440Y-105250000D01*
X159497440Y-103250000D01*
X159448157Y-103002235D01*
X159307809Y-102792191D01*
X159097765Y-102651843D01*
X158850000Y-102602560D01*
X158209440Y-102602560D01*
X158209440Y-102138000D01*
X158160157Y-101890235D01*
X158019809Y-101680191D01*
X157809765Y-101539843D01*
X157562000Y-101490560D01*
X156710000Y-101490560D01*
X156710000Y-100020572D01*
X156821161Y-100579418D01*
G36*
X180829118Y-98729702D02*
X180853804Y-98746196D01*
X180870298Y-98770881D01*
X180890001Y-98869935D01*
X180890001Y-101590560D01*
X180038000Y-101590560D01*
X179790235Y-101639843D01*
X179580191Y-101780191D01*
X179439843Y-101990235D01*
X179390560Y-102238000D01*
X179390560Y-102860190D01*
X179377000Y-102873750D01*
X179377000Y-104223000D01*
X179397000Y-104223000D01*
X179397000Y-104477000D01*
X179377000Y-104477000D01*
X179377000Y-105826250D01*
X179535750Y-105985000D01*
X179876310Y-105985000D01*
X179902049Y-105974339D01*
X179970365Y-106042655D01*
X180314017Y-106185000D01*
X180685983Y-106185000D01*
X180890001Y-106100493D01*
X180890001Y-106599507D01*
X180685983Y-106515000D01*
X180314017Y-106515000D01*
X179970365Y-106657345D01*
X179896091Y-106731619D01*
X179750000Y-106702560D01*
X178750000Y-106702560D01*
X178502235Y-106751843D01*
X178292191Y-106892191D01*
X178151843Y-107102235D01*
X178102560Y-107350000D01*
X178102560Y-107590000D01*
X177535000Y-107590000D01*
X177535000Y-107285750D01*
X177376250Y-107127000D01*
X176527000Y-107127000D01*
X176527000Y-107147000D01*
X176273000Y-107147000D01*
X176273000Y-107127000D01*
X176253000Y-107127000D01*
X176253000Y-106873000D01*
X176273000Y-106873000D01*
X176273000Y-105898750D01*
X176527000Y-105898750D01*
X176527000Y-106873000D01*
X177376250Y-106873000D01*
X177535000Y-106714250D01*
X177535000Y-106248690D01*
X177438327Y-106015301D01*
X177259698Y-105836673D01*
X177026309Y-105740000D01*
X176685750Y-105740000D01*
X176527000Y-105898750D01*
X176273000Y-105898750D01*
X176114250Y-105740000D01*
X175773691Y-105740000D01*
X175540302Y-105836673D01*
X175398654Y-105978320D01*
X175357809Y-105917191D01*
X175147765Y-105776843D01*
X174900000Y-105727560D01*
X173900000Y-105727560D01*
X173740519Y-105759282D01*
X174864051Y-104635750D01*
X178115000Y-104635750D01*
X178115000Y-105476309D01*
X178211673Y-105709698D01*
X178390301Y-105888327D01*
X178623690Y-105985000D01*
X178964250Y-105985000D01*
X179123000Y-105826250D01*
X179123000Y-104477000D01*
X178273750Y-104477000D01*
X178115000Y-104635750D01*
X174864051Y-104635750D01*
X176276110Y-103223691D01*
X178115000Y-103223691D01*
X178115000Y-104064250D01*
X178273750Y-104223000D01*
X179123000Y-104223000D01*
X179123000Y-102873750D01*
X178964250Y-102715000D01*
X178623690Y-102715000D01*
X178390301Y-102811673D01*
X178211673Y-102990302D01*
X178115000Y-103223691D01*
X176276110Y-103223691D01*
X178002362Y-101497440D01*
X179390000Y-101497440D01*
X179637765Y-101448157D01*
X179847809Y-101307809D01*
X179988157Y-101097765D01*
X180037440Y-100850000D01*
X180037440Y-99150000D01*
X179988157Y-98902235D01*
X179859709Y-98710000D01*
X180730070Y-98710000D01*
X180829118Y-98729702D01*
X180829118Y-98729702D01*
G37*
X180829118Y-98729702D02*
X180853804Y-98746196D01*
X180870298Y-98770881D01*
X180890001Y-98869935D01*
X180890001Y-101590560D01*
X180038000Y-101590560D01*
X179790235Y-101639843D01*
X179580191Y-101780191D01*
X179439843Y-101990235D01*
X179390560Y-102238000D01*
X179390560Y-102860190D01*
X179377000Y-102873750D01*
X179377000Y-104223000D01*
X179397000Y-104223000D01*
X179397000Y-104477000D01*
X179377000Y-104477000D01*
X179377000Y-105826250D01*
X179535750Y-105985000D01*
X179876310Y-105985000D01*
X179902049Y-105974339D01*
X179970365Y-106042655D01*
X180314017Y-106185000D01*
X180685983Y-106185000D01*
X180890001Y-106100493D01*
X180890001Y-106599507D01*
X180685983Y-106515000D01*
X180314017Y-106515000D01*
X179970365Y-106657345D01*
X179896091Y-106731619D01*
X179750000Y-106702560D01*
X178750000Y-106702560D01*
X178502235Y-106751843D01*
X178292191Y-106892191D01*
X178151843Y-107102235D01*
X178102560Y-107350000D01*
X178102560Y-107590000D01*
X177535000Y-107590000D01*
X177535000Y-107285750D01*
X177376250Y-107127000D01*
X176527000Y-107127000D01*
X176527000Y-107147000D01*
X176273000Y-107147000D01*
X176273000Y-107127000D01*
X176253000Y-107127000D01*
X176253000Y-106873000D01*
X176273000Y-106873000D01*
X176273000Y-105898750D01*
X176527000Y-105898750D01*
X176527000Y-106873000D01*
X177376250Y-106873000D01*
X177535000Y-106714250D01*
X177535000Y-106248690D01*
X177438327Y-106015301D01*
X177259698Y-105836673D01*
X177026309Y-105740000D01*
X176685750Y-105740000D01*
X176527000Y-105898750D01*
X176273000Y-105898750D01*
X176114250Y-105740000D01*
X175773691Y-105740000D01*
X175540302Y-105836673D01*
X175398654Y-105978320D01*
X175357809Y-105917191D01*
X175147765Y-105776843D01*
X174900000Y-105727560D01*
X173900000Y-105727560D01*
X173740519Y-105759282D01*
X174864051Y-104635750D01*
X178115000Y-104635750D01*
X178115000Y-105476309D01*
X178211673Y-105709698D01*
X178390301Y-105888327D01*
X178623690Y-105985000D01*
X178964250Y-105985000D01*
X179123000Y-105826250D01*
X179123000Y-104477000D01*
X178273750Y-104477000D01*
X178115000Y-104635750D01*
X174864051Y-104635750D01*
X176276110Y-103223691D01*
X178115000Y-103223691D01*
X178115000Y-104064250D01*
X178273750Y-104223000D01*
X179123000Y-104223000D01*
X179123000Y-102873750D01*
X178964250Y-102715000D01*
X178623690Y-102715000D01*
X178390301Y-102811673D01*
X178211673Y-102990302D01*
X178115000Y-103223691D01*
X176276110Y-103223691D01*
X178002362Y-101497440D01*
X179390000Y-101497440D01*
X179637765Y-101448157D01*
X179847809Y-101307809D01*
X179988157Y-101097765D01*
X180037440Y-100850000D01*
X180037440Y-99150000D01*
X179988157Y-98902235D01*
X179859709Y-98710000D01*
X180730070Y-98710000D01*
X180829118Y-98729702D01*
G04 #@! TD*
M02*
