M48
;DRILL file {KiCad 5.0.1} date Wed 20 Feb 2019 01:43:13 PM CST
;FORMAT={-:-/ absolute / inch / decimal}
FMAT,2
INCH,TZ
T1C0.0157
T2C0.0256
T3C0.0394
%
G90
G05
M72
T1
X6.2343Y-4.1043
X6.3307Y-4.4094
X6.3622Y-4.6614
X6.3622Y-4.7402
X6.5349Y-4.5586
X6.5906Y-4.252
X6.625Y-4.4882
X6.6535Y-4.7323
X6.6698Y-4.4732
X6.7274Y-4.5591
X6.7323Y-4.6378
X6.8031Y-4.3986
X6.811Y-4.2283
X6.9291Y-4.5276
X6.9528Y-4.2126
X6.9685Y-4.3307
X6.9764Y-4.4094
X7.Y-4.7165
X7.0079Y-4.1969
X7.0079Y-4.4488
T2
X6.9055Y-4.6457
T3
X6.2291Y-3.937
X6.3291Y-3.937
X6.4291Y-3.937
X6.5291Y-3.937
X6.6291Y-3.937
X6.7291Y-3.937
X6.8291Y-3.937
X6.9291Y-3.937
X7.0291Y-3.937
X6.2283Y-4.448
X6.2283Y-4.548
X6.2283Y-4.648
X6.2283Y-4.748
T0
M30
