G04 #@! TF.GenerationSoftware,KiCad,Pcbnew,5.0.1*
G04 #@! TF.CreationDate,2019-03-08T16:44:03-06:00*
G04 #@! TF.ProjectId,Card,436172642E6B696361645F7063620000,rev?*
G04 #@! TF.SameCoordinates,Original*
G04 #@! TF.FileFunction,Legend,Bot*
G04 #@! TF.FilePolarity,Positive*
%FSLAX46Y46*%
G04 Gerber Fmt 4.6, Leading zero omitted, Abs format (unit mm)*
G04 Created by KiCad (PCBNEW 5.0.1) date Fri 08 Mar 2019 04:44:03 PM CST*
%MOMM*%
%LPD*%
G01*
G04 APERTURE LIST*
%ADD10C,0.250000*%
%ADD11C,0.175000*%
%ADD12C,0.200000*%
G04 APERTURE END LIST*
D10*
X113154761Y-153702380D02*
X113154761Y-152702380D01*
X112773809Y-152702380D01*
X112678571Y-152750000D01*
X112630952Y-152797619D01*
X112583333Y-152892857D01*
X112583333Y-153035714D01*
X112630952Y-153130952D01*
X112678571Y-153178571D01*
X112773809Y-153226190D01*
X113154761Y-153226190D01*
X112011904Y-153702380D02*
X112107142Y-153654761D01*
X112154761Y-153607142D01*
X112202380Y-153511904D01*
X112202380Y-153226190D01*
X112154761Y-153130952D01*
X112107142Y-153083333D01*
X112011904Y-153035714D01*
X111869047Y-153035714D01*
X111773809Y-153083333D01*
X111726190Y-153130952D01*
X111678571Y-153226190D01*
X111678571Y-153511904D01*
X111726190Y-153607142D01*
X111773809Y-153654761D01*
X111869047Y-153702380D01*
X112011904Y-153702380D01*
X111345238Y-153035714D02*
X111154761Y-153702380D01*
X110964285Y-153226190D01*
X110773809Y-153702380D01*
X110583333Y-153035714D01*
X109821428Y-153654761D02*
X109916666Y-153702380D01*
X110107142Y-153702380D01*
X110202380Y-153654761D01*
X110250000Y-153559523D01*
X110250000Y-153178571D01*
X110202380Y-153083333D01*
X110107142Y-153035714D01*
X109916666Y-153035714D01*
X109821428Y-153083333D01*
X109773809Y-153178571D01*
X109773809Y-153273809D01*
X110250000Y-153369047D01*
X109345238Y-153702380D02*
X109345238Y-153035714D01*
X109345238Y-153226190D02*
X109297619Y-153130952D01*
X109250000Y-153083333D01*
X109154761Y-153035714D01*
X109059523Y-153035714D01*
X107964285Y-153702380D02*
X107964285Y-152702380D01*
X107583333Y-152702380D01*
X107488095Y-152750000D01*
X107440476Y-152797619D01*
X107392857Y-152892857D01*
X107392857Y-153035714D01*
X107440476Y-153130952D01*
X107488095Y-153178571D01*
X107583333Y-153226190D01*
X107964285Y-153226190D01*
X106821428Y-153702380D02*
X106916666Y-153654761D01*
X106964285Y-153607142D01*
X107011904Y-153511904D01*
X107011904Y-153226190D01*
X106964285Y-153130952D01*
X106916666Y-153083333D01*
X106821428Y-153035714D01*
X106678571Y-153035714D01*
X106583333Y-153083333D01*
X106535714Y-153130952D01*
X106488095Y-153226190D01*
X106488095Y-153511904D01*
X106535714Y-153607142D01*
X106583333Y-153654761D01*
X106678571Y-153702380D01*
X106821428Y-153702380D01*
X106059523Y-153702380D02*
X106059523Y-153035714D01*
X106059523Y-153226190D02*
X106011904Y-153130952D01*
X105964285Y-153083333D01*
X105869047Y-153035714D01*
X105773809Y-153035714D01*
X105583333Y-153035714D02*
X105202380Y-153035714D01*
X105440476Y-152702380D02*
X105440476Y-153559523D01*
X105392857Y-153654761D01*
X105297619Y-153702380D01*
X105202380Y-153702380D01*
X132452380Y-153428571D02*
X132119047Y-153428571D01*
X131976190Y-153952380D02*
X132452380Y-153952380D01*
X132452380Y-152952380D01*
X131976190Y-152952380D01*
X131642857Y-153952380D02*
X131119047Y-153285714D01*
X131642857Y-153285714D02*
X131119047Y-153952380D01*
X130738095Y-153285714D02*
X130738095Y-154285714D01*
X130738095Y-153333333D02*
X130642857Y-153285714D01*
X130452380Y-153285714D01*
X130357142Y-153333333D01*
X130309523Y-153380952D01*
X130261904Y-153476190D01*
X130261904Y-153761904D01*
X130309523Y-153857142D01*
X130357142Y-153904761D01*
X130452380Y-153952380D01*
X130642857Y-153952380D01*
X130738095Y-153904761D01*
X129404761Y-153952380D02*
X129404761Y-153428571D01*
X129452380Y-153333333D01*
X129547619Y-153285714D01*
X129738095Y-153285714D01*
X129833333Y-153333333D01*
X129404761Y-153904761D02*
X129500000Y-153952380D01*
X129738095Y-153952380D01*
X129833333Y-153904761D01*
X129880952Y-153809523D01*
X129880952Y-153714285D01*
X129833333Y-153619047D01*
X129738095Y-153571428D01*
X129500000Y-153571428D01*
X129404761Y-153523809D01*
X128928571Y-153285714D02*
X128928571Y-153952380D01*
X128928571Y-153380952D02*
X128880952Y-153333333D01*
X128785714Y-153285714D01*
X128642857Y-153285714D01*
X128547619Y-153333333D01*
X128500000Y-153428571D01*
X128500000Y-153952380D01*
X128071428Y-153904761D02*
X127976190Y-153952380D01*
X127785714Y-153952380D01*
X127690476Y-153904761D01*
X127642857Y-153809523D01*
X127642857Y-153761904D01*
X127690476Y-153666666D01*
X127785714Y-153619047D01*
X127928571Y-153619047D01*
X128023809Y-153571428D01*
X128071428Y-153476190D01*
X128071428Y-153428571D01*
X128023809Y-153333333D01*
X127928571Y-153285714D01*
X127785714Y-153285714D01*
X127690476Y-153333333D01*
X127214285Y-153952380D02*
X127214285Y-153285714D01*
X127214285Y-152952380D02*
X127261904Y-153000000D01*
X127214285Y-153047619D01*
X127166666Y-153000000D01*
X127214285Y-152952380D01*
X127214285Y-153047619D01*
X126595238Y-153952380D02*
X126690476Y-153904761D01*
X126738095Y-153857142D01*
X126785714Y-153761904D01*
X126785714Y-153476190D01*
X126738095Y-153380952D01*
X126690476Y-153333333D01*
X126595238Y-153285714D01*
X126452380Y-153285714D01*
X126357142Y-153333333D01*
X126309523Y-153380952D01*
X126261904Y-153476190D01*
X126261904Y-153761904D01*
X126309523Y-153857142D01*
X126357142Y-153904761D01*
X126452380Y-153952380D01*
X126595238Y-153952380D01*
X125833333Y-153285714D02*
X125833333Y-153952380D01*
X125833333Y-153380952D02*
X125785714Y-153333333D01*
X125690476Y-153285714D01*
X125547619Y-153285714D01*
X125452380Y-153333333D01*
X125404761Y-153428571D01*
X125404761Y-153952380D01*
X124166666Y-153952380D02*
X124166666Y-152952380D01*
X123785714Y-152952380D01*
X123690476Y-153000000D01*
X123642857Y-153047619D01*
X123595238Y-153142857D01*
X123595238Y-153285714D01*
X123642857Y-153380952D01*
X123690476Y-153428571D01*
X123785714Y-153476190D01*
X124166666Y-153476190D01*
X123023809Y-153952380D02*
X123119047Y-153904761D01*
X123166666Y-153857142D01*
X123214285Y-153761904D01*
X123214285Y-153476190D01*
X123166666Y-153380952D01*
X123119047Y-153333333D01*
X123023809Y-153285714D01*
X122880952Y-153285714D01*
X122785714Y-153333333D01*
X122738095Y-153380952D01*
X122690476Y-153476190D01*
X122690476Y-153761904D01*
X122738095Y-153857142D01*
X122785714Y-153904761D01*
X122880952Y-153952380D01*
X123023809Y-153952380D01*
X122261904Y-153952380D02*
X122261904Y-153285714D01*
X122261904Y-153476190D02*
X122214285Y-153380952D01*
X122166666Y-153333333D01*
X122071428Y-153285714D01*
X121976190Y-153285714D01*
X121785714Y-153285714D02*
X121404761Y-153285714D01*
X121642857Y-152952380D02*
X121642857Y-153809523D01*
X121595238Y-153904761D01*
X121500000Y-153952380D01*
X121404761Y-153952380D01*
D11*
X133016666Y-158111904D02*
X133016666Y-157311904D01*
X132750000Y-157311904D01*
X132683333Y-157350000D01*
X132650000Y-157388095D01*
X132616666Y-157464285D01*
X132616666Y-157578571D01*
X132650000Y-157654761D01*
X132683333Y-157692857D01*
X132750000Y-157730952D01*
X133016666Y-157730952D01*
X131950000Y-158111904D02*
X132350000Y-158111904D01*
X132150000Y-158111904D02*
X132150000Y-157311904D01*
X132216666Y-157426190D01*
X132283333Y-157502380D01*
X132350000Y-157540476D01*
X131650000Y-158035714D02*
X131616666Y-158073809D01*
X131650000Y-158111904D01*
X131683333Y-158073809D01*
X131650000Y-158035714D01*
X131650000Y-158111904D01*
X131383333Y-157311904D02*
X130916666Y-157311904D01*
X131216666Y-158111904D01*
X130516666Y-158111904D02*
X130516666Y-157311904D01*
X130250000Y-157311904D01*
X130183333Y-157350000D01*
X130150000Y-157388095D01*
X130116666Y-157464285D01*
X130116666Y-157578571D01*
X130150000Y-157654761D01*
X130183333Y-157692857D01*
X130250000Y-157730952D01*
X130516666Y-157730952D01*
X129450000Y-158111904D02*
X129850000Y-158111904D01*
X129650000Y-158111904D02*
X129650000Y-157311904D01*
X129716666Y-157426190D01*
X129783333Y-157502380D01*
X129850000Y-157540476D01*
X129150000Y-158035714D02*
X129116666Y-158073809D01*
X129150000Y-158111904D01*
X129183333Y-158073809D01*
X129150000Y-158035714D01*
X129150000Y-158111904D01*
X128516666Y-157311904D02*
X128650000Y-157311904D01*
X128716666Y-157350000D01*
X128750000Y-157388095D01*
X128816666Y-157502380D01*
X128850000Y-157654761D01*
X128850000Y-157959523D01*
X128816666Y-158035714D01*
X128783333Y-158073809D01*
X128716666Y-158111904D01*
X128583333Y-158111904D01*
X128516666Y-158073809D01*
X128483333Y-158035714D01*
X128450000Y-157959523D01*
X128450000Y-157769047D01*
X128483333Y-157692857D01*
X128516666Y-157654761D01*
X128583333Y-157616666D01*
X128716666Y-157616666D01*
X128783333Y-157654761D01*
X128816666Y-157692857D01*
X128850000Y-157769047D01*
X128016666Y-158111904D02*
X128016666Y-157311904D01*
X127750000Y-157311904D01*
X127683333Y-157350000D01*
X127650000Y-157388095D01*
X127616666Y-157464285D01*
X127616666Y-157578571D01*
X127650000Y-157654761D01*
X127683333Y-157692857D01*
X127750000Y-157730952D01*
X128016666Y-157730952D01*
X126950000Y-158111904D02*
X127350000Y-158111904D01*
X127150000Y-158111904D02*
X127150000Y-157311904D01*
X127216666Y-157426190D01*
X127283333Y-157502380D01*
X127350000Y-157540476D01*
X126650000Y-158035714D02*
X126616666Y-158073809D01*
X126650000Y-158111904D01*
X126683333Y-158073809D01*
X126650000Y-158035714D01*
X126650000Y-158111904D01*
X125983333Y-157311904D02*
X126316666Y-157311904D01*
X126350000Y-157692857D01*
X126316666Y-157654761D01*
X126250000Y-157616666D01*
X126083333Y-157616666D01*
X126016666Y-157654761D01*
X125983333Y-157692857D01*
X125950000Y-157769047D01*
X125950000Y-157959523D01*
X125983333Y-158035714D01*
X126016666Y-158073809D01*
X126083333Y-158111904D01*
X126250000Y-158111904D01*
X126316666Y-158073809D01*
X126350000Y-158035714D01*
X125266666Y-158111904D02*
X125266666Y-157311904D01*
X125000000Y-157311904D01*
X124933333Y-157350000D01*
X124900000Y-157388095D01*
X124866666Y-157464285D01*
X124866666Y-157578571D01*
X124900000Y-157654761D01*
X124933333Y-157692857D01*
X125000000Y-157730952D01*
X125266666Y-157730952D01*
X124200000Y-158111904D02*
X124600000Y-158111904D01*
X124400000Y-158111904D02*
X124400000Y-157311904D01*
X124466666Y-157426190D01*
X124533333Y-157502380D01*
X124600000Y-157540476D01*
X123900000Y-158035714D02*
X123866666Y-158073809D01*
X123900000Y-158111904D01*
X123933333Y-158073809D01*
X123900000Y-158035714D01*
X123900000Y-158111904D01*
X123266666Y-157578571D02*
X123266666Y-158111904D01*
X123433333Y-157273809D02*
X123600000Y-157845238D01*
X123166666Y-157845238D01*
X122766666Y-158111904D02*
X122766666Y-157311904D01*
X122500000Y-157311904D01*
X122433333Y-157350000D01*
X122400000Y-157388095D01*
X122366666Y-157464285D01*
X122366666Y-157578571D01*
X122400000Y-157654761D01*
X122433333Y-157692857D01*
X122500000Y-157730952D01*
X122766666Y-157730952D01*
X122133333Y-157311904D02*
X121700000Y-157311904D01*
X121933333Y-157616666D01*
X121833333Y-157616666D01*
X121766666Y-157654761D01*
X121733333Y-157692857D01*
X121700000Y-157769047D01*
X121700000Y-157959523D01*
X121733333Y-158035714D01*
X121766666Y-158073809D01*
X121833333Y-158111904D01*
X122033333Y-158111904D01*
X122100000Y-158073809D01*
X122133333Y-158035714D01*
X121400000Y-158035714D02*
X121366666Y-158073809D01*
X121400000Y-158111904D01*
X121433333Y-158073809D01*
X121400000Y-158035714D01*
X121400000Y-158111904D01*
X121100000Y-157388095D02*
X121066666Y-157350000D01*
X121000000Y-157311904D01*
X120833333Y-157311904D01*
X120766666Y-157350000D01*
X120733333Y-157388095D01*
X120700000Y-157464285D01*
X120700000Y-157540476D01*
X120733333Y-157654761D01*
X121133333Y-158111904D01*
X120700000Y-158111904D01*
D12*
X106816666Y-157311904D02*
X106550000Y-158111904D01*
X106283333Y-157311904D01*
X105559523Y-158035714D02*
X105597619Y-158073809D01*
X105711904Y-158111904D01*
X105788095Y-158111904D01*
X105902380Y-158073809D01*
X105978571Y-157997619D01*
X106016666Y-157921428D01*
X106054761Y-157769047D01*
X106054761Y-157654761D01*
X106016666Y-157502380D01*
X105978571Y-157426190D01*
X105902380Y-157350000D01*
X105788095Y-157311904D01*
X105711904Y-157311904D01*
X105597619Y-157350000D01*
X105559523Y-157388095D01*
X104759523Y-158035714D02*
X104797619Y-158073809D01*
X104911904Y-158111904D01*
X104988095Y-158111904D01*
X105102380Y-158073809D01*
X105178571Y-157997619D01*
X105216666Y-157921428D01*
X105254761Y-157769047D01*
X105254761Y-157654761D01*
X105216666Y-157502380D01*
X105178571Y-157426190D01*
X105102380Y-157350000D01*
X104988095Y-157311904D01*
X104911904Y-157311904D01*
X104797619Y-157350000D01*
X104759523Y-157388095D01*
X109757142Y-157807142D02*
X109147619Y-157807142D01*
X109452380Y-158111904D02*
X109452380Y-157502380D01*
X108842857Y-157311904D02*
X108347619Y-157311904D01*
X108614285Y-157616666D01*
X108500000Y-157616666D01*
X108423809Y-157654761D01*
X108385714Y-157692857D01*
X108347619Y-157769047D01*
X108347619Y-157959523D01*
X108385714Y-158035714D01*
X108423809Y-158073809D01*
X108500000Y-158111904D01*
X108728571Y-158111904D01*
X108804761Y-158073809D01*
X108842857Y-158035714D01*
X108004761Y-158035714D02*
X107966666Y-158073809D01*
X108004761Y-158111904D01*
X108042857Y-158073809D01*
X108004761Y-158035714D01*
X108004761Y-158111904D01*
X107700000Y-157311904D02*
X107204761Y-157311904D01*
X107471428Y-157616666D01*
X107357142Y-157616666D01*
X107280952Y-157654761D01*
X107242857Y-157692857D01*
X107204761Y-157769047D01*
X107204761Y-157959523D01*
X107242857Y-158035714D01*
X107280952Y-158073809D01*
X107357142Y-158111904D01*
X107585714Y-158111904D01*
X107661904Y-158073809D01*
X107700000Y-158035714D01*
X112028571Y-157286904D02*
X111761904Y-158086904D01*
X111495238Y-157286904D01*
X111266666Y-158048809D02*
X111152380Y-158086904D01*
X110961904Y-158086904D01*
X110885714Y-158048809D01*
X110847619Y-158010714D01*
X110809523Y-157934523D01*
X110809523Y-157858333D01*
X110847619Y-157782142D01*
X110885714Y-157744047D01*
X110961904Y-157705952D01*
X111114285Y-157667857D01*
X111190476Y-157629761D01*
X111228571Y-157591666D01*
X111266666Y-157515476D01*
X111266666Y-157439285D01*
X111228571Y-157363095D01*
X111190476Y-157325000D01*
X111114285Y-157286904D01*
X110923809Y-157286904D01*
X110809523Y-157325000D01*
X110504761Y-158048809D02*
X110390476Y-158086904D01*
X110200000Y-158086904D01*
X110123809Y-158048809D01*
X110085714Y-158010714D01*
X110047619Y-157934523D01*
X110047619Y-157858333D01*
X110085714Y-157782142D01*
X110123809Y-157744047D01*
X110200000Y-157705952D01*
X110352380Y-157667857D01*
X110428571Y-157629761D01*
X110466666Y-157591666D01*
X110504761Y-157515476D01*
X110504761Y-157439285D01*
X110466666Y-157363095D01*
X110428571Y-157325000D01*
X110352380Y-157286904D01*
X110161904Y-157286904D01*
X110047619Y-157325000D01*
X113111904Y-158086904D02*
X112845238Y-157705952D01*
X112654761Y-158086904D02*
X112654761Y-157286904D01*
X112959523Y-157286904D01*
X113035714Y-157325000D01*
X113073809Y-157363095D01*
X113111904Y-157439285D01*
X113111904Y-157553571D01*
X113073809Y-157629761D01*
X113035714Y-157667857D01*
X112959523Y-157705952D01*
X112654761Y-157705952D01*
X113416666Y-158048809D02*
X113530952Y-158086904D01*
X113721428Y-158086904D01*
X113797619Y-158048809D01*
X113835714Y-158010714D01*
X113873809Y-157934523D01*
X113873809Y-157858333D01*
X113835714Y-157782142D01*
X113797619Y-157744047D01*
X113721428Y-157705952D01*
X113569047Y-157667857D01*
X113492857Y-157629761D01*
X113454761Y-157591666D01*
X113416666Y-157515476D01*
X113416666Y-157439285D01*
X113454761Y-157363095D01*
X113492857Y-157325000D01*
X113569047Y-157286904D01*
X113759523Y-157286904D01*
X113873809Y-157325000D01*
X114102380Y-157286904D02*
X114559523Y-157286904D01*
X114330952Y-158086904D02*
X114330952Y-157286904D01*
M02*
