G04 #@! TF.GenerationSoftware,KiCad,Pcbnew,5.0.1*
G04 #@! TF.CreationDate,2019-03-08T16:44:03-06:00*
G04 #@! TF.ProjectId,Card,436172642E6B696361645F7063620000,rev?*
G04 #@! TF.SameCoordinates,Original*
G04 #@! TF.FileFunction,Legend,Top*
G04 #@! TF.FilePolarity,Positive*
%FSLAX46Y46*%
G04 Gerber Fmt 4.6, Leading zero omitted, Abs format (unit mm)*
G04 Created by KiCad (PCBNEW 5.0.1) date Fri 08 Mar 2019 04:44:03 PM CST*
%MOMM*%
%LPD*%
G01*
G04 APERTURE LIST*
%ADD10C,0.120000*%
%ADD11C,0.150000*%
%ADD12C,0.010000*%
G04 APERTURE END LIST*
D10*
G04 #@! TO.C,C1*
X104300000Y-133650000D02*
X105300000Y-133650000D01*
X105300000Y-131950000D02*
X104300000Y-131950000D01*
G04 #@! TO.C,C2*
X104300000Y-130250000D02*
X105300000Y-130250000D01*
X105300000Y-128550000D02*
X104300000Y-128550000D01*
G04 #@! TO.C,D1*
X120900000Y-120100000D02*
X120900000Y-118700000D01*
X120900000Y-118700000D02*
X118100000Y-118700000D01*
X120900000Y-120100000D02*
X118100000Y-120100000D01*
G04 #@! TO.C,J2*
X104530000Y-154470000D02*
X104530000Y-157130000D01*
X112210000Y-154470000D02*
X104530000Y-154470000D01*
X112210000Y-157130000D02*
X104530000Y-157130000D01*
X112210000Y-154470000D02*
X112210000Y-157130000D01*
X113480000Y-154470000D02*
X114810000Y-154470000D01*
X114810000Y-154470000D02*
X114810000Y-155800000D01*
G04 #@! TO.C,J3*
X133290000Y-157130000D02*
X133290000Y-154470000D01*
X123070000Y-157130000D02*
X133290000Y-157130000D01*
X123070000Y-154470000D02*
X133290000Y-154470000D01*
X123070000Y-157130000D02*
X123070000Y-154470000D01*
X121800000Y-157130000D02*
X120470000Y-157130000D01*
X120470000Y-157130000D02*
X120470000Y-155800000D01*
D11*
G04 #@! TO.C,U1*
X116175000Y-122525000D02*
X111725000Y-122525000D01*
X117700000Y-129425000D02*
X111725000Y-129425000D01*
D12*
G04 #@! TO.C,*
G36*
X162924184Y-111663250D02*
X162911882Y-111776255D01*
X162879926Y-111830139D01*
X162802963Y-111850255D01*
X162731250Y-111856184D01*
X162551334Y-111869201D01*
X162551334Y-111483333D01*
X162937202Y-111483333D01*
X162924184Y-111663250D01*
X162924184Y-111663250D01*
G37*
X162924184Y-111663250D02*
X162911882Y-111776255D01*
X162879926Y-111830139D01*
X162802963Y-111850255D01*
X162731250Y-111856184D01*
X162551334Y-111869201D01*
X162551334Y-111483333D01*
X162937202Y-111483333D01*
X162924184Y-111663250D01*
G36*
X142993334Y-111864333D02*
X142822672Y-111864333D01*
X142692637Y-111849179D01*
X142629895Y-111806531D01*
X142629015Y-111804409D01*
X142616472Y-111719332D01*
X142619760Y-111624492D01*
X142637548Y-111547838D01*
X142684482Y-111510016D01*
X142785915Y-111493613D01*
X142813417Y-111491482D01*
X142993334Y-111478465D01*
X142993334Y-111864333D01*
X142993334Y-111864333D01*
G37*
X142993334Y-111864333D02*
X142822672Y-111864333D01*
X142692637Y-111849179D01*
X142629895Y-111806531D01*
X142629015Y-111804409D01*
X142616472Y-111719332D01*
X142619760Y-111624492D01*
X142637548Y-111547838D01*
X142684482Y-111510016D01*
X142785915Y-111493613D01*
X142813417Y-111491482D01*
X142993334Y-111478465D01*
X142993334Y-111864333D01*
G36*
X134950000Y-111864333D02*
X134787722Y-111864333D01*
X134675852Y-111857570D01*
X134604241Y-111840837D01*
X134597222Y-111836111D01*
X134578943Y-111778944D01*
X134569399Y-111673186D01*
X134569000Y-111645611D01*
X134569000Y-111483333D01*
X134950000Y-111483333D01*
X134950000Y-111864333D01*
X134950000Y-111864333D01*
G37*
X134950000Y-111864333D02*
X134787722Y-111864333D01*
X134675852Y-111857570D01*
X134604241Y-111840837D01*
X134597222Y-111836111D01*
X134578943Y-111778944D01*
X134569399Y-111673186D01*
X134569000Y-111645611D01*
X134569000Y-111483333D01*
X134950000Y-111483333D01*
X134950000Y-111864333D01*
G36*
X176309667Y-112495909D02*
X176658917Y-112508204D01*
X177008167Y-112520500D01*
X177021184Y-112700416D01*
X177034202Y-112880333D01*
X176307877Y-112880333D01*
X176319355Y-113716416D01*
X176330834Y-114552500D01*
X176500167Y-114573666D01*
X176608388Y-114592148D01*
X176656620Y-114629192D01*
X176669095Y-114712058D01*
X176669500Y-114764166D01*
X176669500Y-114933500D01*
X176472349Y-114946242D01*
X176336489Y-114945617D01*
X176236296Y-114911700D01*
X176127276Y-114829098D01*
X176123099Y-114825440D01*
X175971000Y-114691895D01*
X175971000Y-112880333D01*
X175251334Y-112880333D01*
X175251334Y-112499333D01*
X175971000Y-112499333D01*
X175971000Y-111483333D01*
X176309667Y-111483333D01*
X176309667Y-112495909D01*
X176309667Y-112495909D01*
G37*
X176309667Y-112495909D02*
X176658917Y-112508204D01*
X177008167Y-112520500D01*
X177021184Y-112700416D01*
X177034202Y-112880333D01*
X176307877Y-112880333D01*
X176319355Y-113716416D01*
X176330834Y-114552500D01*
X176500167Y-114573666D01*
X176608388Y-114592148D01*
X176656620Y-114629192D01*
X176669095Y-114712058D01*
X176669500Y-114764166D01*
X176669500Y-114933500D01*
X176472349Y-114946242D01*
X176336489Y-114945617D01*
X176236296Y-114911700D01*
X176127276Y-114829098D01*
X176123099Y-114825440D01*
X175971000Y-114691895D01*
X175971000Y-112880333D01*
X175251334Y-112880333D01*
X175251334Y-112499333D01*
X175971000Y-112499333D01*
X175971000Y-111483333D01*
X176309667Y-111483333D01*
X176309667Y-112495909D01*
G36*
X174115107Y-112746560D02*
X174256035Y-112898292D01*
X174335758Y-113012853D01*
X174362261Y-113101865D01*
X174362334Y-113106393D01*
X174355345Y-113175766D01*
X174319166Y-113208632D01*
X174230972Y-113218481D01*
X174171834Y-113219000D01*
X174038289Y-113207983D01*
X173983242Y-113174284D01*
X173981334Y-113163420D01*
X173944622Y-113073837D01*
X173852242Y-112983866D01*
X173730829Y-112912990D01*
X173607014Y-112880693D01*
X173594379Y-112880333D01*
X173515570Y-112888131D01*
X173440927Y-112919275D01*
X173353280Y-112985391D01*
X173235459Y-113098104D01*
X173162779Y-113172550D01*
X172880667Y-113464767D01*
X172880667Y-114954666D01*
X172542000Y-114954666D01*
X172542000Y-113965016D01*
X172541559Y-113639282D01*
X172539059Y-113388094D01*
X172532733Y-113201333D01*
X172520815Y-113068879D01*
X172501538Y-112980613D01*
X172473136Y-112926416D01*
X172433842Y-112896167D01*
X172381889Y-112879747D01*
X172351500Y-112873725D01*
X172294840Y-112845442D01*
X172270492Y-112773162D01*
X172266834Y-112689253D01*
X172271925Y-112580534D01*
X172301542Y-112530250D01*
X172377198Y-112512223D01*
X172415000Y-112508964D01*
X172581905Y-112528401D01*
X172729918Y-112602358D01*
X172834279Y-112715041D01*
X172866046Y-112796646D01*
X172891632Y-112924577D01*
X173116449Y-112711955D01*
X173235879Y-112602190D01*
X173323571Y-112538695D01*
X173408583Y-112508815D01*
X173519972Y-112499893D01*
X173604573Y-112499333D01*
X173867880Y-112499333D01*
X174115107Y-112746560D01*
X174115107Y-112746560D01*
G37*
X174115107Y-112746560D02*
X174256035Y-112898292D01*
X174335758Y-113012853D01*
X174362261Y-113101865D01*
X174362334Y-113106393D01*
X174355345Y-113175766D01*
X174319166Y-113208632D01*
X174230972Y-113218481D01*
X174171834Y-113219000D01*
X174038289Y-113207983D01*
X173983242Y-113174284D01*
X173981334Y-113163420D01*
X173944622Y-113073837D01*
X173852242Y-112983866D01*
X173730829Y-112912990D01*
X173607014Y-112880693D01*
X173594379Y-112880333D01*
X173515570Y-112888131D01*
X173440927Y-112919275D01*
X173353280Y-112985391D01*
X173235459Y-113098104D01*
X173162779Y-113172550D01*
X172880667Y-113464767D01*
X172880667Y-114954666D01*
X172542000Y-114954666D01*
X172542000Y-113965016D01*
X172541559Y-113639282D01*
X172539059Y-113388094D01*
X172532733Y-113201333D01*
X172520815Y-113068879D01*
X172501538Y-112980613D01*
X172473136Y-112926416D01*
X172433842Y-112896167D01*
X172381889Y-112879747D01*
X172351500Y-112873725D01*
X172294840Y-112845442D01*
X172270492Y-112773162D01*
X172266834Y-112689253D01*
X172271925Y-112580534D01*
X172301542Y-112530250D01*
X172377198Y-112512223D01*
X172415000Y-112508964D01*
X172581905Y-112528401D01*
X172729918Y-112602358D01*
X172834279Y-112715041D01*
X172866046Y-112796646D01*
X172891632Y-112924577D01*
X173116449Y-112711955D01*
X173235879Y-112602190D01*
X173323571Y-112538695D01*
X173408583Y-112508815D01*
X173519972Y-112499893D01*
X173604573Y-112499333D01*
X173867880Y-112499333D01*
X174115107Y-112746560D01*
G36*
X171408356Y-112741424D02*
X171653000Y-112983516D01*
X171653000Y-113896333D01*
X169917334Y-113896333D01*
X169917334Y-114121246D01*
X169924722Y-114266239D01*
X169955112Y-114362436D01*
X170020845Y-114445033D01*
X170036067Y-114459913D01*
X170154800Y-114573666D01*
X171653000Y-114573666D01*
X171653000Y-114954666D01*
X170094270Y-114954666D01*
X169880470Y-114785667D01*
X169760944Y-114683992D01*
X169666121Y-114590341D01*
X169622669Y-114534450D01*
X169606995Y-114462877D01*
X169594101Y-114319806D01*
X169584696Y-114118379D01*
X169579487Y-113871739D01*
X169578667Y-113717874D01*
X169578667Y-113316566D01*
X169959667Y-113316566D01*
X169959667Y-113515333D01*
X171314334Y-113515333D01*
X171314334Y-113339412D01*
X171281013Y-113150653D01*
X171206346Y-113021912D01*
X171098358Y-112880333D01*
X170642766Y-112880333D01*
X170440528Y-112881286D01*
X170304165Y-112886759D01*
X170214885Y-112900670D01*
X170153899Y-112926937D01*
X170102416Y-112969480D01*
X170073420Y-112999066D01*
X169996485Y-113101690D01*
X169964000Y-113219860D01*
X169959667Y-113316566D01*
X169578667Y-113316566D01*
X169578667Y-112983516D01*
X169823311Y-112741424D01*
X170067955Y-112499333D01*
X171163712Y-112499333D01*
X171408356Y-112741424D01*
X171408356Y-112741424D01*
G37*
X171408356Y-112741424D02*
X171653000Y-112983516D01*
X171653000Y-113896333D01*
X169917334Y-113896333D01*
X169917334Y-114121246D01*
X169924722Y-114266239D01*
X169955112Y-114362436D01*
X170020845Y-114445033D01*
X170036067Y-114459913D01*
X170154800Y-114573666D01*
X171653000Y-114573666D01*
X171653000Y-114954666D01*
X170094270Y-114954666D01*
X169880470Y-114785667D01*
X169760944Y-114683992D01*
X169666121Y-114590341D01*
X169622669Y-114534450D01*
X169606995Y-114462877D01*
X169594101Y-114319806D01*
X169584696Y-114118379D01*
X169579487Y-113871739D01*
X169578667Y-113717874D01*
X169578667Y-113316566D01*
X169959667Y-113316566D01*
X169959667Y-113515333D01*
X171314334Y-113515333D01*
X171314334Y-113339412D01*
X171281013Y-113150653D01*
X171206346Y-113021912D01*
X171098358Y-112880333D01*
X170642766Y-112880333D01*
X170440528Y-112881286D01*
X170304165Y-112886759D01*
X170214885Y-112900670D01*
X170153899Y-112926937D01*
X170102416Y-112969480D01*
X170073420Y-112999066D01*
X169996485Y-113101690D01*
X169964000Y-113219860D01*
X169959667Y-113316566D01*
X169578667Y-113316566D01*
X169578667Y-112983516D01*
X169823311Y-112741424D01*
X170067955Y-112499333D01*
X171163712Y-112499333D01*
X171408356Y-112741424D01*
G36*
X167260164Y-112509916D02*
X167271500Y-113536500D01*
X167479930Y-113549702D01*
X167688359Y-113562905D01*
X168209143Y-113043372D01*
X168729926Y-112523839D01*
X168858984Y-112647484D01*
X168988041Y-112771128D01*
X168514849Y-113245667D01*
X168041656Y-113720205D01*
X168482078Y-114192307D01*
X168635609Y-114358047D01*
X168767350Y-114502477D01*
X168866988Y-114614116D01*
X168924211Y-114681483D01*
X168933756Y-114695140D01*
X168913339Y-114741055D01*
X168848624Y-114817361D01*
X168824558Y-114841273D01*
X168704103Y-114956676D01*
X168206290Y-114426504D01*
X167708476Y-113896333D01*
X167250334Y-113896333D01*
X167250334Y-114954666D01*
X166911667Y-114954666D01*
X166911667Y-111483333D01*
X167248828Y-111483333D01*
X167260164Y-112509916D01*
X167260164Y-112509916D01*
G37*
X167260164Y-112509916D02*
X167271500Y-113536500D01*
X167479930Y-113549702D01*
X167688359Y-113562905D01*
X168209143Y-113043372D01*
X168729926Y-112523839D01*
X168858984Y-112647484D01*
X168988041Y-112771128D01*
X168514849Y-113245667D01*
X168041656Y-113720205D01*
X168482078Y-114192307D01*
X168635609Y-114358047D01*
X168767350Y-114502477D01*
X168866988Y-114614116D01*
X168924211Y-114681483D01*
X168933756Y-114695140D01*
X168913339Y-114741055D01*
X168848624Y-114817361D01*
X168824558Y-114841273D01*
X168704103Y-114956676D01*
X168206290Y-114426504D01*
X167708476Y-113896333D01*
X167250334Y-113896333D01*
X167250334Y-114954666D01*
X166911667Y-114954666D01*
X166911667Y-111483333D01*
X167248828Y-111483333D01*
X167260164Y-112509916D01*
G36*
X165668666Y-112508757D02*
X166297834Y-112520500D01*
X166297834Y-112859166D01*
X165726334Y-112870969D01*
X165154834Y-112882771D01*
X164869084Y-113166167D01*
X164583334Y-113449562D01*
X164583334Y-114004437D01*
X164869084Y-114287832D01*
X165154834Y-114571228D01*
X165726334Y-114583030D01*
X166297834Y-114594833D01*
X166297834Y-114933500D01*
X165705167Y-114941318D01*
X165485417Y-114942564D01*
X165293026Y-114940567D01*
X165145376Y-114935735D01*
X165059847Y-114928476D01*
X165049000Y-114925922D01*
X164996111Y-114888620D01*
X164897132Y-114803342D01*
X164765580Y-114682240D01*
X164614972Y-114537469D01*
X164593917Y-114516773D01*
X164202334Y-114130838D01*
X164202334Y-113319514D01*
X164620916Y-112908265D01*
X165039499Y-112497015D01*
X165668666Y-112508757D01*
X165668666Y-112508757D01*
G37*
X165668666Y-112508757D02*
X166297834Y-112520500D01*
X166297834Y-112859166D01*
X165726334Y-112870969D01*
X165154834Y-112882771D01*
X164869084Y-113166167D01*
X164583334Y-113449562D01*
X164583334Y-114004437D01*
X164869084Y-114287832D01*
X165154834Y-114571228D01*
X165726334Y-114583030D01*
X166297834Y-114594833D01*
X166297834Y-114933500D01*
X165705167Y-114941318D01*
X165485417Y-114942564D01*
X165293026Y-114940567D01*
X165145376Y-114935735D01*
X165059847Y-114928476D01*
X165049000Y-114925922D01*
X164996111Y-114888620D01*
X164897132Y-114803342D01*
X164765580Y-114682240D01*
X164614972Y-114537469D01*
X164593917Y-114516773D01*
X164202334Y-114130838D01*
X164202334Y-113319514D01*
X164620916Y-112908265D01*
X165039499Y-112497015D01*
X165668666Y-112508757D01*
G36*
X162731250Y-112507482D02*
X162911167Y-112520500D01*
X162911167Y-114933500D01*
X162731250Y-114946517D01*
X162551334Y-114959534D01*
X162551334Y-112494465D01*
X162731250Y-112507482D01*
X162731250Y-112507482D01*
G37*
X162731250Y-112507482D02*
X162911167Y-112520500D01*
X162911167Y-114933500D01*
X162731250Y-114946517D01*
X162551334Y-114959534D01*
X162551334Y-112494465D01*
X162731250Y-112507482D01*
G36*
X161046105Y-112077102D02*
X161289431Y-112332204D01*
X161274799Y-112735982D01*
X161260167Y-113139761D01*
X161041064Y-113348714D01*
X160821962Y-113557666D01*
X160118343Y-113557666D01*
X160678672Y-114119150D01*
X160878594Y-114321111D01*
X161025316Y-114474301D01*
X161126734Y-114588564D01*
X161190744Y-114673744D01*
X161225244Y-114739685D01*
X161238128Y-114796229D01*
X161239000Y-114817650D01*
X161233136Y-114905424D01*
X161199307Y-114944438D01*
X161113159Y-114954397D01*
X161069667Y-114954666D01*
X160949186Y-114942162D01*
X160900854Y-114906569D01*
X160900334Y-114901237D01*
X160871559Y-114856770D01*
X160791072Y-114762508D01*
X160667630Y-114627916D01*
X160509989Y-114462462D01*
X160326904Y-114275613D01*
X160254254Y-114202737D01*
X159608174Y-113557666D01*
X159207000Y-113557666D01*
X159207000Y-114954666D01*
X158826000Y-114954666D01*
X158826000Y-112203000D01*
X159207000Y-112203000D01*
X159207000Y-113176666D01*
X159955688Y-113176666D01*
X160225518Y-113176128D01*
X160423913Y-113173555D01*
X160564104Y-113167508D01*
X160659321Y-113156549D01*
X160722795Y-113139240D01*
X160767755Y-113114143D01*
X160802355Y-113084620D01*
X160856950Y-113020362D01*
X160886806Y-112940219D01*
X160898821Y-112817936D01*
X160900334Y-112711540D01*
X160896541Y-112554083D01*
X160879525Y-112453028D01*
X160840825Y-112380245D01*
X160781600Y-112316753D01*
X160662867Y-112203000D01*
X159207000Y-112203000D01*
X158826000Y-112203000D01*
X158826000Y-111822000D01*
X159814390Y-111822000D01*
X160802779Y-111821999D01*
X161046105Y-112077102D01*
X161046105Y-112077102D01*
G37*
X161046105Y-112077102D02*
X161289431Y-112332204D01*
X161274799Y-112735982D01*
X161260167Y-113139761D01*
X161041064Y-113348714D01*
X160821962Y-113557666D01*
X160118343Y-113557666D01*
X160678672Y-114119150D01*
X160878594Y-114321111D01*
X161025316Y-114474301D01*
X161126734Y-114588564D01*
X161190744Y-114673744D01*
X161225244Y-114739685D01*
X161238128Y-114796229D01*
X161239000Y-114817650D01*
X161233136Y-114905424D01*
X161199307Y-114944438D01*
X161113159Y-114954397D01*
X161069667Y-114954666D01*
X160949186Y-114942162D01*
X160900854Y-114906569D01*
X160900334Y-114901237D01*
X160871559Y-114856770D01*
X160791072Y-114762508D01*
X160667630Y-114627916D01*
X160509989Y-114462462D01*
X160326904Y-114275613D01*
X160254254Y-114202737D01*
X159608174Y-113557666D01*
X159207000Y-113557666D01*
X159207000Y-114954666D01*
X158826000Y-114954666D01*
X158826000Y-112203000D01*
X159207000Y-112203000D01*
X159207000Y-113176666D01*
X159955688Y-113176666D01*
X160225518Y-113176128D01*
X160423913Y-113173555D01*
X160564104Y-113167508D01*
X160659321Y-113156549D01*
X160722795Y-113139240D01*
X160767755Y-113114143D01*
X160802355Y-113084620D01*
X160856950Y-113020362D01*
X160886806Y-112940219D01*
X160898821Y-112817936D01*
X160900334Y-112711540D01*
X160896541Y-112554083D01*
X160879525Y-112453028D01*
X160840825Y-112380245D01*
X160781600Y-112316753D01*
X160662867Y-112203000D01*
X159207000Y-112203000D01*
X158826000Y-112203000D01*
X158826000Y-111822000D01*
X159814390Y-111822000D01*
X160802779Y-111821999D01*
X161046105Y-112077102D01*
G36*
X156413000Y-114954666D02*
X155693334Y-114954666D01*
X155693334Y-114235000D01*
X156413000Y-114235000D01*
X156413000Y-114954666D01*
X156413000Y-114954666D01*
G37*
X156413000Y-114954666D02*
X155693334Y-114954666D01*
X155693334Y-114235000D01*
X156413000Y-114235000D01*
X156413000Y-114954666D01*
G36*
X154762000Y-112610051D02*
X154762000Y-113103404D01*
X154373202Y-113499869D01*
X153984403Y-113896333D01*
X153468327Y-113896333D01*
X153254366Y-113898483D01*
X153059609Y-113904326D01*
X152906322Y-113912956D01*
X152819959Y-113922791D01*
X152687667Y-113949250D01*
X152687667Y-114954666D01*
X152517005Y-114954666D01*
X152400095Y-114942344D01*
X152331774Y-114910730D01*
X152325952Y-114901528D01*
X152321527Y-114848142D01*
X152318051Y-114720060D01*
X152315584Y-114527248D01*
X152314184Y-114279671D01*
X152313911Y-113987296D01*
X152314825Y-113660089D01*
X152316697Y-113345778D01*
X152325166Y-112203000D01*
X152687667Y-112203000D01*
X152687667Y-113557666D01*
X153807375Y-113557666D01*
X154094188Y-113273052D01*
X154255032Y-113104912D01*
X154350919Y-112972647D01*
X154382370Y-112858453D01*
X154349904Y-112744526D01*
X154254038Y-112613062D01*
X154117640Y-112468722D01*
X153854279Y-112203000D01*
X152687667Y-112203000D01*
X152325166Y-112203000D01*
X152327834Y-111843166D01*
X153149952Y-111831644D01*
X153972070Y-111820121D01*
X154762000Y-112610051D01*
X154762000Y-112610051D01*
G37*
X154762000Y-112610051D02*
X154762000Y-113103404D01*
X154373202Y-113499869D01*
X153984403Y-113896333D01*
X153468327Y-113896333D01*
X153254366Y-113898483D01*
X153059609Y-113904326D01*
X152906322Y-113912956D01*
X152819959Y-113922791D01*
X152687667Y-113949250D01*
X152687667Y-114954666D01*
X152517005Y-114954666D01*
X152400095Y-114942344D01*
X152331774Y-114910730D01*
X152325952Y-114901528D01*
X152321527Y-114848142D01*
X152318051Y-114720060D01*
X152315584Y-114527248D01*
X152314184Y-114279671D01*
X152313911Y-113987296D01*
X152314825Y-113660089D01*
X152316697Y-113345778D01*
X152325166Y-112203000D01*
X152687667Y-112203000D01*
X152687667Y-113557666D01*
X153807375Y-113557666D01*
X154094188Y-113273052D01*
X154255032Y-113104912D01*
X154350919Y-112972647D01*
X154382370Y-112858453D01*
X154349904Y-112744526D01*
X154254038Y-112613062D01*
X154117640Y-112468722D01*
X153854279Y-112203000D01*
X152687667Y-112203000D01*
X152325166Y-112203000D01*
X152327834Y-111843166D01*
X153149952Y-111831644D01*
X153972070Y-111820121D01*
X154762000Y-112610051D01*
G36*
X148827432Y-112503912D02*
X148914805Y-112526247D01*
X149000695Y-112579237D01*
X149111337Y-112675781D01*
X149155368Y-112717140D01*
X149385667Y-112934948D01*
X149385667Y-114954666D01*
X149047000Y-114954666D01*
X149047000Y-113107840D01*
X148928267Y-112994086D01*
X148789999Y-112901114D01*
X148654395Y-112892511D01*
X148517029Y-112968277D01*
X148488400Y-112994086D01*
X148369667Y-113107840D01*
X148369667Y-114959534D01*
X148189750Y-114946517D01*
X148009834Y-114933500D01*
X147998393Y-114028664D01*
X147994030Y-113726598D01*
X147988831Y-113497124D01*
X147981641Y-113328167D01*
X147971305Y-113207652D01*
X147956671Y-113123504D01*
X147936582Y-113063649D01*
X147909886Y-113016013D01*
X147900260Y-113002081D01*
X147790001Y-112903189D01*
X147662565Y-112885550D01*
X147525015Y-112949297D01*
X147472400Y-112994086D01*
X147353667Y-113107840D01*
X147353667Y-114954666D01*
X146971368Y-114954666D01*
X146993834Y-112520500D01*
X147173750Y-112507482D01*
X147300446Y-112508746D01*
X147351913Y-112537360D01*
X147353667Y-112547699D01*
X147366038Y-112579178D01*
X147404467Y-112550133D01*
X147473531Y-112521156D01*
X147594423Y-112502763D01*
X147678160Y-112499333D01*
X147827380Y-112508114D01*
X147934503Y-112544242D01*
X148041146Y-112622395D01*
X148050694Y-112630718D01*
X148200334Y-112762104D01*
X148349973Y-112630718D01*
X148463042Y-112546172D01*
X148574490Y-112507761D01*
X148712341Y-112499333D01*
X148827432Y-112503912D01*
X148827432Y-112503912D01*
G37*
X148827432Y-112503912D02*
X148914805Y-112526247D01*
X149000695Y-112579237D01*
X149111337Y-112675781D01*
X149155368Y-112717140D01*
X149385667Y-112934948D01*
X149385667Y-114954666D01*
X149047000Y-114954666D01*
X149047000Y-113107840D01*
X148928267Y-112994086D01*
X148789999Y-112901114D01*
X148654395Y-112892511D01*
X148517029Y-112968277D01*
X148488400Y-112994086D01*
X148369667Y-113107840D01*
X148369667Y-114959534D01*
X148189750Y-114946517D01*
X148009834Y-114933500D01*
X147998393Y-114028664D01*
X147994030Y-113726598D01*
X147988831Y-113497124D01*
X147981641Y-113328167D01*
X147971305Y-113207652D01*
X147956671Y-113123504D01*
X147936582Y-113063649D01*
X147909886Y-113016013D01*
X147900260Y-113002081D01*
X147790001Y-112903189D01*
X147662565Y-112885550D01*
X147525015Y-112949297D01*
X147472400Y-112994086D01*
X147353667Y-113107840D01*
X147353667Y-114954666D01*
X146971368Y-114954666D01*
X146993834Y-112520500D01*
X147173750Y-112507482D01*
X147300446Y-112508746D01*
X147351913Y-112537360D01*
X147353667Y-112547699D01*
X147366038Y-112579178D01*
X147404467Y-112550133D01*
X147473531Y-112521156D01*
X147594423Y-112502763D01*
X147678160Y-112499333D01*
X147827380Y-112508114D01*
X147934503Y-112544242D01*
X148041146Y-112622395D01*
X148050694Y-112630718D01*
X148200334Y-112762104D01*
X148349973Y-112630718D01*
X148463042Y-112546172D01*
X148574490Y-112507761D01*
X148712341Y-112499333D01*
X148827432Y-112503912D01*
G36*
X146380000Y-112963201D02*
X146380000Y-114573666D01*
X146718667Y-114573666D01*
X146718667Y-114954666D01*
X144754959Y-114954666D01*
X144530313Y-114722732D01*
X144416631Y-114602652D01*
X144349717Y-114515618D01*
X144317177Y-114434108D01*
X144306617Y-114330601D01*
X144306010Y-114262324D01*
X144650582Y-114262324D01*
X144708307Y-114396000D01*
X144758087Y-114454933D01*
X144806339Y-114502858D01*
X144853813Y-114535761D01*
X144916620Y-114556468D01*
X145010874Y-114567802D01*
X145152689Y-114572588D01*
X145358176Y-114573651D01*
X145435420Y-114573666D01*
X145999000Y-114573666D01*
X145999000Y-113854000D01*
X144923531Y-113854000D01*
X144783932Y-113989304D01*
X144675661Y-114129086D01*
X144650582Y-114262324D01*
X144306010Y-114262324D01*
X144305667Y-114223869D01*
X144307893Y-114085299D01*
X144323104Y-113990674D01*
X144364101Y-113912072D01*
X144443684Y-113821567D01*
X144529248Y-113736137D01*
X144752829Y-113515333D01*
X145999000Y-113515333D01*
X145999000Y-113289879D01*
X145990548Y-113140138D01*
X145958736Y-113042567D01*
X145901022Y-112972379D01*
X145855603Y-112935299D01*
X145801646Y-112909745D01*
X145723530Y-112893596D01*
X145605630Y-112884728D01*
X145432323Y-112881018D01*
X145223688Y-112880333D01*
X144644334Y-112880333D01*
X144644334Y-112499333D01*
X145930708Y-112499333D01*
X146380000Y-112963201D01*
X146380000Y-112963201D01*
G37*
X146380000Y-112963201D02*
X146380000Y-114573666D01*
X146718667Y-114573666D01*
X146718667Y-114954666D01*
X144754959Y-114954666D01*
X144530313Y-114722732D01*
X144416631Y-114602652D01*
X144349717Y-114515618D01*
X144317177Y-114434108D01*
X144306617Y-114330601D01*
X144306010Y-114262324D01*
X144650582Y-114262324D01*
X144708307Y-114396000D01*
X144758087Y-114454933D01*
X144806339Y-114502858D01*
X144853813Y-114535761D01*
X144916620Y-114556468D01*
X145010874Y-114567802D01*
X145152689Y-114572588D01*
X145358176Y-114573651D01*
X145435420Y-114573666D01*
X145999000Y-114573666D01*
X145999000Y-113854000D01*
X144923531Y-113854000D01*
X144783932Y-113989304D01*
X144675661Y-114129086D01*
X144650582Y-114262324D01*
X144306010Y-114262324D01*
X144305667Y-114223869D01*
X144307893Y-114085299D01*
X144323104Y-113990674D01*
X144364101Y-113912072D01*
X144443684Y-113821567D01*
X144529248Y-113736137D01*
X144752829Y-113515333D01*
X145999000Y-113515333D01*
X145999000Y-113289879D01*
X145990548Y-113140138D01*
X145958736Y-113042567D01*
X145901022Y-112972379D01*
X145855603Y-112935299D01*
X145801646Y-112909745D01*
X145723530Y-112893596D01*
X145605630Y-112884728D01*
X145432323Y-112881018D01*
X145223688Y-112880333D01*
X144644334Y-112880333D01*
X144644334Y-112499333D01*
X145930708Y-112499333D01*
X146380000Y-112963201D01*
G36*
X142993334Y-114954666D02*
X142822672Y-114954666D01*
X142704961Y-114942195D01*
X142636951Y-114910041D01*
X142631473Y-114901149D01*
X142626479Y-114846163D01*
X142622737Y-114718000D01*
X142620334Y-114528142D01*
X142619358Y-114288070D01*
X142619896Y-114009267D01*
X142622035Y-113703213D01*
X142622218Y-113684065D01*
X142633500Y-112520500D01*
X142813417Y-112507482D01*
X142993334Y-112494465D01*
X142993334Y-114954666D01*
X142993334Y-114954666D01*
G37*
X142993334Y-114954666D02*
X142822672Y-114954666D01*
X142704961Y-114942195D01*
X142636951Y-114910041D01*
X142631473Y-114901149D01*
X142626479Y-114846163D01*
X142622737Y-114718000D01*
X142620334Y-114528142D01*
X142619358Y-114288070D01*
X142619896Y-114009267D01*
X142622035Y-113703213D01*
X142622218Y-113684065D01*
X142633500Y-112520500D01*
X142813417Y-112507482D01*
X142993334Y-112494465D01*
X142993334Y-114954666D01*
G36*
X140336389Y-113017916D02*
X140347500Y-114552500D01*
X140506250Y-114565638D01*
X140604275Y-114577923D01*
X140650360Y-114609727D01*
X140664111Y-114685888D01*
X140665000Y-114766722D01*
X140665000Y-114954666D01*
X140461925Y-114954666D01*
X140331064Y-114946737D01*
X140236522Y-114911633D01*
X140140248Y-114832377D01*
X140102092Y-114794131D01*
X139945334Y-114633596D01*
X139945334Y-111483333D01*
X140325277Y-111483333D01*
X140336389Y-113017916D01*
X140336389Y-113017916D01*
G37*
X140336389Y-113017916D02*
X140347500Y-114552500D01*
X140506250Y-114565638D01*
X140604275Y-114577923D01*
X140650360Y-114609727D01*
X140664111Y-114685888D01*
X140665000Y-114766722D01*
X140665000Y-114954666D01*
X140461925Y-114954666D01*
X140331064Y-114946737D01*
X140236522Y-114911633D01*
X140140248Y-114832377D01*
X140102092Y-114794131D01*
X139945334Y-114633596D01*
X139945334Y-111483333D01*
X140325277Y-111483333D01*
X140336389Y-113017916D01*
G36*
X137627055Y-113017916D02*
X137638167Y-114552500D01*
X138002619Y-114578760D01*
X137989726Y-114756130D01*
X137976834Y-114933500D01*
X137779682Y-114946242D01*
X137643822Y-114945617D01*
X137543629Y-114911700D01*
X137434609Y-114829098D01*
X137430432Y-114825440D01*
X137278334Y-114691895D01*
X137278334Y-111483333D01*
X137615944Y-111483333D01*
X137627055Y-113017916D01*
X137627055Y-113017916D01*
G37*
X137627055Y-113017916D02*
X137638167Y-114552500D01*
X138002619Y-114578760D01*
X137989726Y-114756130D01*
X137976834Y-114933500D01*
X137779682Y-114946242D01*
X137643822Y-114945617D01*
X137543629Y-114911700D01*
X137434609Y-114829098D01*
X137430432Y-114825440D01*
X137278334Y-114691895D01*
X137278334Y-111483333D01*
X137615944Y-111483333D01*
X137627055Y-113017916D01*
G36*
X134950000Y-114954666D02*
X134779338Y-114954666D01*
X134661628Y-114942195D01*
X134593617Y-114910041D01*
X134588140Y-114901149D01*
X134583145Y-114846163D01*
X134579403Y-114718000D01*
X134577001Y-114528142D01*
X134576025Y-114288070D01*
X134576563Y-114009267D01*
X134578702Y-113703213D01*
X134578885Y-113684065D01*
X134590167Y-112520500D01*
X134770084Y-112507482D01*
X134950000Y-112494465D01*
X134950000Y-114954666D01*
X134950000Y-114954666D01*
G37*
X134950000Y-114954666D02*
X134779338Y-114954666D01*
X134661628Y-114942195D01*
X134593617Y-114910041D01*
X134588140Y-114901149D01*
X134583145Y-114846163D01*
X134579403Y-114718000D01*
X134577001Y-114528142D01*
X134576025Y-114288070D01*
X134576563Y-114009267D01*
X134578702Y-113703213D01*
X134578885Y-113684065D01*
X134590167Y-112520500D01*
X134770084Y-112507482D01*
X134950000Y-112494465D01*
X134950000Y-114954666D01*
G36*
X133299000Y-114519051D02*
X133068701Y-114736859D01*
X132949518Y-114842475D01*
X132847866Y-114919871D01*
X132783560Y-114954153D01*
X132778929Y-114954666D01*
X132708779Y-114925504D01*
X132638811Y-114865256D01*
X132567348Y-114793725D01*
X132454584Y-114688983D01*
X132323783Y-114572592D01*
X132311881Y-114562248D01*
X132065596Y-114348651D01*
X131760552Y-114651659D01*
X131626044Y-114779320D01*
X131508118Y-114880426D01*
X131422582Y-114941995D01*
X131391559Y-114954666D01*
X131332258Y-114926161D01*
X131235268Y-114850995D01*
X131120359Y-114744691D01*
X131106804Y-114731085D01*
X130886000Y-114507504D01*
X130886000Y-111822000D01*
X131224667Y-111822000D01*
X131224667Y-113085438D01*
X131224884Y-113446052D01*
X131225944Y-113731513D01*
X131228455Y-113951331D01*
X131233030Y-114115021D01*
X131240278Y-114232094D01*
X131250810Y-114312064D01*
X131265237Y-114364441D01*
X131284169Y-114398740D01*
X131308216Y-114424472D01*
X131310757Y-114426788D01*
X131355175Y-114462224D01*
X131396184Y-114469903D01*
X131449865Y-114441658D01*
X131532298Y-114369320D01*
X131649424Y-114254757D01*
X131902000Y-114004817D01*
X131902000Y-113219000D01*
X132283000Y-113219000D01*
X132285709Y-113631750D01*
X132288417Y-114044500D01*
X132540180Y-114271542D01*
X132639505Y-114360633D01*
X132719584Y-114425833D01*
X132782574Y-114460729D01*
X132830633Y-114458911D01*
X132865918Y-114413967D01*
X132890586Y-114319486D01*
X132906795Y-114169056D01*
X132916701Y-113956266D01*
X132922464Y-113674705D01*
X132926238Y-113317960D01*
X132927970Y-113119075D01*
X132939167Y-111843166D01*
X133119084Y-111830149D01*
X133299000Y-111817131D01*
X133299000Y-114519051D01*
X133299000Y-114519051D01*
G37*
X133299000Y-114519051D02*
X133068701Y-114736859D01*
X132949518Y-114842475D01*
X132847866Y-114919871D01*
X132783560Y-114954153D01*
X132778929Y-114954666D01*
X132708779Y-114925504D01*
X132638811Y-114865256D01*
X132567348Y-114793725D01*
X132454584Y-114688983D01*
X132323783Y-114572592D01*
X132311881Y-114562248D01*
X132065596Y-114348651D01*
X131760552Y-114651659D01*
X131626044Y-114779320D01*
X131508118Y-114880426D01*
X131422582Y-114941995D01*
X131391559Y-114954666D01*
X131332258Y-114926161D01*
X131235268Y-114850995D01*
X131120359Y-114744691D01*
X131106804Y-114731085D01*
X130886000Y-114507504D01*
X130886000Y-111822000D01*
X131224667Y-111822000D01*
X131224667Y-113085438D01*
X131224884Y-113446052D01*
X131225944Y-113731513D01*
X131228455Y-113951331D01*
X131233030Y-114115021D01*
X131240278Y-114232094D01*
X131250810Y-114312064D01*
X131265237Y-114364441D01*
X131284169Y-114398740D01*
X131308216Y-114424472D01*
X131310757Y-114426788D01*
X131355175Y-114462224D01*
X131396184Y-114469903D01*
X131449865Y-114441658D01*
X131532298Y-114369320D01*
X131649424Y-114254757D01*
X131902000Y-114004817D01*
X131902000Y-113219000D01*
X132283000Y-113219000D01*
X132285709Y-113631750D01*
X132288417Y-114044500D01*
X132540180Y-114271542D01*
X132639505Y-114360633D01*
X132719584Y-114425833D01*
X132782574Y-114460729D01*
X132830633Y-114458911D01*
X132865918Y-114413967D01*
X132890586Y-114319486D01*
X132906795Y-114169056D01*
X132916701Y-113956266D01*
X132922464Y-113674705D01*
X132926238Y-113317960D01*
X132927970Y-113119075D01*
X132939167Y-111843166D01*
X133119084Y-111830149D01*
X133299000Y-111817131D01*
X133299000Y-114519051D01*
G36*
X136873333Y-137884666D02*
X149742666Y-137884666D01*
X149742666Y-137096562D01*
X149743025Y-136820661D01*
X149744894Y-136618445D01*
X149749459Y-136478936D01*
X149757907Y-136391152D01*
X149771423Y-136344115D01*
X149791194Y-136326844D01*
X149818407Y-136328358D01*
X149825481Y-136330115D01*
X149888725Y-136352863D01*
X150018303Y-136404427D01*
X150205569Y-136481115D01*
X150441875Y-136579239D01*
X150718575Y-136695107D01*
X151027021Y-136825030D01*
X151358567Y-136965318D01*
X151704565Y-137112281D01*
X152056369Y-137262229D01*
X152405330Y-137411473D01*
X152742803Y-137556321D01*
X153060140Y-137693084D01*
X153348693Y-137818073D01*
X153599817Y-137927597D01*
X153804863Y-138017965D01*
X153955186Y-138085490D01*
X154042137Y-138126479D01*
X154060666Y-138137399D01*
X154023320Y-138157133D01*
X153916955Y-138207119D01*
X153750077Y-138283582D01*
X153531197Y-138382744D01*
X153268820Y-138500830D01*
X152971456Y-138634065D01*
X152647612Y-138778672D01*
X152305797Y-138930876D01*
X151954518Y-139086900D01*
X151602284Y-139242969D01*
X151257602Y-139395306D01*
X150928981Y-139540137D01*
X150624928Y-139673684D01*
X150353952Y-139792172D01*
X150124560Y-139891825D01*
X149945262Y-139968868D01*
X149824564Y-140019523D01*
X149781292Y-140036611D01*
X149768604Y-140000922D01*
X149757915Y-139890761D01*
X149749707Y-139716305D01*
X149744464Y-139487735D01*
X149742666Y-139221694D01*
X149742666Y-138392666D01*
X136365333Y-138392666D01*
X136365333Y-135641000D01*
X136873333Y-135641000D01*
X136873333Y-137884666D01*
X136873333Y-137884666D01*
G37*
X136873333Y-137884666D02*
X149742666Y-137884666D01*
X149742666Y-137096562D01*
X149743025Y-136820661D01*
X149744894Y-136618445D01*
X149749459Y-136478936D01*
X149757907Y-136391152D01*
X149771423Y-136344115D01*
X149791194Y-136326844D01*
X149818407Y-136328358D01*
X149825481Y-136330115D01*
X149888725Y-136352863D01*
X150018303Y-136404427D01*
X150205569Y-136481115D01*
X150441875Y-136579239D01*
X150718575Y-136695107D01*
X151027021Y-136825030D01*
X151358567Y-136965318D01*
X151704565Y-137112281D01*
X152056369Y-137262229D01*
X152405330Y-137411473D01*
X152742803Y-137556321D01*
X153060140Y-137693084D01*
X153348693Y-137818073D01*
X153599817Y-137927597D01*
X153804863Y-138017965D01*
X153955186Y-138085490D01*
X154042137Y-138126479D01*
X154060666Y-138137399D01*
X154023320Y-138157133D01*
X153916955Y-138207119D01*
X153750077Y-138283582D01*
X153531197Y-138382744D01*
X153268820Y-138500830D01*
X152971456Y-138634065D01*
X152647612Y-138778672D01*
X152305797Y-138930876D01*
X151954518Y-139086900D01*
X151602284Y-139242969D01*
X151257602Y-139395306D01*
X150928981Y-139540137D01*
X150624928Y-139673684D01*
X150353952Y-139792172D01*
X150124560Y-139891825D01*
X149945262Y-139968868D01*
X149824564Y-140019523D01*
X149781292Y-140036611D01*
X149768604Y-140000922D01*
X149757915Y-139890761D01*
X149749707Y-139716305D01*
X149744464Y-139487735D01*
X149742666Y-139221694D01*
X149742666Y-138392666D01*
X136365333Y-138392666D01*
X136365333Y-135641000D01*
X136873333Y-135641000D01*
X136873333Y-137884666D01*
G36*
X165773815Y-128594804D02*
X166568127Y-128701480D01*
X167349296Y-128884086D01*
X168127179Y-129144944D01*
X168911635Y-129486379D01*
X168940833Y-129500548D01*
X169722687Y-129927694D01*
X170454530Y-130421918D01*
X171133154Y-130979744D01*
X171755353Y-131597695D01*
X172317918Y-132272296D01*
X172817641Y-133000070D01*
X173251316Y-133777540D01*
X173592273Y-134541453D01*
X173866795Y-135346537D01*
X174063034Y-136179364D01*
X174181463Y-137042502D01*
X174222554Y-137938517D01*
X174222597Y-137969333D01*
X174202025Y-138680604D01*
X174137916Y-139341725D01*
X174026648Y-139977215D01*
X173864602Y-140611589D01*
X173802239Y-140815808D01*
X173493885Y-141653296D01*
X173114776Y-142447793D01*
X172668895Y-143195981D01*
X172160220Y-143894547D01*
X171592733Y-144540174D01*
X170970414Y-145129549D01*
X170297243Y-145659355D01*
X169577202Y-146126277D01*
X168814269Y-146527001D01*
X168012426Y-146858211D01*
X167175653Y-147116592D01*
X166307930Y-147298829D01*
X165957942Y-147349053D01*
X165706212Y-147372657D01*
X165397228Y-147389679D01*
X165058180Y-147399648D01*
X164716261Y-147402091D01*
X164398662Y-147396537D01*
X164132574Y-147382512D01*
X164114833Y-147381053D01*
X163209847Y-147263484D01*
X162333744Y-147068030D01*
X161490049Y-146796626D01*
X160682291Y-146451208D01*
X159913997Y-146033713D01*
X159188694Y-145546075D01*
X158509908Y-144990232D01*
X157881169Y-144368118D01*
X157306002Y-143681670D01*
X157257580Y-143617594D01*
X156760224Y-142883685D01*
X156335918Y-142107685D01*
X155985619Y-141291903D01*
X155710287Y-140438652D01*
X155510882Y-139550240D01*
X155472004Y-139316448D01*
X155434292Y-138993709D01*
X155409289Y-138611219D01*
X155400349Y-138307098D01*
X156188497Y-138307098D01*
X156259918Y-139142553D01*
X156349182Y-139683833D01*
X156531034Y-140412041D01*
X156787838Y-141142266D01*
X157111832Y-141858463D01*
X157495249Y-142544585D01*
X157930326Y-143184585D01*
X158217670Y-143545360D01*
X158795213Y-144162137D01*
X159427903Y-144716953D01*
X160110169Y-145206853D01*
X160836439Y-145628879D01*
X161601139Y-145980076D01*
X162398697Y-146257486D01*
X163223541Y-146458152D01*
X163903166Y-146561879D01*
X164132268Y-146578312D01*
X164423379Y-146584988D01*
X164754489Y-146582590D01*
X165103586Y-146571801D01*
X165448660Y-146553303D01*
X165767700Y-146527779D01*
X166038694Y-146495911D01*
X166041000Y-146495575D01*
X166871161Y-146332498D01*
X167673341Y-146091379D01*
X168442936Y-145775554D01*
X169175341Y-145388357D01*
X169865951Y-144933124D01*
X170510161Y-144413188D01*
X171103367Y-143831885D01*
X171640963Y-143192549D01*
X172118346Y-142498515D01*
X172497901Y-141819540D01*
X172834493Y-141056865D01*
X173092094Y-140271349D01*
X173271265Y-139469142D01*
X173372562Y-138656393D01*
X173396544Y-137839253D01*
X173343770Y-137023872D01*
X173214799Y-136216398D01*
X173010188Y-135422983D01*
X172730497Y-134649775D01*
X172376284Y-133902924D01*
X171948107Y-133188581D01*
X171679676Y-132809632D01*
X171505072Y-132592285D01*
X171283810Y-132339892D01*
X171034288Y-132071596D01*
X170774902Y-131806540D01*
X170524049Y-131563867D01*
X170300127Y-131362717D01*
X170244196Y-131315983D01*
X169577129Y-130824173D01*
X168859529Y-130396806D01*
X168100041Y-130037779D01*
X167307313Y-129750984D01*
X166489989Y-129540317D01*
X166168000Y-129479895D01*
X165903641Y-129444925D01*
X165581502Y-129417107D01*
X165223974Y-129397060D01*
X164853452Y-129385400D01*
X164492327Y-129382746D01*
X164162992Y-129389716D01*
X163887840Y-129406926D01*
X163812978Y-129414930D01*
X162973597Y-129557927D01*
X162168522Y-129775323D01*
X161400769Y-130062968D01*
X160673354Y-130416713D01*
X159989292Y-130832409D01*
X159351600Y-131305906D01*
X158763293Y-131833055D01*
X158227388Y-132409707D01*
X157746899Y-133031712D01*
X157324844Y-133694922D01*
X156964238Y-134395185D01*
X156668096Y-135128355D01*
X156439436Y-135890280D01*
X156281272Y-136676811D01*
X156196620Y-137483801D01*
X156188497Y-138307098D01*
X155400349Y-138307098D01*
X155396993Y-138192934D01*
X155397401Y-137762810D01*
X155410510Y-137344804D01*
X155436317Y-136962872D01*
X155472327Y-136657000D01*
X155649799Y-135765993D01*
X155903012Y-134908678D01*
X156229192Y-134088662D01*
X156625565Y-133309552D01*
X157089357Y-132574955D01*
X157617793Y-131888477D01*
X158208100Y-131253725D01*
X158857503Y-130674307D01*
X159563229Y-130153829D01*
X160322503Y-129695898D01*
X161125104Y-129307314D01*
X161868817Y-129025917D01*
X162634077Y-128812657D01*
X163430752Y-128665616D01*
X164268709Y-128582873D01*
X164956500Y-128561736D01*
X165773815Y-128594804D01*
X165773815Y-128594804D01*
G37*
X165773815Y-128594804D02*
X166568127Y-128701480D01*
X167349296Y-128884086D01*
X168127179Y-129144944D01*
X168911635Y-129486379D01*
X168940833Y-129500548D01*
X169722687Y-129927694D01*
X170454530Y-130421918D01*
X171133154Y-130979744D01*
X171755353Y-131597695D01*
X172317918Y-132272296D01*
X172817641Y-133000070D01*
X173251316Y-133777540D01*
X173592273Y-134541453D01*
X173866795Y-135346537D01*
X174063034Y-136179364D01*
X174181463Y-137042502D01*
X174222554Y-137938517D01*
X174222597Y-137969333D01*
X174202025Y-138680604D01*
X174137916Y-139341725D01*
X174026648Y-139977215D01*
X173864602Y-140611589D01*
X173802239Y-140815808D01*
X173493885Y-141653296D01*
X173114776Y-142447793D01*
X172668895Y-143195981D01*
X172160220Y-143894547D01*
X171592733Y-144540174D01*
X170970414Y-145129549D01*
X170297243Y-145659355D01*
X169577202Y-146126277D01*
X168814269Y-146527001D01*
X168012426Y-146858211D01*
X167175653Y-147116592D01*
X166307930Y-147298829D01*
X165957942Y-147349053D01*
X165706212Y-147372657D01*
X165397228Y-147389679D01*
X165058180Y-147399648D01*
X164716261Y-147402091D01*
X164398662Y-147396537D01*
X164132574Y-147382512D01*
X164114833Y-147381053D01*
X163209847Y-147263484D01*
X162333744Y-147068030D01*
X161490049Y-146796626D01*
X160682291Y-146451208D01*
X159913997Y-146033713D01*
X159188694Y-145546075D01*
X158509908Y-144990232D01*
X157881169Y-144368118D01*
X157306002Y-143681670D01*
X157257580Y-143617594D01*
X156760224Y-142883685D01*
X156335918Y-142107685D01*
X155985619Y-141291903D01*
X155710287Y-140438652D01*
X155510882Y-139550240D01*
X155472004Y-139316448D01*
X155434292Y-138993709D01*
X155409289Y-138611219D01*
X155400349Y-138307098D01*
X156188497Y-138307098D01*
X156259918Y-139142553D01*
X156349182Y-139683833D01*
X156531034Y-140412041D01*
X156787838Y-141142266D01*
X157111832Y-141858463D01*
X157495249Y-142544585D01*
X157930326Y-143184585D01*
X158217670Y-143545360D01*
X158795213Y-144162137D01*
X159427903Y-144716953D01*
X160110169Y-145206853D01*
X160836439Y-145628879D01*
X161601139Y-145980076D01*
X162398697Y-146257486D01*
X163223541Y-146458152D01*
X163903166Y-146561879D01*
X164132268Y-146578312D01*
X164423379Y-146584988D01*
X164754489Y-146582590D01*
X165103586Y-146571801D01*
X165448660Y-146553303D01*
X165767700Y-146527779D01*
X166038694Y-146495911D01*
X166041000Y-146495575D01*
X166871161Y-146332498D01*
X167673341Y-146091379D01*
X168442936Y-145775554D01*
X169175341Y-145388357D01*
X169865951Y-144933124D01*
X170510161Y-144413188D01*
X171103367Y-143831885D01*
X171640963Y-143192549D01*
X172118346Y-142498515D01*
X172497901Y-141819540D01*
X172834493Y-141056865D01*
X173092094Y-140271349D01*
X173271265Y-139469142D01*
X173372562Y-138656393D01*
X173396544Y-137839253D01*
X173343770Y-137023872D01*
X173214799Y-136216398D01*
X173010188Y-135422983D01*
X172730497Y-134649775D01*
X172376284Y-133902924D01*
X171948107Y-133188581D01*
X171679676Y-132809632D01*
X171505072Y-132592285D01*
X171283810Y-132339892D01*
X171034288Y-132071596D01*
X170774902Y-131806540D01*
X170524049Y-131563867D01*
X170300127Y-131362717D01*
X170244196Y-131315983D01*
X169577129Y-130824173D01*
X168859529Y-130396806D01*
X168100041Y-130037779D01*
X167307313Y-129750984D01*
X166489989Y-129540317D01*
X166168000Y-129479895D01*
X165903641Y-129444925D01*
X165581502Y-129417107D01*
X165223974Y-129397060D01*
X164853452Y-129385400D01*
X164492327Y-129382746D01*
X164162992Y-129389716D01*
X163887840Y-129406926D01*
X163812978Y-129414930D01*
X162973597Y-129557927D01*
X162168522Y-129775323D01*
X161400769Y-130062968D01*
X160673354Y-130416713D01*
X159989292Y-130832409D01*
X159351600Y-131305906D01*
X158763293Y-131833055D01*
X158227388Y-132409707D01*
X157746899Y-133031712D01*
X157324844Y-133694922D01*
X156964238Y-134395185D01*
X156668096Y-135128355D01*
X156439436Y-135890280D01*
X156281272Y-136676811D01*
X156196620Y-137483801D01*
X156188497Y-138307098D01*
X155400349Y-138307098D01*
X155396993Y-138192934D01*
X155397401Y-137762810D01*
X155410510Y-137344804D01*
X155436317Y-136962872D01*
X155472327Y-136657000D01*
X155649799Y-135765993D01*
X155903012Y-134908678D01*
X156229192Y-134088662D01*
X156625565Y-133309552D01*
X157089357Y-132574955D01*
X157617793Y-131888477D01*
X158208100Y-131253725D01*
X158857503Y-130674307D01*
X159563229Y-130153829D01*
X160322503Y-129695898D01*
X161125104Y-129307314D01*
X161868817Y-129025917D01*
X162634077Y-128812657D01*
X163430752Y-128665616D01*
X164268709Y-128582873D01*
X164956500Y-128561736D01*
X165773815Y-128594804D01*
D10*
G04 #@! TO.C,J6*
X118676955Y-113453949D02*
X116796051Y-111573045D01*
X116838478Y-115292426D02*
X118676955Y-113453949D01*
X114957574Y-113411522D02*
X116796051Y-111573045D01*
X116838478Y-115292426D02*
X114957574Y-113411522D01*
X115940452Y-116190452D02*
X115000000Y-117130904D01*
X115000000Y-117130904D02*
X114059548Y-116190452D01*
G04 #@! TO.C,R1*
X114150000Y-118520000D02*
X115350000Y-118520000D01*
X115350000Y-120280000D02*
X114150000Y-120280000D01*
G04 #@! TO.C,C1*
D11*
X104633333Y-134657142D02*
X104585714Y-134704761D01*
X104442857Y-134752380D01*
X104347619Y-134752380D01*
X104204761Y-134704761D01*
X104109523Y-134609523D01*
X104061904Y-134514285D01*
X104014285Y-134323809D01*
X104014285Y-134180952D01*
X104061904Y-133990476D01*
X104109523Y-133895238D01*
X104204761Y-133800000D01*
X104347619Y-133752380D01*
X104442857Y-133752380D01*
X104585714Y-133800000D01*
X104633333Y-133847619D01*
X105585714Y-134752380D02*
X105014285Y-134752380D01*
X105300000Y-134752380D02*
X105300000Y-133752380D01*
X105204761Y-133895238D01*
X105109523Y-133990476D01*
X105014285Y-134038095D01*
G04 #@! TO.C,C2*
X104633333Y-128257142D02*
X104585714Y-128304761D01*
X104442857Y-128352380D01*
X104347619Y-128352380D01*
X104204761Y-128304761D01*
X104109523Y-128209523D01*
X104061904Y-128114285D01*
X104014285Y-127923809D01*
X104014285Y-127780952D01*
X104061904Y-127590476D01*
X104109523Y-127495238D01*
X104204761Y-127400000D01*
X104347619Y-127352380D01*
X104442857Y-127352380D01*
X104585714Y-127400000D01*
X104633333Y-127447619D01*
X105014285Y-127447619D02*
X105061904Y-127400000D01*
X105157142Y-127352380D01*
X105395238Y-127352380D01*
X105490476Y-127400000D01*
X105538095Y-127447619D01*
X105585714Y-127542857D01*
X105585714Y-127638095D01*
X105538095Y-127780952D01*
X104966666Y-128352380D01*
X105585714Y-128352380D01*
G04 #@! TO.C,D1*
X118361904Y-121302380D02*
X118361904Y-120302380D01*
X118600000Y-120302380D01*
X118742857Y-120350000D01*
X118838095Y-120445238D01*
X118885714Y-120540476D01*
X118933333Y-120730952D01*
X118933333Y-120873809D01*
X118885714Y-121064285D01*
X118838095Y-121159523D01*
X118742857Y-121254761D01*
X118600000Y-121302380D01*
X118361904Y-121302380D01*
X119885714Y-121302380D02*
X119314285Y-121302380D01*
X119600000Y-121302380D02*
X119600000Y-120302380D01*
X119504761Y-120445238D01*
X119409523Y-120540476D01*
X119314285Y-120588095D01*
G04 #@! TO.C,J2*
X115262380Y-156133333D02*
X115976666Y-156133333D01*
X116119523Y-156180952D01*
X116214761Y-156276190D01*
X116262380Y-156419047D01*
X116262380Y-156514285D01*
X115357619Y-155704761D02*
X115310000Y-155657142D01*
X115262380Y-155561904D01*
X115262380Y-155323809D01*
X115310000Y-155228571D01*
X115357619Y-155180952D01*
X115452857Y-155133333D01*
X115548095Y-155133333D01*
X115690952Y-155180952D01*
X116262380Y-155752380D01*
X116262380Y-155133333D01*
G04 #@! TO.C,J3*
X118922380Y-156133333D02*
X119636666Y-156133333D01*
X119779523Y-156180952D01*
X119874761Y-156276190D01*
X119922380Y-156419047D01*
X119922380Y-156514285D01*
X118922380Y-155752380D02*
X118922380Y-155133333D01*
X119303333Y-155466666D01*
X119303333Y-155323809D01*
X119350952Y-155228571D01*
X119398571Y-155180952D01*
X119493809Y-155133333D01*
X119731904Y-155133333D01*
X119827142Y-155180952D01*
X119874761Y-155228571D01*
X119922380Y-155323809D01*
X119922380Y-155609523D01*
X119874761Y-155704761D01*
X119827142Y-155752380D01*
G04 #@! TO.C,U1*
X113188095Y-129727380D02*
X113188095Y-130536904D01*
X113235714Y-130632142D01*
X113283333Y-130679761D01*
X113378571Y-130727380D01*
X113569047Y-130727380D01*
X113664285Y-130679761D01*
X113711904Y-130632142D01*
X113759523Y-130536904D01*
X113759523Y-129727380D01*
X114759523Y-130727380D02*
X114188095Y-130727380D01*
X114473809Y-130727380D02*
X114473809Y-129727380D01*
X114378571Y-129870238D01*
X114283333Y-129965476D01*
X114188095Y-130013095D01*
G04 #@! TO.C,*
G04 #@! TO.C,J6*
X113503963Y-116274631D02*
X112998887Y-116779707D01*
X112864200Y-116847051D01*
X112729513Y-116847051D01*
X112594826Y-116779707D01*
X112527483Y-116712364D01*
X114143727Y-116914394D02*
X114009040Y-116779707D01*
X113908024Y-116746036D01*
X113840681Y-116746036D01*
X113672322Y-116779707D01*
X113503963Y-116880723D01*
X113234589Y-117150097D01*
X113200918Y-117251112D01*
X113200918Y-117318455D01*
X113234589Y-117419471D01*
X113369276Y-117554158D01*
X113470292Y-117587829D01*
X113537635Y-117587829D01*
X113638650Y-117554158D01*
X113807009Y-117385799D01*
X113840681Y-117284784D01*
X113840681Y-117217440D01*
X113807009Y-117116425D01*
X113672322Y-116981738D01*
X113571307Y-116948066D01*
X113503963Y-116948066D01*
X113402948Y-116981738D01*
G04 #@! TO.C,R1*
X114583333Y-121502380D02*
X114250000Y-121026190D01*
X114011904Y-121502380D02*
X114011904Y-120502380D01*
X114392857Y-120502380D01*
X114488095Y-120550000D01*
X114535714Y-120597619D01*
X114583333Y-120692857D01*
X114583333Y-120835714D01*
X114535714Y-120930952D01*
X114488095Y-120978571D01*
X114392857Y-121026190D01*
X114011904Y-121026190D01*
X115535714Y-121502380D02*
X114964285Y-121502380D01*
X115250000Y-121502380D02*
X115250000Y-120502380D01*
X115154761Y-120645238D01*
X115059523Y-120740476D01*
X114964285Y-120788095D01*
G04 #@! TD*
M02*
