G04 #@! TF.GenerationSoftware,KiCad,Pcbnew,5.1.0*
G04 #@! TF.CreationDate,2019-04-11T23:30:49-05:00*
G04 #@! TF.ProjectId,Card,43617264-2e6b-4696-9361-645f70636258,rev?*
G04 #@! TF.SameCoordinates,Original*
G04 #@! TF.FileFunction,Copper,L2,Bot*
G04 #@! TF.FilePolarity,Positive*
%FSLAX46Y46*%
G04 Gerber Fmt 4.6, Leading zero omitted, Abs format (unit mm)*
G04 Created by KiCad (PCBNEW 5.1.0) date 2019-04-11 23:30:49*
%MOMM*%
%LPD*%
G04 APERTURE LIST*
%ADD10R,1.700000X1.700000*%
%ADD11O,1.700000X1.700000*%
%ADD12R,10.000000X10.000000*%
%ADD13C,1.700000*%
%ADD14C,0.100000*%
%ADD15C,1.700000*%
%ADD16C,0.600000*%
%ADD17C,0.250000*%
%ADD18C,0.254000*%
G04 APERTURE END LIST*
D10*
X113480000Y-155800000D03*
D11*
X110940000Y-155800000D03*
X108400000Y-155800000D03*
X105860000Y-155800000D03*
D10*
X121800000Y-155800000D03*
D11*
X124340000Y-155800000D03*
X126880000Y-155800000D03*
X129420000Y-155800000D03*
X131960000Y-155800000D03*
D12*
X125400000Y-117200000D03*
D13*
X115000000Y-115250000D03*
D14*
G36*
X116202082Y-115250000D02*
G01*
X115000000Y-116452082D01*
X113797918Y-115250000D01*
X115000000Y-114047918D01*
X116202082Y-115250000D01*
X116202082Y-115250000D01*
G37*
D13*
X116796051Y-113453949D03*
D15*
X116796051Y-113453949D02*
X116796051Y-113453949D01*
D16*
X115400000Y-124200000D03*
D17*
X122400000Y-117200000D02*
X125400000Y-117200000D01*
X115400000Y-124200000D02*
X122400000Y-117200000D01*
D18*
G36*
X176483989Y-110685043D02*
G01*
X176588308Y-110674900D01*
X176610488Y-110668202D01*
X176835917Y-110679512D01*
X177209888Y-110736273D01*
X177540597Y-110820915D01*
X178026603Y-111007840D01*
X178243005Y-111111785D01*
X178552377Y-111299347D01*
X178841233Y-111515084D01*
X179107656Y-111757126D01*
X179349691Y-112023541D01*
X179565430Y-112312401D01*
X179752991Y-112621772D01*
X179910557Y-112949809D01*
X180036319Y-113294706D01*
X180128503Y-113654888D01*
X180185263Y-114028855D01*
X180205522Y-114432636D01*
X180205523Y-155599828D01*
X180185263Y-156003629D01*
X180128502Y-156377603D01*
X180036319Y-156737778D01*
X179910557Y-157082675D01*
X179752991Y-157410712D01*
X179565430Y-157720083D01*
X179349691Y-158008941D01*
X179107656Y-158275357D01*
X178841233Y-158517399D01*
X178607032Y-158692316D01*
X177815099Y-159114680D01*
X177570070Y-159204027D01*
X177209888Y-159296212D01*
X176835916Y-159352973D01*
X176432137Y-159373232D01*
X97234941Y-159373232D01*
X96831160Y-159352973D01*
X96457189Y-159296213D01*
X96097014Y-159204028D01*
X95752104Y-159078262D01*
X95524254Y-158968819D01*
X95338201Y-158868636D01*
X95114706Y-158733139D01*
X94825847Y-158517400D01*
X94559427Y-158275362D01*
X94317387Y-158008940D01*
X94101654Y-157720090D01*
X93914088Y-157410712D01*
X93756526Y-157082686D01*
X93630759Y-156737779D01*
X93538573Y-156377598D01*
X93481812Y-156003622D01*
X93472969Y-155827392D01*
X93481278Y-155800000D01*
X104367815Y-155800000D01*
X104396487Y-156091111D01*
X104481401Y-156371034D01*
X104619294Y-156629014D01*
X104804866Y-156855134D01*
X105030986Y-157040706D01*
X105288966Y-157178599D01*
X105568889Y-157263513D01*
X105787050Y-157285000D01*
X105932950Y-157285000D01*
X106151111Y-157263513D01*
X106431034Y-157178599D01*
X106689014Y-157040706D01*
X106915134Y-156855134D01*
X107100706Y-156629014D01*
X107135201Y-156564477D01*
X107204822Y-156681355D01*
X107399731Y-156897588D01*
X107633080Y-157071641D01*
X107895901Y-157196825D01*
X108043110Y-157241476D01*
X108273000Y-157120155D01*
X108273000Y-155927000D01*
X108253000Y-155927000D01*
X108253000Y-155673000D01*
X108273000Y-155673000D01*
X108273000Y-154479845D01*
X108527000Y-154479845D01*
X108527000Y-155673000D01*
X108547000Y-155673000D01*
X108547000Y-155927000D01*
X108527000Y-155927000D01*
X108527000Y-157120155D01*
X108756890Y-157241476D01*
X108904099Y-157196825D01*
X109166920Y-157071641D01*
X109400269Y-156897588D01*
X109595178Y-156681355D01*
X109664799Y-156564477D01*
X109699294Y-156629014D01*
X109884866Y-156855134D01*
X110110986Y-157040706D01*
X110368966Y-157178599D01*
X110648889Y-157263513D01*
X110867050Y-157285000D01*
X111012950Y-157285000D01*
X111231111Y-157263513D01*
X111511034Y-157178599D01*
X111769014Y-157040706D01*
X111995134Y-156855134D01*
X112019607Y-156825313D01*
X112040498Y-156894180D01*
X112099463Y-157004494D01*
X112178815Y-157101185D01*
X112275506Y-157180537D01*
X112385820Y-157239502D01*
X112505518Y-157275812D01*
X112630000Y-157288072D01*
X114330000Y-157288072D01*
X114454482Y-157275812D01*
X114574180Y-157239502D01*
X114684494Y-157180537D01*
X114781185Y-157101185D01*
X114860537Y-157004494D01*
X114919502Y-156894180D01*
X114955812Y-156774482D01*
X114968072Y-156650000D01*
X114968072Y-154950000D01*
X120311928Y-154950000D01*
X120311928Y-156650000D01*
X120324188Y-156774482D01*
X120360498Y-156894180D01*
X120419463Y-157004494D01*
X120498815Y-157101185D01*
X120595506Y-157180537D01*
X120705820Y-157239502D01*
X120825518Y-157275812D01*
X120950000Y-157288072D01*
X122650000Y-157288072D01*
X122774482Y-157275812D01*
X122894180Y-157239502D01*
X123004494Y-157180537D01*
X123101185Y-157101185D01*
X123180537Y-157004494D01*
X123239502Y-156894180D01*
X123260393Y-156825313D01*
X123284866Y-156855134D01*
X123510986Y-157040706D01*
X123768966Y-157178599D01*
X124048889Y-157263513D01*
X124267050Y-157285000D01*
X124412950Y-157285000D01*
X124631111Y-157263513D01*
X124911034Y-157178599D01*
X125169014Y-157040706D01*
X125395134Y-156855134D01*
X125580706Y-156629014D01*
X125610000Y-156574209D01*
X125639294Y-156629014D01*
X125824866Y-156855134D01*
X126050986Y-157040706D01*
X126308966Y-157178599D01*
X126588889Y-157263513D01*
X126807050Y-157285000D01*
X126952950Y-157285000D01*
X127171111Y-157263513D01*
X127451034Y-157178599D01*
X127709014Y-157040706D01*
X127935134Y-156855134D01*
X128120706Y-156629014D01*
X128150000Y-156574209D01*
X128179294Y-156629014D01*
X128364866Y-156855134D01*
X128590986Y-157040706D01*
X128848966Y-157178599D01*
X129128889Y-157263513D01*
X129347050Y-157285000D01*
X129492950Y-157285000D01*
X129711111Y-157263513D01*
X129991034Y-157178599D01*
X130249014Y-157040706D01*
X130475134Y-156855134D01*
X130660706Y-156629014D01*
X130690000Y-156574209D01*
X130719294Y-156629014D01*
X130904866Y-156855134D01*
X131130986Y-157040706D01*
X131388966Y-157178599D01*
X131668889Y-157263513D01*
X131887050Y-157285000D01*
X132032950Y-157285000D01*
X132251111Y-157263513D01*
X132531034Y-157178599D01*
X132789014Y-157040706D01*
X133015134Y-156855134D01*
X133200706Y-156629014D01*
X133338599Y-156371034D01*
X133423513Y-156091111D01*
X133452185Y-155800000D01*
X133423513Y-155508889D01*
X133338599Y-155228966D01*
X133200706Y-154970986D01*
X133015134Y-154744866D01*
X132789014Y-154559294D01*
X132531034Y-154421401D01*
X132251111Y-154336487D01*
X132032950Y-154315000D01*
X131887050Y-154315000D01*
X131668889Y-154336487D01*
X131388966Y-154421401D01*
X131130986Y-154559294D01*
X130904866Y-154744866D01*
X130719294Y-154970986D01*
X130690000Y-155025791D01*
X130660706Y-154970986D01*
X130475134Y-154744866D01*
X130249014Y-154559294D01*
X129991034Y-154421401D01*
X129711111Y-154336487D01*
X129492950Y-154315000D01*
X129347050Y-154315000D01*
X129128889Y-154336487D01*
X128848966Y-154421401D01*
X128590986Y-154559294D01*
X128364866Y-154744866D01*
X128179294Y-154970986D01*
X128150000Y-155025791D01*
X128120706Y-154970986D01*
X127935134Y-154744866D01*
X127709014Y-154559294D01*
X127451034Y-154421401D01*
X127171111Y-154336487D01*
X126952950Y-154315000D01*
X126807050Y-154315000D01*
X126588889Y-154336487D01*
X126308966Y-154421401D01*
X126050986Y-154559294D01*
X125824866Y-154744866D01*
X125639294Y-154970986D01*
X125610000Y-155025791D01*
X125580706Y-154970986D01*
X125395134Y-154744866D01*
X125169014Y-154559294D01*
X124911034Y-154421401D01*
X124631111Y-154336487D01*
X124412950Y-154315000D01*
X124267050Y-154315000D01*
X124048889Y-154336487D01*
X123768966Y-154421401D01*
X123510986Y-154559294D01*
X123284866Y-154744866D01*
X123260393Y-154774687D01*
X123239502Y-154705820D01*
X123180537Y-154595506D01*
X123101185Y-154498815D01*
X123004494Y-154419463D01*
X122894180Y-154360498D01*
X122774482Y-154324188D01*
X122650000Y-154311928D01*
X120950000Y-154311928D01*
X120825518Y-154324188D01*
X120705820Y-154360498D01*
X120595506Y-154419463D01*
X120498815Y-154498815D01*
X120419463Y-154595506D01*
X120360498Y-154705820D01*
X120324188Y-154825518D01*
X120311928Y-154950000D01*
X114968072Y-154950000D01*
X114955812Y-154825518D01*
X114919502Y-154705820D01*
X114860537Y-154595506D01*
X114781185Y-154498815D01*
X114684494Y-154419463D01*
X114574180Y-154360498D01*
X114454482Y-154324188D01*
X114330000Y-154311928D01*
X112630000Y-154311928D01*
X112505518Y-154324188D01*
X112385820Y-154360498D01*
X112275506Y-154419463D01*
X112178815Y-154498815D01*
X112099463Y-154595506D01*
X112040498Y-154705820D01*
X112019607Y-154774687D01*
X111995134Y-154744866D01*
X111769014Y-154559294D01*
X111511034Y-154421401D01*
X111231111Y-154336487D01*
X111012950Y-154315000D01*
X110867050Y-154315000D01*
X110648889Y-154336487D01*
X110368966Y-154421401D01*
X110110986Y-154559294D01*
X109884866Y-154744866D01*
X109699294Y-154970986D01*
X109664799Y-155035523D01*
X109595178Y-154918645D01*
X109400269Y-154702412D01*
X109166920Y-154528359D01*
X108904099Y-154403175D01*
X108756890Y-154358524D01*
X108527000Y-154479845D01*
X108273000Y-154479845D01*
X108043110Y-154358524D01*
X107895901Y-154403175D01*
X107633080Y-154528359D01*
X107399731Y-154702412D01*
X107204822Y-154918645D01*
X107135201Y-155035523D01*
X107100706Y-154970986D01*
X106915134Y-154744866D01*
X106689014Y-154559294D01*
X106431034Y-154421401D01*
X106151111Y-154336487D01*
X105932950Y-154315000D01*
X105787050Y-154315000D01*
X105568889Y-154336487D01*
X105288966Y-154421401D01*
X105030986Y-154559294D01*
X104804866Y-154744866D01*
X104619294Y-154970986D01*
X104481401Y-155228966D01*
X104396487Y-155508889D01*
X104367815Y-155800000D01*
X93481278Y-155800000D01*
X93499727Y-155739184D01*
X93510000Y-155634877D01*
X93510000Y-133894091D01*
X101077388Y-126326703D01*
X101104474Y-126304474D01*
X101126703Y-126277388D01*
X101126707Y-126277384D01*
X101193199Y-126196364D01*
X101259128Y-126073020D01*
X101299726Y-125939185D01*
X101313435Y-125800000D01*
X101299726Y-125660816D01*
X101259128Y-125526981D01*
X101259128Y-125526980D01*
X101193199Y-125403636D01*
X101126707Y-125322615D01*
X101126699Y-125322607D01*
X101104474Y-125295526D01*
X101077393Y-125273301D01*
X99912003Y-124107911D01*
X114465000Y-124107911D01*
X114465000Y-124292089D01*
X114500932Y-124472729D01*
X114571414Y-124642889D01*
X114673738Y-124796028D01*
X114803972Y-124926262D01*
X114957111Y-125028586D01*
X115127271Y-125099068D01*
X115307911Y-125135000D01*
X115492089Y-125135000D01*
X115672729Y-125099068D01*
X115842889Y-125028586D01*
X115996028Y-124926262D01*
X116126262Y-124796028D01*
X116228586Y-124642889D01*
X116299068Y-124472729D01*
X116323153Y-124351648D01*
X119761928Y-120912874D01*
X119761928Y-122200000D01*
X119774188Y-122324482D01*
X119810498Y-122444180D01*
X119869463Y-122554494D01*
X119948815Y-122651185D01*
X120045506Y-122730537D01*
X120155820Y-122789502D01*
X120275518Y-122825812D01*
X120400000Y-122838072D01*
X130400000Y-122838072D01*
X130524482Y-122825812D01*
X130644180Y-122789502D01*
X130754494Y-122730537D01*
X130851185Y-122651185D01*
X130930537Y-122554494D01*
X130989502Y-122444180D01*
X131025812Y-122324482D01*
X131038072Y-122200000D01*
X131038072Y-112200000D01*
X131025812Y-112075518D01*
X130989502Y-111955820D01*
X130930537Y-111845506D01*
X130851185Y-111748815D01*
X130754494Y-111669463D01*
X130644180Y-111610498D01*
X130524482Y-111574188D01*
X130400000Y-111561928D01*
X120400000Y-111561928D01*
X120275518Y-111574188D01*
X120155820Y-111610498D01*
X120045506Y-111669463D01*
X119948815Y-111748815D01*
X119869463Y-111845506D01*
X119810498Y-111955820D01*
X119774188Y-112075518D01*
X119761928Y-112200000D01*
X119761928Y-118763270D01*
X115248352Y-123276847D01*
X115127271Y-123300932D01*
X114957111Y-123371414D01*
X114803972Y-123473738D01*
X114673738Y-123603972D01*
X114571414Y-123757111D01*
X114500932Y-123927271D01*
X114465000Y-124107911D01*
X99912003Y-124107911D01*
X93873644Y-118069553D01*
X100867230Y-111075966D01*
X108094556Y-118303292D01*
X108095526Y-118304474D01*
X108096708Y-118305444D01*
X108119423Y-118328159D01*
X108197592Y-118392310D01*
X108316593Y-118455917D01*
X108326722Y-118458990D01*
X108326981Y-118459128D01*
X108460816Y-118499726D01*
X108600000Y-118513435D01*
X108739184Y-118499726D01*
X108873019Y-118459128D01*
X108996363Y-118393199D01*
X109077384Y-118326707D01*
X112154091Y-115250000D01*
X113159846Y-115250000D01*
X113172106Y-115374482D01*
X113208416Y-115494180D01*
X113267381Y-115604494D01*
X113346733Y-115701185D01*
X114548815Y-116903267D01*
X114645506Y-116982619D01*
X114755820Y-117041584D01*
X114875518Y-117077894D01*
X115000000Y-117090154D01*
X115124482Y-117077894D01*
X115244180Y-117041584D01*
X115354494Y-116982619D01*
X115451185Y-116903267D01*
X116653267Y-115701185D01*
X116732619Y-115604494D01*
X116791584Y-115494180D01*
X116827894Y-115374482D01*
X116840154Y-115250000D01*
X116827894Y-115125518D01*
X116791584Y-115005820D01*
X116751857Y-114931497D01*
X116864866Y-114937358D01*
X117152943Y-114895429D01*
X117427304Y-114798105D01*
X117562969Y-114725586D01*
X117639739Y-114477242D01*
X116796051Y-113633554D01*
X116781909Y-113647697D01*
X116602304Y-113468092D01*
X116616446Y-113453949D01*
X116975656Y-113453949D01*
X117819344Y-114297637D01*
X118067688Y-114220867D01*
X118140207Y-114085202D01*
X118237531Y-113810841D01*
X118279460Y-113522764D01*
X118264382Y-113232043D01*
X118192876Y-112949849D01*
X118067692Y-112687028D01*
X117819810Y-112609795D01*
X116975656Y-113453949D01*
X116616446Y-113453949D01*
X115772758Y-112610261D01*
X115524414Y-112687031D01*
X115451895Y-112822696D01*
X115354571Y-113097057D01*
X115312642Y-113385134D01*
X115318503Y-113498143D01*
X115244180Y-113458416D01*
X115124482Y-113422106D01*
X115000000Y-113409846D01*
X114875518Y-113422106D01*
X114755820Y-113458416D01*
X114645506Y-113517381D01*
X114548815Y-113596733D01*
X113346733Y-114798815D01*
X113267381Y-114895506D01*
X113208416Y-115005820D01*
X113172106Y-115125518D01*
X113159846Y-115250000D01*
X112154091Y-115250000D01*
X114973435Y-112430656D01*
X115952363Y-112430656D01*
X116796051Y-113274344D01*
X117640205Y-112430190D01*
X117562972Y-112182308D01*
X117300151Y-112057124D01*
X117017957Y-111985618D01*
X116727236Y-111970540D01*
X116439159Y-112012469D01*
X116164798Y-112109793D01*
X116029133Y-112182312D01*
X115952363Y-112430656D01*
X114973435Y-112430656D01*
X116793693Y-110610398D01*
X176483989Y-110685043D01*
X176483989Y-110685043D01*
G37*
X176483989Y-110685043D02*
X176588308Y-110674900D01*
X176610488Y-110668202D01*
X176835917Y-110679512D01*
X177209888Y-110736273D01*
X177540597Y-110820915D01*
X178026603Y-111007840D01*
X178243005Y-111111785D01*
X178552377Y-111299347D01*
X178841233Y-111515084D01*
X179107656Y-111757126D01*
X179349691Y-112023541D01*
X179565430Y-112312401D01*
X179752991Y-112621772D01*
X179910557Y-112949809D01*
X180036319Y-113294706D01*
X180128503Y-113654888D01*
X180185263Y-114028855D01*
X180205522Y-114432636D01*
X180205523Y-155599828D01*
X180185263Y-156003629D01*
X180128502Y-156377603D01*
X180036319Y-156737778D01*
X179910557Y-157082675D01*
X179752991Y-157410712D01*
X179565430Y-157720083D01*
X179349691Y-158008941D01*
X179107656Y-158275357D01*
X178841233Y-158517399D01*
X178607032Y-158692316D01*
X177815099Y-159114680D01*
X177570070Y-159204027D01*
X177209888Y-159296212D01*
X176835916Y-159352973D01*
X176432137Y-159373232D01*
X97234941Y-159373232D01*
X96831160Y-159352973D01*
X96457189Y-159296213D01*
X96097014Y-159204028D01*
X95752104Y-159078262D01*
X95524254Y-158968819D01*
X95338201Y-158868636D01*
X95114706Y-158733139D01*
X94825847Y-158517400D01*
X94559427Y-158275362D01*
X94317387Y-158008940D01*
X94101654Y-157720090D01*
X93914088Y-157410712D01*
X93756526Y-157082686D01*
X93630759Y-156737779D01*
X93538573Y-156377598D01*
X93481812Y-156003622D01*
X93472969Y-155827392D01*
X93481278Y-155800000D01*
X104367815Y-155800000D01*
X104396487Y-156091111D01*
X104481401Y-156371034D01*
X104619294Y-156629014D01*
X104804866Y-156855134D01*
X105030986Y-157040706D01*
X105288966Y-157178599D01*
X105568889Y-157263513D01*
X105787050Y-157285000D01*
X105932950Y-157285000D01*
X106151111Y-157263513D01*
X106431034Y-157178599D01*
X106689014Y-157040706D01*
X106915134Y-156855134D01*
X107100706Y-156629014D01*
X107135201Y-156564477D01*
X107204822Y-156681355D01*
X107399731Y-156897588D01*
X107633080Y-157071641D01*
X107895901Y-157196825D01*
X108043110Y-157241476D01*
X108273000Y-157120155D01*
X108273000Y-155927000D01*
X108253000Y-155927000D01*
X108253000Y-155673000D01*
X108273000Y-155673000D01*
X108273000Y-154479845D01*
X108527000Y-154479845D01*
X108527000Y-155673000D01*
X108547000Y-155673000D01*
X108547000Y-155927000D01*
X108527000Y-155927000D01*
X108527000Y-157120155D01*
X108756890Y-157241476D01*
X108904099Y-157196825D01*
X109166920Y-157071641D01*
X109400269Y-156897588D01*
X109595178Y-156681355D01*
X109664799Y-156564477D01*
X109699294Y-156629014D01*
X109884866Y-156855134D01*
X110110986Y-157040706D01*
X110368966Y-157178599D01*
X110648889Y-157263513D01*
X110867050Y-157285000D01*
X111012950Y-157285000D01*
X111231111Y-157263513D01*
X111511034Y-157178599D01*
X111769014Y-157040706D01*
X111995134Y-156855134D01*
X112019607Y-156825313D01*
X112040498Y-156894180D01*
X112099463Y-157004494D01*
X112178815Y-157101185D01*
X112275506Y-157180537D01*
X112385820Y-157239502D01*
X112505518Y-157275812D01*
X112630000Y-157288072D01*
X114330000Y-157288072D01*
X114454482Y-157275812D01*
X114574180Y-157239502D01*
X114684494Y-157180537D01*
X114781185Y-157101185D01*
X114860537Y-157004494D01*
X114919502Y-156894180D01*
X114955812Y-156774482D01*
X114968072Y-156650000D01*
X114968072Y-154950000D01*
X120311928Y-154950000D01*
X120311928Y-156650000D01*
X120324188Y-156774482D01*
X120360498Y-156894180D01*
X120419463Y-157004494D01*
X120498815Y-157101185D01*
X120595506Y-157180537D01*
X120705820Y-157239502D01*
X120825518Y-157275812D01*
X120950000Y-157288072D01*
X122650000Y-157288072D01*
X122774482Y-157275812D01*
X122894180Y-157239502D01*
X123004494Y-157180537D01*
X123101185Y-157101185D01*
X123180537Y-157004494D01*
X123239502Y-156894180D01*
X123260393Y-156825313D01*
X123284866Y-156855134D01*
X123510986Y-157040706D01*
X123768966Y-157178599D01*
X124048889Y-157263513D01*
X124267050Y-157285000D01*
X124412950Y-157285000D01*
X124631111Y-157263513D01*
X124911034Y-157178599D01*
X125169014Y-157040706D01*
X125395134Y-156855134D01*
X125580706Y-156629014D01*
X125610000Y-156574209D01*
X125639294Y-156629014D01*
X125824866Y-156855134D01*
X126050986Y-157040706D01*
X126308966Y-157178599D01*
X126588889Y-157263513D01*
X126807050Y-157285000D01*
X126952950Y-157285000D01*
X127171111Y-157263513D01*
X127451034Y-157178599D01*
X127709014Y-157040706D01*
X127935134Y-156855134D01*
X128120706Y-156629014D01*
X128150000Y-156574209D01*
X128179294Y-156629014D01*
X128364866Y-156855134D01*
X128590986Y-157040706D01*
X128848966Y-157178599D01*
X129128889Y-157263513D01*
X129347050Y-157285000D01*
X129492950Y-157285000D01*
X129711111Y-157263513D01*
X129991034Y-157178599D01*
X130249014Y-157040706D01*
X130475134Y-156855134D01*
X130660706Y-156629014D01*
X130690000Y-156574209D01*
X130719294Y-156629014D01*
X130904866Y-156855134D01*
X131130986Y-157040706D01*
X131388966Y-157178599D01*
X131668889Y-157263513D01*
X131887050Y-157285000D01*
X132032950Y-157285000D01*
X132251111Y-157263513D01*
X132531034Y-157178599D01*
X132789014Y-157040706D01*
X133015134Y-156855134D01*
X133200706Y-156629014D01*
X133338599Y-156371034D01*
X133423513Y-156091111D01*
X133452185Y-155800000D01*
X133423513Y-155508889D01*
X133338599Y-155228966D01*
X133200706Y-154970986D01*
X133015134Y-154744866D01*
X132789014Y-154559294D01*
X132531034Y-154421401D01*
X132251111Y-154336487D01*
X132032950Y-154315000D01*
X131887050Y-154315000D01*
X131668889Y-154336487D01*
X131388966Y-154421401D01*
X131130986Y-154559294D01*
X130904866Y-154744866D01*
X130719294Y-154970986D01*
X130690000Y-155025791D01*
X130660706Y-154970986D01*
X130475134Y-154744866D01*
X130249014Y-154559294D01*
X129991034Y-154421401D01*
X129711111Y-154336487D01*
X129492950Y-154315000D01*
X129347050Y-154315000D01*
X129128889Y-154336487D01*
X128848966Y-154421401D01*
X128590986Y-154559294D01*
X128364866Y-154744866D01*
X128179294Y-154970986D01*
X128150000Y-155025791D01*
X128120706Y-154970986D01*
X127935134Y-154744866D01*
X127709014Y-154559294D01*
X127451034Y-154421401D01*
X127171111Y-154336487D01*
X126952950Y-154315000D01*
X126807050Y-154315000D01*
X126588889Y-154336487D01*
X126308966Y-154421401D01*
X126050986Y-154559294D01*
X125824866Y-154744866D01*
X125639294Y-154970986D01*
X125610000Y-155025791D01*
X125580706Y-154970986D01*
X125395134Y-154744866D01*
X125169014Y-154559294D01*
X124911034Y-154421401D01*
X124631111Y-154336487D01*
X124412950Y-154315000D01*
X124267050Y-154315000D01*
X124048889Y-154336487D01*
X123768966Y-154421401D01*
X123510986Y-154559294D01*
X123284866Y-154744866D01*
X123260393Y-154774687D01*
X123239502Y-154705820D01*
X123180537Y-154595506D01*
X123101185Y-154498815D01*
X123004494Y-154419463D01*
X122894180Y-154360498D01*
X122774482Y-154324188D01*
X122650000Y-154311928D01*
X120950000Y-154311928D01*
X120825518Y-154324188D01*
X120705820Y-154360498D01*
X120595506Y-154419463D01*
X120498815Y-154498815D01*
X120419463Y-154595506D01*
X120360498Y-154705820D01*
X120324188Y-154825518D01*
X120311928Y-154950000D01*
X114968072Y-154950000D01*
X114955812Y-154825518D01*
X114919502Y-154705820D01*
X114860537Y-154595506D01*
X114781185Y-154498815D01*
X114684494Y-154419463D01*
X114574180Y-154360498D01*
X114454482Y-154324188D01*
X114330000Y-154311928D01*
X112630000Y-154311928D01*
X112505518Y-154324188D01*
X112385820Y-154360498D01*
X112275506Y-154419463D01*
X112178815Y-154498815D01*
X112099463Y-154595506D01*
X112040498Y-154705820D01*
X112019607Y-154774687D01*
X111995134Y-154744866D01*
X111769014Y-154559294D01*
X111511034Y-154421401D01*
X111231111Y-154336487D01*
X111012950Y-154315000D01*
X110867050Y-154315000D01*
X110648889Y-154336487D01*
X110368966Y-154421401D01*
X110110986Y-154559294D01*
X109884866Y-154744866D01*
X109699294Y-154970986D01*
X109664799Y-155035523D01*
X109595178Y-154918645D01*
X109400269Y-154702412D01*
X109166920Y-154528359D01*
X108904099Y-154403175D01*
X108756890Y-154358524D01*
X108527000Y-154479845D01*
X108273000Y-154479845D01*
X108043110Y-154358524D01*
X107895901Y-154403175D01*
X107633080Y-154528359D01*
X107399731Y-154702412D01*
X107204822Y-154918645D01*
X107135201Y-155035523D01*
X107100706Y-154970986D01*
X106915134Y-154744866D01*
X106689014Y-154559294D01*
X106431034Y-154421401D01*
X106151111Y-154336487D01*
X105932950Y-154315000D01*
X105787050Y-154315000D01*
X105568889Y-154336487D01*
X105288966Y-154421401D01*
X105030986Y-154559294D01*
X104804866Y-154744866D01*
X104619294Y-154970986D01*
X104481401Y-155228966D01*
X104396487Y-155508889D01*
X104367815Y-155800000D01*
X93481278Y-155800000D01*
X93499727Y-155739184D01*
X93510000Y-155634877D01*
X93510000Y-133894091D01*
X101077388Y-126326703D01*
X101104474Y-126304474D01*
X101126703Y-126277388D01*
X101126707Y-126277384D01*
X101193199Y-126196364D01*
X101259128Y-126073020D01*
X101299726Y-125939185D01*
X101313435Y-125800000D01*
X101299726Y-125660816D01*
X101259128Y-125526981D01*
X101259128Y-125526980D01*
X101193199Y-125403636D01*
X101126707Y-125322615D01*
X101126699Y-125322607D01*
X101104474Y-125295526D01*
X101077393Y-125273301D01*
X99912003Y-124107911D01*
X114465000Y-124107911D01*
X114465000Y-124292089D01*
X114500932Y-124472729D01*
X114571414Y-124642889D01*
X114673738Y-124796028D01*
X114803972Y-124926262D01*
X114957111Y-125028586D01*
X115127271Y-125099068D01*
X115307911Y-125135000D01*
X115492089Y-125135000D01*
X115672729Y-125099068D01*
X115842889Y-125028586D01*
X115996028Y-124926262D01*
X116126262Y-124796028D01*
X116228586Y-124642889D01*
X116299068Y-124472729D01*
X116323153Y-124351648D01*
X119761928Y-120912874D01*
X119761928Y-122200000D01*
X119774188Y-122324482D01*
X119810498Y-122444180D01*
X119869463Y-122554494D01*
X119948815Y-122651185D01*
X120045506Y-122730537D01*
X120155820Y-122789502D01*
X120275518Y-122825812D01*
X120400000Y-122838072D01*
X130400000Y-122838072D01*
X130524482Y-122825812D01*
X130644180Y-122789502D01*
X130754494Y-122730537D01*
X130851185Y-122651185D01*
X130930537Y-122554494D01*
X130989502Y-122444180D01*
X131025812Y-122324482D01*
X131038072Y-122200000D01*
X131038072Y-112200000D01*
X131025812Y-112075518D01*
X130989502Y-111955820D01*
X130930537Y-111845506D01*
X130851185Y-111748815D01*
X130754494Y-111669463D01*
X130644180Y-111610498D01*
X130524482Y-111574188D01*
X130400000Y-111561928D01*
X120400000Y-111561928D01*
X120275518Y-111574188D01*
X120155820Y-111610498D01*
X120045506Y-111669463D01*
X119948815Y-111748815D01*
X119869463Y-111845506D01*
X119810498Y-111955820D01*
X119774188Y-112075518D01*
X119761928Y-112200000D01*
X119761928Y-118763270D01*
X115248352Y-123276847D01*
X115127271Y-123300932D01*
X114957111Y-123371414D01*
X114803972Y-123473738D01*
X114673738Y-123603972D01*
X114571414Y-123757111D01*
X114500932Y-123927271D01*
X114465000Y-124107911D01*
X99912003Y-124107911D01*
X93873644Y-118069553D01*
X100867230Y-111075966D01*
X108094556Y-118303292D01*
X108095526Y-118304474D01*
X108096708Y-118305444D01*
X108119423Y-118328159D01*
X108197592Y-118392310D01*
X108316593Y-118455917D01*
X108326722Y-118458990D01*
X108326981Y-118459128D01*
X108460816Y-118499726D01*
X108600000Y-118513435D01*
X108739184Y-118499726D01*
X108873019Y-118459128D01*
X108996363Y-118393199D01*
X109077384Y-118326707D01*
X112154091Y-115250000D01*
X113159846Y-115250000D01*
X113172106Y-115374482D01*
X113208416Y-115494180D01*
X113267381Y-115604494D01*
X113346733Y-115701185D01*
X114548815Y-116903267D01*
X114645506Y-116982619D01*
X114755820Y-117041584D01*
X114875518Y-117077894D01*
X115000000Y-117090154D01*
X115124482Y-117077894D01*
X115244180Y-117041584D01*
X115354494Y-116982619D01*
X115451185Y-116903267D01*
X116653267Y-115701185D01*
X116732619Y-115604494D01*
X116791584Y-115494180D01*
X116827894Y-115374482D01*
X116840154Y-115250000D01*
X116827894Y-115125518D01*
X116791584Y-115005820D01*
X116751857Y-114931497D01*
X116864866Y-114937358D01*
X117152943Y-114895429D01*
X117427304Y-114798105D01*
X117562969Y-114725586D01*
X117639739Y-114477242D01*
X116796051Y-113633554D01*
X116781909Y-113647697D01*
X116602304Y-113468092D01*
X116616446Y-113453949D01*
X116975656Y-113453949D01*
X117819344Y-114297637D01*
X118067688Y-114220867D01*
X118140207Y-114085202D01*
X118237531Y-113810841D01*
X118279460Y-113522764D01*
X118264382Y-113232043D01*
X118192876Y-112949849D01*
X118067692Y-112687028D01*
X117819810Y-112609795D01*
X116975656Y-113453949D01*
X116616446Y-113453949D01*
X115772758Y-112610261D01*
X115524414Y-112687031D01*
X115451895Y-112822696D01*
X115354571Y-113097057D01*
X115312642Y-113385134D01*
X115318503Y-113498143D01*
X115244180Y-113458416D01*
X115124482Y-113422106D01*
X115000000Y-113409846D01*
X114875518Y-113422106D01*
X114755820Y-113458416D01*
X114645506Y-113517381D01*
X114548815Y-113596733D01*
X113346733Y-114798815D01*
X113267381Y-114895506D01*
X113208416Y-115005820D01*
X113172106Y-115125518D01*
X113159846Y-115250000D01*
X112154091Y-115250000D01*
X114973435Y-112430656D01*
X115952363Y-112430656D01*
X116796051Y-113274344D01*
X117640205Y-112430190D01*
X117562972Y-112182308D01*
X117300151Y-112057124D01*
X117017957Y-111985618D01*
X116727236Y-111970540D01*
X116439159Y-112012469D01*
X116164798Y-112109793D01*
X116029133Y-112182312D01*
X115952363Y-112430656D01*
X114973435Y-112430656D01*
X116793693Y-110610398D01*
X176483989Y-110685043D01*
M02*
