G04 #@! TF.GenerationSoftware,KiCad,Pcbnew,5.0.1*
G04 #@! TF.CreationDate,2019-03-05T22:11:55-06:00*
G04 #@! TF.ProjectId,Card,436172642E6B696361645F7063620000,rev?*
G04 #@! TF.SameCoordinates,Original*
G04 #@! TF.FileFunction,Profile,NP*
%FSLAX46Y46*%
G04 Gerber Fmt 4.6, Leading zero omitted, Abs format (unit mm)*
G04 Created by KiCad (PCBNEW 5.0.1) date Tue 05 Mar 2019 10:11:55 PM CST*
%MOMM*%
%LPD*%
G01*
G04 APERTURE LIST*
%ADD10C,0.150000*%
%ADD11C,0.100000*%
G04 APERTURE END LIST*
D10*
X116475000Y-109900000D02*
X116400000Y-110000000D01*
X176450000Y-109975000D02*
X116475000Y-109900000D01*
X93000000Y-118200000D02*
X92900000Y-118100000D01*
D11*
X92878689Y-118095772D02*
X100867230Y-110107230D01*
D10*
X100600000Y-125800000D02*
X93000000Y-118200000D01*
X92800000Y-133600000D02*
X100600000Y-125800000D01*
X92800000Y-155600000D02*
X92800000Y-133600000D01*
X108600000Y-117800000D02*
X116400000Y-110000000D01*
D11*
X100867230Y-110107230D02*
X108580000Y-117819999D01*
X116416205Y-109974531D02*
X116411805Y-109974248D01*
X176449303Y-109974254D02*
X176904647Y-109997099D01*
X176904647Y-109997099D02*
X177346551Y-110064171D01*
X177346551Y-110064171D02*
X177772815Y-110173269D01*
X177772815Y-110173269D02*
X178181240Y-110322194D01*
X178181240Y-110322194D02*
X178569628Y-110508749D01*
X178569628Y-110508749D02*
X178935779Y-110730734D01*
X178935779Y-110730734D02*
X179277495Y-110985950D01*
X179277495Y-110985950D02*
X179592576Y-111272198D01*
X179592576Y-111272198D02*
X179878825Y-111587280D01*
X179878825Y-111587280D02*
X180134041Y-111928996D01*
X180134041Y-111928996D02*
X180356026Y-112295147D01*
X180356026Y-112295147D02*
X180542580Y-112683535D01*
X180542580Y-112683535D02*
X180691507Y-113091960D01*
X180691507Y-113091960D02*
X180800605Y-113518224D01*
X180800605Y-113518224D02*
X180867676Y-113960127D01*
X180867676Y-113960127D02*
X180890522Y-114415471D01*
X180890522Y-114415471D02*
X180890522Y-155617013D01*
X180890522Y-155617013D02*
X180867676Y-156072357D01*
X180867676Y-156072357D02*
X180800605Y-156514261D01*
X180800605Y-156514261D02*
X180691507Y-156940524D01*
X180691507Y-156940524D02*
X180542580Y-157348949D01*
X180542580Y-157348949D02*
X180356026Y-157737337D01*
X180356026Y-157737337D02*
X180134041Y-158103488D01*
X180134041Y-158103488D02*
X179878825Y-158445203D01*
X179878825Y-158445203D02*
X179592576Y-158760285D01*
X179592576Y-158760285D02*
X179277495Y-159046533D01*
X179277495Y-159046533D02*
X178935779Y-159301749D01*
X178935779Y-159301749D02*
X178569628Y-159523734D01*
X178569628Y-159523734D02*
X178181240Y-159710289D01*
X178181240Y-159710289D02*
X177772815Y-159859216D01*
X177772815Y-159859216D02*
X177346551Y-159968314D01*
X177346551Y-159968314D02*
X176904647Y-160035386D01*
X176904647Y-160035386D02*
X176449303Y-160058232D01*
X176449303Y-160058232D02*
X97217776Y-160058232D01*
X97217776Y-160058232D02*
X96762432Y-160035386D01*
X96762432Y-160035386D02*
X96320529Y-159968315D01*
X96320529Y-159968315D02*
X95894265Y-159859216D01*
X95894265Y-159859216D02*
X95485840Y-159710290D01*
X95485840Y-159710290D02*
X95097452Y-159523735D01*
X95097452Y-159523735D02*
X94731301Y-159301750D01*
X94731301Y-159301750D02*
X94389585Y-159046534D01*
X94389585Y-159046534D02*
X94074503Y-158760286D01*
X94074503Y-158760286D02*
X93788255Y-158445204D01*
X93788255Y-158445204D02*
X93533038Y-158103488D01*
X93533038Y-158103488D02*
X93311053Y-157737336D01*
X93311053Y-157737336D02*
X93124497Y-157348948D01*
X93124497Y-157348948D02*
X92975570Y-156940522D01*
X92975570Y-156940522D02*
X92866471Y-156514258D01*
X92866471Y-156514258D02*
X92799399Y-156072353D01*
X92799399Y-156072353D02*
X92776552Y-155617008D01*
M02*
