G04 #@! TF.GenerationSoftware,KiCad,Pcbnew,5.1.0*
G04 #@! TF.CreationDate,2019-04-11T23:30:49-05:00*
G04 #@! TF.ProjectId,Card,43617264-2e6b-4696-9361-645f70636258,rev?*
G04 #@! TF.SameCoordinates,Original*
G04 #@! TF.FileFunction,Paste,Top*
G04 #@! TF.FilePolarity,Positive*
%FSLAX46Y46*%
G04 Gerber Fmt 4.6, Leading zero omitted, Abs format (unit mm)*
G04 Created by KiCad (PCBNEW 5.1.0) date 2019-04-11 23:30:49*
%MOMM*%
%LPD*%
G04 APERTURE LIST*
%ADD10R,1.000000X1.250000*%
%ADD11R,1.200000X1.200000*%
%ADD12C,2.000000*%
%ADD13C,0.100000*%
%ADD14R,1.450000X0.450000*%
%ADD15C,19.000000*%
%ADD16R,0.700000X1.300000*%
G04 APERTURE END LIST*
D10*
X105800000Y-132800000D03*
X103800000Y-132800000D03*
X105800000Y-129400000D03*
X103800000Y-129400000D03*
D11*
X118000000Y-119400000D03*
X120200000Y-119400000D03*
D12*
X97896699Y-120303301D03*
D13*
G36*
X100088730Y-123909546D02*
G01*
X94290454Y-118111270D01*
X95704668Y-116697056D01*
X101502944Y-122495332D01*
X100088730Y-123909546D01*
X100088730Y-123909546D01*
G37*
D12*
X103200000Y-115000000D03*
D13*
G36*
X105392031Y-118606245D02*
G01*
X99593755Y-112807969D01*
X101007969Y-111393755D01*
X106806245Y-117192031D01*
X105392031Y-118606245D01*
X105392031Y-118606245D01*
G37*
D12*
X99911953Y-118783021D03*
D13*
G36*
X101856497Y-122141778D02*
G01*
X96553196Y-116838477D01*
X97967409Y-115424264D01*
X103270710Y-120727565D01*
X101856497Y-122141778D01*
X101856497Y-122141778D01*
G37*
D12*
X101679720Y-117015254D03*
D13*
G36*
X103624264Y-120374011D02*
G01*
X98320963Y-115070710D01*
X99735176Y-113656497D01*
X105038477Y-118959798D01*
X103624264Y-120374011D01*
X103624264Y-120374011D01*
G37*
D14*
X116900000Y-128900000D03*
X116900000Y-128250000D03*
X116900000Y-127600000D03*
X116900000Y-126950000D03*
X116900000Y-126300000D03*
X116900000Y-125650000D03*
X116900000Y-125000000D03*
X116900000Y-124350000D03*
X116900000Y-123700000D03*
X116900000Y-123050000D03*
X111000000Y-123050000D03*
X111000000Y-123700000D03*
X111000000Y-124350000D03*
X111000000Y-125000000D03*
X111000000Y-125650000D03*
X111000000Y-126300000D03*
X111000000Y-126950000D03*
X111000000Y-127600000D03*
X111000000Y-128250000D03*
X111000000Y-128900000D03*
D15*
X164950000Y-138000000D03*
D16*
X115700000Y-119400000D03*
X113800000Y-119400000D03*
M02*
